<?xml version="1.0" encoding="utf-8"?>
<!-- Generator: Adobe Illustrator 27.5.0, SVG Export Plug-In . SVG Version: 6.00 Build 0)  -->
<svg version="1.1" xmlns="http://www.w3.org/2000/svg" xmlns:xlink="http://www.w3.org/1999/xlink" x="0px" y="0px"
	 viewBox="0 0 500 500" style="enable-background:new 0 0 500 500;" xml:space="preserve">
<g id="Background_Simple">
	<g>
		<path style="fill:#92E3A9;" d="M474.158,241.293c0,0.956-0.011,1.922-0.033,2.878c0,0.413,0,0.825-0.022,1.238
			c-0.011,0.673-0.033,1.347-0.054,2.009c-0.011,0.402-0.022,0.814-0.054,1.216c-0.033,0.999-0.076,1.998-0.141,2.997
			c-0.065,1.053-0.13,2.107-0.217,3.149c-0.043,0.63-0.098,1.26-0.163,1.89c-0.043,0.641-0.109,1.281-0.174,1.911
			c-0.098,1.032-0.206,2.064-0.337,3.084c-0.076,0.717-0.163,1.444-0.261,2.161c-0.043,0.38-0.098,0.749-0.152,1.129
			c-0.022,0.195-0.043,0.402-0.087,0.597c-3.779,27.161-13.868,52.606-28.91,75.185C315.734,444.688,189.528,451.3,65.068,352.587
			c-24.707-31.668-39.162-69.993-39.162-111.294c0-38.532,31.581-145.048,205.778-208.536
			c59.97-21.85,179.789,73.947,224.815,154.116C467.599,206.627,474.158,225.426,474.158,241.293z"/>
	</g>
	<g style="opacity:0.7;">
		<path style="fill:#FFFFFF;" d="M474.158,241.293c0,0.956-0.011,1.922-0.033,2.878c0,0.413,0,0.825-0.022,1.238
			c-0.011,0.673-0.033,1.347-0.054,2.009c-0.011,0.402-0.022,0.814-0.054,1.216c-0.033,0.999-0.076,1.998-0.141,2.997
			c-0.065,1.053-0.13,2.107-0.217,3.149c-0.043,0.63-0.098,1.26-0.163,1.89c-0.043,0.641-0.109,1.281-0.174,1.911
			c-0.098,1.032-0.206,2.064-0.337,3.084c-0.076,0.717-0.163,1.444-0.261,2.161c-0.043,0.38-0.098,0.749-0.152,1.129
			c-0.022,0.195-0.043,0.402-0.087,0.597c-3.779,27.161-13.868,52.606-28.91,75.185C315.734,444.688,189.528,451.3,65.068,352.587
			c-24.707-31.668-39.162-69.993-39.162-111.294c0-38.532,31.581-145.048,205.778-208.536
			c59.97-21.85,179.789,73.947,224.815,154.116C467.599,206.627,474.158,225.426,474.158,241.293z"/>
	</g>
</g>
<g id="Clouds">
	<g>
		<path style="fill:none;stroke:#515B60;stroke-linecap:round;stroke-linejoin:round;stroke-miterlimit:10;" d="M325.338,177.956
			l62.85,2.229c10.019,0.355,10.526-12.396-0.529-15.651c-0.139-0.041-0.28-0.081-0.422-0.12
			c10.229-9.673-22.351-31.059-37.027-1.201c-1.819-8.245-19.484-4.632-19.197,5.387
			C325.538,162.286,317.186,172.68,325.338,177.956z"/>
		<path style="fill:none;stroke:#515B60;stroke-linecap:round;stroke-linejoin:round;stroke-miterlimit:10;" d="M104.242,141.318
			l53.077-0.889c8.461-0.142,7.611-11.535-2.012-13.931c-0.121-0.03-0.244-0.06-0.367-0.088c7.633-9.093-21.906-26.672-31.259,0.623
			c-2.355-7.269-16.849-3.239-15.604,5.682C102.841,127.337,96.858,136.987,104.242,141.318z"/>
		<g>
			<g>
				<g>
					<path style="fill:#515B60;" d="M314.148,100.459c0,0-0.754-0.156-1.879-0.61c-1.13-0.441-2.585-1.188-4.099-1.919
						c-1.507-0.725-2.946-1.099-4.014-1.203c-1.067-0.119-1.793-0.026-1.895-0.28c-0.1-0.215,0.527-0.8,1.831-1.04
						c1.289-0.254,3.143-0.008,4.883,0.836c1.732,0.843,2.941,2.002,3.801,2.822C313.63,99.899,314.148,100.459,314.148,100.459z"/>
				</g>
				<g>
					<path style="fill:#515B60;" d="M320.747,95.147c0,0-0.534,0.208-1.36,0.531c-0.81,0.33-1.832,0.794-2.97,1.294
						c-2.272,1-4.209,2.043-4.525,1.591c-0.147-0.209,0.153-0.718,0.805-1.353c0.651-0.63,1.672-1.394,2.984-1.957
						c1.31-0.576,2.676-0.636,3.601-0.504c0.468,0.071,0.835,0.163,1.085,0.256C320.615,95.09,320.747,95.147,320.747,95.147z"/>
				</g>
			</g>
			<g>
				<g>
					<path style="fill:#515B60;" d="M301.904,104.42c0,0-0.135-0.082-0.374-0.226c-0.232-0.15-0.579-0.348-0.999-0.577
						c-0.844-0.463-2.012-0.987-3.328-1.446c-2.645-0.947-5.012-0.74-5.084-1.141c-0.033-0.179,0.543-0.484,1.566-0.628
						c1.016-0.147,2.478-0.074,3.978,0.443c1.503,0.523,2.646,1.454,3.309,2.225c0.336,0.386,0.573,0.722,0.715,0.969
						C301.826,104.283,301.904,104.42,301.904,104.42z"/>
				</g>
				<g>
					<path style="fill:#515B60;" d="M304.498,98.952c0,0-0.378,0.226-0.948,0.547c-0.562,0.315-1.305,0.732-2.113,1.185
						c-1.596,0.873-2.824,1.898-3.129,1.622c-0.139-0.13,0-0.552,0.407-1.107c0.405-0.552,1.109-1.231,2.049-1.746
						c0.944-0.513,1.928-0.651,2.617-0.635C304.076,98.829,304.498,98.952,304.498,98.952z"/>
				</g>
			</g>
			<g>
				<g>
					<path style="fill:#515B60;" d="M299.714,95.841c0,0-0.895-0.315-2.267-0.894c-1.377-0.571-3.214-1.393-5.23-2.059
						c-2.012-0.663-3.926-0.83-5.304-0.735c-1.382,0.079-2.262,0.343-2.389,0.096c-0.118-0.202,0.606-0.936,2.153-1.397
						c1.528-0.474,3.827-0.503,6.121,0.258c2.289,0.761,3.998,2.068,5.141,3.041C299.082,95.14,299.714,95.841,299.714,95.841z"/>
				</g>
				<g>
					<path style="fill:#515B60;" d="M305.788,88.122c0,0-0.183,0.052-0.509,0.145c-0.325,0.081-0.788,0.222-1.339,0.397
						c-1.109,0.348-2.544,0.907-4.067,1.602c-3.074,1.374-5.051,3.416-5.481,3.088c-0.194-0.15,0.062-0.899,0.844-1.872
						c0.773-0.969,2.118-2.114,3.857-2.915c1.747-0.798,3.521-0.944,4.746-0.832c0.616,0.053,1.105,0.146,1.438,0.241
						C305.604,88.069,305.788,88.122,305.788,88.122z"/>
				</g>
			</g>
		</g>
	</g>
</g>
<g id="Mountain">
	<g>
		<defs>
			<path id="XMLID_2_" d="M31.277,278.485l39.526-56.93l23.226-6.968l5.172-17.881c2.447-8.459,8.319-15.511,16.195-19.449l0,0
				l9.6-29.25l29.419-6.968l33.914-68.795l22.451-0.774l20.903-10.064l18.58-7.742l20.129,23.226l18.58,44.129l27.247,19.247
				l27.871,55.742l0,0c23.976,8.799,44.383,25.253,58.067,46.817l25.816,40.684l-258.075,13.917L31.277,278.485z"/>
		</defs>
		<use xlink:href="#XMLID_2_"  style="overflow:visible;fill:#FFFFFF;"/>
		<clipPath id="XMLID_00000076593060575035508600000006305626812661327777_">
			<use xlink:href="#XMLID_2_"  style="overflow:visible;"/>
		</clipPath>
		<path style="clip-path:url(#XMLID_00000076593060575035508600000006305626812661327777_);fill:#92E3A9;" d="M176.881,128.564
			c-1.096,3.181-2.246,6.42-4.323,9.067c-2.24,2.855-5.517,4.876-9.073,5.597c4.368,1.686,9.159,2.264,13.803,1.666
			c-1.029-9.482,3.055-19.366,10.476-25.357c-1.074-9.829,0.961-19.976,5.743-28.63c1.247-2.256,2.708-4.513,2.964-7.078
			c0.148-1.481-0.268-3.719-1.537-4.69c-2.787-2.132-2.084-0.032-3.356,1.97c-2.518,3.965-3.098,10.988-4.459,15.558
			C183.932,107.369,180.518,118.005,176.881,128.564z"/>
		<path style="opacity:0.8;clip-path:url(#XMLID_00000076593060575035508600000006305626812661327777_);fill:#FFFFFF;" d="
			M176.881,128.564c-1.096,3.181-2.246,6.42-4.323,9.067c-2.24,2.855-5.517,4.876-9.073,5.597c4.368,1.686,9.159,2.264,13.803,1.666
			c-1.029-9.482,3.055-19.366,10.476-25.357c-1.074-9.829,0.961-19.976,5.743-28.63c1.247-2.256,2.708-4.513,2.964-7.078
			c0.148-1.481-0.268-3.719-1.537-4.69c-2.787-2.132-2.084-0.032-3.356,1.97c-2.518,3.965-3.098,10.988-4.459,15.558
			C183.932,107.369,180.518,118.005,176.881,128.564z"/>
		<g style="clip-path:url(#XMLID_00000076593060575035508600000006305626812661327777_);">
			<path style="fill:#92E3A9;" d="M119.585,210.449c0.426-1.096,0.142-2.433-0.692-3.262c2.87,0.622,6.053-0.565,7.816-2.913
				c-1.965-6.887-0.489-14.667,3.862-20.356c-0.883,2.662-1.778,5.4-1.632,8.2c0.145,2.801,1.568,5.718,4.148,6.817
				c6.541,2.785,14.217-7.344,20.101-3.355c-2.338,2.02-4.675,4.04-7.013,6.06c6.31-1.176,12.619-2.353,18.928-3.529
				c0.86-1.951,1.721-3.902,2.581-5.854c0.924,2.178,1.848,4.355,2.771,6.533c1.323-6.873,5.852-13.058,12.004-16.396
				c-5.71,5.633-4.271,16.743-11.241,20.712c-2.945,1.677-6.54,1.47-9.922,1.695c-10.231,0.683-19.59,5.661-29.2,9.236
				c-8.753,3.256-20.965,6.24-29.497,0.858C105.028,213.928,118.868,212.297,119.585,210.449z"/>
			<path style="opacity:0.8;fill:#FFFFFF;" d="M119.585,210.449c0.426-1.096,0.142-2.433-0.692-3.262
				c2.87,0.622,6.053-0.565,7.816-2.913c-1.965-6.887-0.489-14.667,3.862-20.356c-0.883,2.662-1.778,5.4-1.632,8.2
				c0.145,2.801,1.568,5.718,4.148,6.817c6.541,2.785,14.217-7.344,20.101-3.355c-2.338,2.02-4.675,4.04-7.013,6.06
				c6.31-1.176,12.619-2.353,18.928-3.529c0.86-1.951,1.721-3.902,2.581-5.854c0.924,2.178,1.848,4.355,2.771,6.533
				c1.323-6.873,5.852-13.058,12.004-16.396c-5.71,5.633-4.271,16.743-11.241,20.712c-2.945,1.677-6.54,1.47-9.922,1.695
				c-10.231,0.683-19.59,5.661-29.2,9.236c-8.753,3.256-20.965,6.24-29.497,0.858C105.028,213.928,118.868,212.297,119.585,210.449z
				"/>
		</g>
		<path style="clip-path:url(#XMLID_00000076593060575035508600000006305626812661327777_);fill:#92E3A9;" d="M81.098,281.529
			c6.833-10.183,18.3-18.926,20.47-30.996c1.141-6.346,2.282-12.692,3.422-19.038c0,0-8.128,25.129-11.93,28.456
			c-3.802,3.327-15.208,18.535-15.208,18.535L81.098,281.529z"/>
		<g style="clip-path:url(#XMLID_00000076593060575035508600000006305626812661327777_);">
			<g>
				<path style="fill:#E4F8E9;" d="M277.933,178.348l-0.127-0.888c-0.155-0.298-0.31-0.595-0.465-0.893
					C277.538,177.161,277.736,177.755,277.933,178.348z"/>
			</g>
		</g>
		<path style="clip-path:url(#XMLID_00000076593060575035508600000006305626812661327777_);fill:#92E3A9;" d="M144.379,258.891
			c-0.45-1.728-0.9-3.456-1.349-5.184c-2.104,5.448-4.208,10.897-6.311,16.345c-1.193,3.09-2.403,6.266-2.417,9.578
			c-0.014,3.312,2.397,6.824,5.332,8.359c-0.743-5.562,0.507-11.102,3.428-15.894c2.92-4.792,6.579-9.126,9.202-14.087
			c5.653-10.691,7.54-23.577,11.712-34.87c-3.681,0.106-7.963,12.761-9.65,16.095C151.01,245.787,147.694,252.339,144.379,258.891z"
			/>
		<g style="clip-path:url(#XMLID_00000076593060575035508600000006305626812661327777_);">
			<path style="fill:#92E3A9;" d="M166.783,144.234c-4.124-0.886-8.247-1.771-12.371-2.657l-29.416,6.43l24.617,15.943l11.881-1.901
				l10.931-6.654l14.733,4.277l3.327,3.327l22.812,1.426l28.99-6.653l28.515-1.426l11.406-12.356l19.01,0.951l15.003-4.675
				l-27.247-19.247l-16.746,10.14c0,0,1.901,4.277-4.753,6.178c-6.653,1.901-13.307,3.327-13.307,3.327h-12.832l-10.455,1.901
				l-24.713,4.752c0,0-27.089-3.802-28.99-2.852C175.277,145.416,166.783,144.234,166.783,144.234z"/>
			<path style="opacity:0.8;fill:#FFFFFF;" d="M166.783,144.234c-4.124-0.886-8.247-1.771-12.371-2.657l-29.416,6.43l24.617,15.943
				l11.881-1.901l10.931-6.654l14.733,4.277l3.327,3.327l22.812,1.426l28.99-6.653l28.515-1.426l11.406-12.356l19.01,0.951
				l15.003-4.675l-27.247-19.247l-16.746,10.14c0,0,1.901,4.277-4.753,6.178c-6.653,1.901-13.307,3.327-13.307,3.327h-12.832
				l-10.455,1.901l-24.713,4.752c0,0-27.089-3.802-28.99-2.852C175.277,145.416,166.783,144.234,166.783,144.234z"/>
		</g>
		<g style="clip-path:url(#XMLID_00000076593060575035508600000006305626812661327777_);">
			<path style="fill:#92E3A9;" d="M201.891,200.545c1.219-5.18,1.932-12.155,3.151-17.335c-7.15,8.473-8.223,20.827-15.318,29.345
				c-3.071,3.686-7.117,6.452-10.269,10.069c-4.848,5.563-7.289,12.766-9.617,19.768c-5.181,15.582-10.432,31.875-8.033,48.119
				c4.862-11.498,4.919-16.778,13.948-28.184c5.264-6.649,7.255-21.956,11.491-29.303c4.681-8.119,9.167-9.122,9.989-15.168
				c0.707-5.198,1.864-10.324,3.812-15.194L201.891,200.545z"/>
		</g>
		<path style="clip-path:url(#XMLID_00000076593060575035508600000006305626812661327777_);fill:#92E3A9;" d="M272.927,169.329
			c4.321,9.648,9.757,17.909,14.984,26.463c4.704,7.697,18.305,10.051,22.721,17.916c11.021,19.628,17.814,26.23,24.554,40.624
			c3.337-0.694,6.674-1.387,10.012-2.081c-7.287-14.195-16.441-27.431-27.152-39.258c5.573,1.436,16.97,2.085,17.096,0.973
			c-10.308-2.73-13.926-5.436-22.993-11.045c-12.863-7.958-30.359-20.144-38.914-32.622"/>
		<path style="clip-path:url(#XMLID_00000076593060575035508600000006305626812661327777_);fill:#92E3A9;" d="M331.075,203.363
			c0.336,0.928,0.671,1.855,1.007,2.783c-4.793-0.46-9.586-0.921-14.379-1.382c6.71,3.069,13.642,6.3,18.444,11.902
			c2.304,2.687,4.248,6.008,7.554,7.271c1.715,0.655,3.608,0.665,5.375,1.163c5.737,1.619,8.752,7.739,11.08,13.226
			c3.359-1.807,6.718-3.614,10.077-5.421c-2.991,0.142-5.825-1.588-7.751-3.88c-1.926-2.293-3.1-5.107-4.245-7.874
			c-0.593-1.433-1.198-2.992-0.818-4.496c0.38-1.504,2.24-2.694,3.524-1.823c-0.201-2.286-2.997-3.147-5.168-3.893
			c-2.17-0.746-4.517-3.174-3.086-4.968c1.268-1.589,3.8-0.479,5.444,0.717C351.801,202.467,338.087,200.705,331.075,203.363z"/>
		<path style="opacity:0.8;clip-path:url(#XMLID_00000076593060575035508600000006305626812661327777_);fill:#FFFFFF;" d="
			M81.098,281.529c6.833-10.183,18.3-18.926,20.47-30.996c1.141-6.346,2.282-12.692,3.422-19.038c0,0-8.128,25.129-11.93,28.456
			c-3.802,3.327-15.208,18.535-15.208,18.535L81.098,281.529z"/>
		<path style="opacity:0.8;clip-path:url(#XMLID_00000076593060575035508600000006305626812661327777_);fill:#FFFFFF;" d="
			M144.379,258.891c-0.45-1.728-0.9-3.456-1.349-5.184c-2.104,5.448-4.208,10.897-6.311,16.345c-1.193,3.09-2.403,6.266-2.417,9.578
			c-0.014,3.312,2.397,6.824,5.332,8.359c-0.743-5.562,0.507-11.102,3.428-15.894c2.92-4.792,6.579-9.126,9.202-14.087
			c5.653-10.691,7.54-23.577,11.712-34.87c-3.681,0.106-7.963,12.761-9.65,16.095C151.01,245.787,147.694,252.339,144.379,258.891z"
			/>
		<g style="opacity:0.8;clip-path:url(#XMLID_00000076593060575035508600000006305626812661327777_);">
			<path style="fill:#FFFFFF;" d="M201.891,200.545c1.219-5.18,1.932-12.155,3.151-17.335c-7.15,8.473-8.223,20.827-15.318,29.345
				c-3.071,3.686-7.117,6.452-10.269,10.069c-4.848,5.563-7.289,12.766-9.617,19.768c-5.181,15.582-10.432,31.875-8.033,48.119
				c4.862-11.498,4.919-16.778,13.948-28.184c5.264-6.649,7.255-21.956,11.491-29.303c4.681-8.119,9.167-9.122,9.989-15.168
				c0.707-5.198,1.864-10.324,3.812-15.194L201.891,200.545z"/>
		</g>
		<path style="opacity:0.8;clip-path:url(#XMLID_00000076593060575035508600000006305626812661327777_);fill:#FFFFFF;" d="
			M272.927,169.329c4.321,9.648,9.757,17.909,14.984,26.463c4.704,7.697,18.305,10.051,22.721,17.916
			c11.021,19.628,17.814,26.23,24.554,40.624c3.337-0.694,6.674-1.387,10.012-2.081c-7.287-14.195-16.441-27.431-27.152-39.258
			c5.573,1.436,16.97,2.085,17.096,0.973c-10.308-2.73-13.926-5.436-22.993-11.045c-12.863-7.958-30.359-20.144-38.914-32.622"/>
		<path style="opacity:0.8;clip-path:url(#XMLID_00000076593060575035508600000006305626812661327777_);fill:#FFFFFF;" d="
			M331.075,203.363c0.336,0.928,0.671,1.855,1.007,2.783c-4.793-0.46-9.586-0.921-14.379-1.382c6.71,3.069,13.642,6.3,18.444,11.902
			c2.304,2.687,4.248,6.008,7.554,7.271c1.715,0.655,3.608,0.665,5.375,1.163c5.737,1.619,8.752,7.739,11.08,13.226
			c3.359-1.807,6.718-3.614,10.077-5.421c-2.991,0.142-5.825-1.588-7.751-3.88c-1.926-2.293-3.1-5.107-4.245-7.874
			c-0.593-1.433-1.198-2.992-0.818-4.496c0.38-1.504,2.24-2.694,3.524-1.823c-0.201-2.286-2.997-3.147-5.168-3.893
			c-2.17-0.746-4.517-3.174-3.086-4.968c1.268-1.589,3.8-0.479,5.444,0.717C351.801,202.467,338.087,200.705,331.075,203.363z"/>
		<g style="clip-path:url(#XMLID_00000076593060575035508600000006305626812661327777_);">
			<path style="fill:#92E3A9;" d="M146.713,219.217c-0.722,1.046-1.443,2.091-2.164,3.137c3.248-1.794,7.035-2.597,10.731-2.277
				c-0.454,0.764-0.908,1.528-1.361,2.292c3.012-1.67,6.024-3.34,9.037-5.01c0.143,1.149,0.287,2.298,0.43,3.448
				c4.227-4.442,8.454-8.884,12.68-13.326c-16.232,2.218-33.14,5.419-48.503,11.243
				C129.753,218.944,145.672,220.725,146.713,219.217z"/>
			<path style="opacity:0.8;fill:#FFFFFF;" d="M146.713,219.217c-0.722,1.046-1.443,2.091-2.164,3.137
				c3.248-1.794,7.035-2.597,10.731-2.277c-0.454,0.764-0.908,1.528-1.361,2.292c3.012-1.67,6.024-3.34,9.037-5.01
				c0.143,1.149,0.287,2.298,0.43,3.448c4.227-4.442,8.454-8.884,12.68-13.326c-16.232,2.218-33.14,5.419-48.503,11.243
				C129.753,218.944,145.672,220.725,146.713,219.217z"/>
		</g>
		<g style="clip-path:url(#XMLID_00000076593060575035508600000006305626812661327777_);">
			<path style="fill:#92E3A9;" d="M205.628,124.498c1.816-1.454,4.713-0.186,5.84,1.85c1.127,2.036,1.047,4.49,1.131,6.815
				c0.084,2.325,0.471,4.865,2.2,6.421c-1.718-4.036,0.762-8.871,4.433-11.273c3.671-2.401,8.207-2.965,12.564-3.467
				c-2.489-3.532-6.57-5.894-10.872-6.294c-1.424-0.132-3.041-0.135-4.014-1.183c-0.604-0.65-0.81-1.565-0.992-2.433
				c-1.367-6.502-2.733-13.004-4.1-19.506c-0.246,3.314-1.005,6.59-2.241,9.674c1.726-4.307-6.053-15.505-10.531-13.154
				C206.184,99.116,206.411,115.029,205.628,124.498z"/>
			<path style="opacity:0.8;fill:#FFFFFF;" d="M205.628,124.498c1.816-1.454,4.713-0.186,5.84,1.85
				c1.127,2.036,1.047,4.49,1.131,6.815c0.084,2.325,0.471,4.865,2.2,6.421c-1.718-4.036,0.762-8.871,4.433-11.273
				c3.671-2.401,8.207-2.965,12.564-3.467c-2.489-3.532-6.57-5.894-10.872-6.294c-1.424-0.132-3.041-0.135-4.014-1.183
				c-0.604-0.65-0.81-1.565-0.992-2.433c-1.367-6.502-2.733-13.004-4.1-19.506c-0.246,3.314-1.005,6.59-2.241,9.674
				c1.726-4.307-6.053-15.505-10.531-13.154C206.184,99.116,206.411,115.029,205.628,124.498z"/>
		</g>
		<g style="clip-path:url(#XMLID_00000076593060575035508600000006305626812661327777_);">
			<path style="fill:#92E3A9;" d="M214.849,76.216c6.761,6.057,10.681,14.584,14.418,22.856c3.76,8.324,7.521,16.649,11.281,24.973
				c2.412-2.785,2.996-7.018,1.429-10.353c0.26,6.192,6.47,11.461,12.622,10.708c-0.165-4.632-0.329-9.264-0.494-13.896
				c2.005,3.756,4.01,7.512,6.015,11.268c0.068-5.973-0.742-11.954-2.397-17.694c3.445,2.857,4.54,7.567,6.216,11.717
				c1.675,4.15,4.951,8.481,9.424,8.346c1.388-0.24,1.965,2.093,0.871,2.98s-2.73,0.563-3.996-0.056
				c-1.266-0.619-2.463-1.5-3.865-1.636c-3.562-0.344-5.524,3.853-7.942,6.49c-4.142,4.518-11.021,4.878-17.15,4.923
				c-0.559-9.604-14.49-19.373-15.153-21.845c-5.228-19.485-2.459-28.254-10.915-37.151c0.787,0.819,1.574,1.639,2.36,2.458"/>
			<path style="opacity:0.8;fill:#FFFFFF;" d="M214.849,76.216c6.761,6.057,10.681,14.584,14.418,22.856
				c3.76,8.324,7.521,16.649,11.281,24.973c2.412-2.785,2.996-7.018,1.429-10.353c0.26,6.192,6.47,11.461,12.622,10.708
				c-0.165-4.632-0.329-9.264-0.494-13.896c2.005,3.756,4.01,7.512,6.015,11.268c0.068-5.973-0.742-11.954-2.397-17.694
				c3.445,2.857,4.54,7.567,6.216,11.717c1.675,4.15,4.951,8.481,9.424,8.346c1.388-0.24,1.965,2.093,0.871,2.98
				s-2.73,0.563-3.996-0.056c-1.266-0.619-2.463-1.5-3.865-1.636c-3.562-0.344-5.524,3.853-7.942,6.49
				c-4.142,4.518-11.021,4.878-17.15,4.923c-0.559-9.604-14.49-19.373-15.153-21.845c-5.228-19.485-2.459-28.254-10.915-37.151
				c0.787,0.819,1.574,1.639,2.36,2.458"/>
		</g>
		<g style="clip-path:url(#XMLID_00000076593060575035508600000006305626812661327777_);">
			<path style="fill:#92E3A9;" d="M237.727,72.087c3.146,1.054,6.603,0.918,9.726,2.038c0.366-1.718,0.329-3.521-0.106-5.223
				c2.004,3.118,3.208,6.745,3.467,10.443c-8.35,0.094-16.701,0.187-25.051,0.281c-0.669-0.735-1.339-1.471-2.008-2.206
				c1.451-0.903,2.903-1.807,4.354-2.711c1.48,1.729,4.144,2.315,6.213,1.369c-1.486-2.154-3.122-5.23-2.494-7.67
				C234.001,68.886,235.309,71.277,237.727,72.087z"/>
			<path style="opacity:0.8;fill:#FFFFFF;" d="M237.727,72.087c3.146,1.054,6.603,0.918,9.726,2.038
				c0.366-1.718,0.329-3.521-0.106-5.223c2.004,3.118,3.208,6.745,3.467,10.443c-8.35,0.094-16.701,0.187-25.051,0.281
				c-0.669-0.735-1.339-1.471-2.008-2.206c1.451-0.903,2.903-1.807,4.354-2.711c1.48,1.729,4.144,2.315,6.213,1.369
				c-1.486-2.154-3.122-5.23-2.494-7.67C234.001,68.886,235.309,71.277,237.727,72.087z"/>
		</g>
		<g style="clip-path:url(#XMLID_00000076593060575035508600000006305626812661327777_);">
			<path style="fill:#92E3A9;" d="M172.901,158.247c0,0,0.951,8.079-0.951,14.258c-1.901,6.178,2.852,7.604,8.079,0.475
				c5.228-7.129,6.178-10.455,0.951-12.832C175.753,157.772,172.901,158.247,172.901,158.247z"/>
			<path style="opacity:0.8;fill:#FFFFFF;" d="M172.901,158.247c0,0,0.951,8.079-0.951,14.258c-1.901,6.178,2.852,7.604,8.079,0.475
				c5.228-7.129,6.178-10.455,0.951-12.832C175.753,157.772,172.901,158.247,172.901,158.247z"/>
		</g>
		<g style="clip-path:url(#XMLID_00000076593060575035508600000006305626812661327777_);">
			<path style="fill:#92E3A9;" d="M133.931,160.148c0,0,3.327,8.079,2.852,13.782c-0.475,5.703,4.277-0.475,4.277-0.475
				l-1.426,8.555c0,0,7.129-9.505,6.178-14.733C144.861,162.049,133.931,160.148,133.931,160.148z"/>
			<path style="opacity:0.8;fill:#FFFFFF;" d="M133.931,160.148c0,0,3.327,8.079,2.852,13.782c-0.475,5.703,4.277-0.475,4.277-0.475
				l-1.426,8.555c0,0,7.129-9.505,6.178-14.733C144.861,162.049,133.931,160.148,133.931,160.148z"/>
		</g>
		<path style="clip-path:url(#XMLID_00000076593060575035508600000006305626812661327777_);fill:#92E3A9;" d="M331.001,189.512
			c-0.638-2.199-4.311-2.505-5.305-0.442c0.987-1.935-1.365-3.75-2.892-5.295c-3.921-3.966-3.055-10.445-1.914-15.903
			c-4.581,2.954-7.102,8.798-6.107,14.157c-0.926-1.97-3.512-2.963-5.518-2.119c-2.006,0.844-3.105,3.387-2.345,5.426
			c-2.633,0.432-5.32,0.865-7.956,0.452c-2.636-0.413-5.261-1.825-6.446-4.215c-0.582-1.173-1.198-2.805-2.501-2.673
			c-0.883,0.09-1.404,1.001-2.107,1.542c-2.247,1.73-5.444-0.761-6.472-3.404c-1.028-2.643-1.328-5.835-3.57-7.572
			c-0.137,1.851-0.274,3.703-0.411,5.554l0.348,2.439c3.458,6.648,6.915,13.295,10.373,19.943c0.842-2.307,1.983-4.906,4.338-5.603
			c2.052-0.607,4.169,0.501,6.087,1.45c8.238,4.08,17.637,5.781,26.782,4.847c0.442-1.69,0.884-3.381,1.326-5.071
			c4.444,1.632,8.888,3.265,13.332,4.897C337.029,195.12,334.015,192.316,331.001,189.512z"/>
		<path style="opacity:0.8;clip-path:url(#XMLID_00000076593060575035508600000006305626812661327777_);fill:#FFFFFF;" d="
			M331.001,189.512c-0.638-2.199-4.311-2.505-5.305-0.442c0.987-1.935-1.365-3.75-2.892-5.295
			c-3.921-3.966-3.055-10.445-1.914-15.903c-4.581,2.954-7.102,8.798-6.107,14.157c-0.926-1.97-3.512-2.963-5.518-2.119
			c-2.006,0.844-3.105,3.387-2.345,5.426c-2.633,0.432-5.32,0.865-7.956,0.452c-2.636-0.413-5.261-1.825-6.446-4.215
			c-0.582-1.173-1.198-2.805-2.501-2.673c-0.883,0.09-1.404,1.001-2.107,1.542c-2.247,1.73-5.444-0.761-6.472-3.404
			c-1.028-2.643-1.328-5.835-3.57-7.572c-0.137,1.851-0.274,3.703-0.411,5.554l0.348,2.439c3.458,6.648,6.915,13.295,10.373,19.943
			c0.842-2.307,1.983-4.906,4.338-5.603c2.052-0.607,4.169,0.501,6.087,1.45c8.238,4.08,17.637,5.781,26.782,4.847
			c0.442-1.69,0.884-3.381,1.326-5.071c4.444,1.632,8.888,3.265,13.332,4.897C337.029,195.12,334.015,192.316,331.001,189.512z"/>
		
			<use xlink:href="#XMLID_2_"  style="overflow:visible;fill:none;stroke:#92E3A9;stroke-linecap:round;stroke-linejoin:round;stroke-miterlimit:10;"/>
	</g>
	<g>
		<path style="fill:none;stroke:#92E3A9;stroke-linecap:round;stroke-linejoin:round;stroke-miterlimit:10;" d="M141.866,255.574
			c-2.785,10.079-5.571,20.158-8.356,30.237"/>
		<path style="fill:none;stroke:#92E3A9;stroke-linecap:round;stroke-linejoin:round;stroke-miterlimit:10;" d="M267.424,143.725
			c5.882-3.035,11.763-6.069,17.644-9.104"/>
		<path style="fill:none;stroke:#92E3A9;stroke-linecap:round;stroke-linejoin:round;stroke-miterlimit:10;" d="M280.844,158.695
			c3.641-3.405,7.844-6.207,12.387-8.258c3.92-1.77,8.604-0.28,12.905-0.314"/>
		<path style="fill:none;stroke:#92E3A9;stroke-linecap:round;stroke-linejoin:round;stroke-miterlimit:10;" d="M81.098,281.529
			c6.833-10.183,18.3-18.926,20.47-30.996c1.141-6.346,2.282-12.692,3.422-19.038"/>
		<path style="fill:none;stroke:#92E3A9;stroke-linecap:round;stroke-linejoin:round;stroke-miterlimit:10;" d="M191.911,76.505
			l5.228,9.03c0,0-6.178,3.327-7.604,10.931c-1.426,7.604-1.901,24.238-1.901,24.238s-5.228,1.901-7.129,6.653
			c-1.901,4.753-3.327,17.109-3.327,17.109l28.99,2.852l19.96-3.802"/>
		<path style="fill:none;stroke:#92E3A9;stroke-linecap:round;stroke-linejoin:round;stroke-miterlimit:10;" d="M212.346,76.03
			l6.178,6.653L225.653,115l9.03,6.178l5.703,15.683l18.059-2.376c0,0,0.951-6.653,5.703-7.604s7.129,2.376,7.129,2.376l4.753-2.852
			"/>
		<path style="fill:#FFFFFF;stroke:#92E3A9;stroke-linecap:round;stroke-linejoin:round;stroke-miterlimit:10;" d="M226.604,80.782
			h22.337l5.228-2.376c0,0,4.277,2.376,7.129,1.426s6.654-0.951,6.654-0.951"/>
		<path style="fill:none;stroke:#92E3A9;stroke-linecap:round;stroke-linejoin:round;stroke-miterlimit:10;" d="M312.148,142.089
			l-10.931,2.852c0,0-15.208-0.951-19.01-0.951s-11.406,12.356-11.406,12.356l-28.515,1.426l-28.99,6.653
			c0,0-21.861,0.475-25.188-2.851c-3.327-3.327-15.683-6.178-15.683-6.178l-10.931,6.654l-11.881,1.901l-17.109-9.03"/>
		<path style="fill:none;stroke:#92E3A9;stroke-linecap:round;stroke-linejoin:round;stroke-miterlimit:10;" d="M98.287,215.277
			l25.188,2.376l19.485-8.555c0,0,10.931-3.327,28.515-4.277"/>
		<path style="fill:none;stroke:#92E3A9;stroke-linecap:round;stroke-linejoin:round;stroke-miterlimit:10;" d="M299.317,193.891
			c0,0,18.535,4.277,26.139,3.327c0,0-0.95-4.753,2.852-4.753c3.802,0,7.129,4.753,7.129,4.753l5.703-0.475"/>
		<polyline style="fill:none;stroke:#92E3A9;stroke-linecap:round;stroke-linejoin:round;stroke-miterlimit:10;" points="
			272.703,169.178 287.911,195.792 310.723,212.901 329.257,244.743 334.01,253.297 		"/>
		<path style="fill:none;stroke:#92E3A9;stroke-linecap:round;stroke-linejoin:round;stroke-miterlimit:10;" d="M360.624,237.614
			c0,0-2.852-5.228-6.178-9.98c-3.327-4.753-10.931-3.327-10.931-3.327l-7.604-9.98l-24.713-11.881"/>
		<path style="fill:none;stroke:#92E3A9;stroke-linecap:round;stroke-linejoin:round;stroke-miterlimit:10;" d="M169.099,214.802
			c0,0-7.604,13.307-10.455,24.713c-2.852,11.406-6.178,19.96-6.178,19.96s-6.178,6.178-9.03,10.931
			c-2.851,4.752-3.802,15.683-3.802,15.683"/>
		<path style="fill:none;stroke:#92E3A9;stroke-linecap:round;stroke-linejoin:round;stroke-miterlimit:10;" d="M163.143,290.792
			c1.184-10.643,5.756-20.851,12.793-28.91l8.283-26.651c2.174-6.996,6.727-10.011,12.869-14.004v-3l5.228-19.485"/>
	</g>
</g>
<g id="Landscape">
	<g>
		<g>
			<g>
				<g>
					<g>
						<path style="fill:#92E3A9;" d="M473.854,251.632c-0.272,4.691-0.739,9.329-1.379,13.923
							c-0.847,6.071-2.009,12.066-3.475,17.952c-3.432,13.836-8.536,27.139-15.096,39.726c-3.073,5.93-6.484,11.696-10.198,17.279
							c-75.098,2.281-229.909,4.105-278.508-17.257h-0.011c-0.489-0.217-0.956-0.434-1.423-0.652
							c-0.456-0.217-0.912-0.445-1.357-0.662c-0.619-0.315-1.216-0.63-1.792-0.956c0,0,0,0-0.011,0
							c-0.576-0.326-1.129-0.652-1.662-0.977c-0.033-0.011-0.065-0.033-0.098-0.054c-0.5-0.326-0.977-0.641-1.434-0.956
							c-0.966-0.684-1.857-1.39-2.639-2.107c-0.195-0.185-0.38-0.369-0.565-0.543c-0.185-0.174-0.347-0.347-0.521-0.532
							c0,0-0.011-0.011-0.011-0.022c-0.348-0.369-0.673-0.749-0.956-1.129c-0.152-0.195-0.293-0.38-0.424-0.576
							c-0.271-0.391-0.51-0.782-0.728-1.173c-0.12-0.206-0.217-0.423-0.326-0.63c-0.022-0.054-0.054-0.119-0.087-0.185
							c-0.098-0.239-0.195-0.467-0.282-0.706c-0.087-0.25-0.174-0.51-0.25-0.771c-0.065-0.261-0.13-0.521-0.185-0.782
							c-0.054-0.315-0.109-0.63-0.141-0.956c-0.152-1.488,0.033-3.052,0.586-4.681c0.087-0.261,0.185-0.511,0.282-0.771
							c0.304-0.782,0.684-1.575,1.162-2.389c0.315-0.532,0.663-1.075,1.043-1.618c0.185-0.272,0.391-0.554,0.608-0.836
							c0.63-0.836,1.336-1.683,2.15-2.552v-0.011c0.282-0.293,0.554-0.576,0.836-0.869c0,0,0,0,0.011-0.011
							c0.054-0.033,0.228-0.13,0.521-0.282c0.098-0.054,0.217-0.12,0.358-0.195c1.151-0.597,3.464-1.716,7.146-3.225
							c0.217-0.098,0.434-0.185,0.662-0.272c0.521-0.217,1.075-0.434,1.651-0.673c0,0,0,0,0.011,0
							c2.15-0.847,4.681-1.781,7.602-2.802c0.337-0.12,0.673-0.239,1.021-0.358c2.433-0.836,5.137-1.716,8.113-2.639
							c0.423-0.13,0.847-0.271,1.292-0.402c0.543-0.163,1.097-0.337,1.662-0.5c1.14-0.348,2.313-0.695,3.53-1.043
							c4.431-1.281,9.35-2.617,14.813-3.986c1.184-0.304,2.4-0.597,3.638-0.901c1.227-0.293,2.487-0.597,3.779-0.901
							c4.507-1.064,9.329-2.139,14.488-3.215c1.466-0.304,2.976-0.619,4.496-0.923c0.771-0.152,1.531-0.315,2.313-0.467
							c1.097-0.217,2.204-0.434,3.334-0.652c1.271-0.25,2.552-0.489,3.855-0.739c2.465-0.467,4.985-0.923,7.569-1.39
							c2.237-0.391,4.529-0.793,6.864-1.195c1.868-0.304,3.758-0.63,5.691-0.934c1.26-0.206,2.552-0.413,3.844-0.619
							c1.108-0.174,2.216-0.348,3.334-0.521c1.759-0.271,3.54-0.543,5.354-0.814c0.999-0.152,1.998-0.304,3.008-0.445
							c3.041-0.445,6.136-0.88,9.318-1.314c2.063-0.282,4.148-0.565,6.277-0.847c1.14-0.141,2.292-0.293,3.454-0.445
							c1.108-0.141,2.215-0.282,3.334-0.424c4.561-0.565,9.253-1.129,14.086-1.683c2.291-0.261,4.616-0.521,6.972-0.771
							c0.467-0.044,0.934-0.098,1.401-0.152c0,0,0,0,0.011,0c0.749-0.076,1.509-0.152,2.27-0.239
							c2.465-0.261,4.974-0.521,7.515-0.771c0.586-0.054,1.173-0.109,1.759-0.174c1.966-0.195,3.942-0.391,5.951-0.576
							c2.574-0.25,5.191-0.489,7.83-0.717c1.466-0.13,2.943-0.261,4.431-0.391c2.085-0.174,4.192-0.358,6.321-0.532
							c6.06-0.489,12.283-0.967,18.679-1.434c1.455-0.098,2.921-0.206,4.398-0.304c1.477-0.098,2.965-0.206,4.464-0.304
							c3.106-0.195,6.245-0.402,9.427-0.597c2.943-0.185,5.93-0.358,8.938-0.521c1.575-0.087,3.149-0.185,4.735-0.261
							c1.814-0.098,3.638-0.195,5.473-0.293c2.987-0.152,5.995-0.304,9.047-0.445c1.64-0.076,3.291-0.152,4.952-0.228H473.854z"/>
						<path style="opacity:0.2;fill:#FFFFFF;" d="M473.854,251.632c-0.272,4.691-0.739,9.329-1.379,13.923
							c-0.847,6.071-2.009,12.066-3.475,17.952c-3.432,13.836-8.536,27.139-15.096,39.726c-3.073,5.93-6.484,11.696-10.198,17.279
							c-75.098,2.281-229.909,4.105-278.508-17.257h-0.011c-0.489-0.217-0.956-0.434-1.423-0.652
							c-0.456-0.217-0.912-0.445-1.357-0.662c-0.619-0.315-1.216-0.63-1.792-0.956c0,0,0,0-0.011,0
							c-0.576-0.326-1.129-0.652-1.662-0.977c-0.033-0.011-0.065-0.033-0.098-0.054c-0.5-0.326-0.977-0.641-1.434-0.956
							c-0.966-0.684-1.857-1.39-2.639-2.107c-0.195-0.185-0.38-0.369-0.565-0.543c-0.185-0.174-0.347-0.347-0.521-0.532
							c0,0-0.011-0.011-0.011-0.022c-0.348-0.369-0.673-0.749-0.956-1.129c-0.152-0.195-0.293-0.38-0.424-0.576
							c-0.271-0.391-0.51-0.782-0.728-1.173c-0.12-0.206-0.217-0.423-0.326-0.63c-0.022-0.054-0.054-0.119-0.087-0.185
							c-0.098-0.239-0.195-0.467-0.282-0.706c-0.087-0.25-0.174-0.51-0.25-0.771c-0.065-0.261-0.13-0.521-0.185-0.782
							c-0.054-0.315-0.109-0.63-0.141-0.956c-0.152-1.488,0.033-3.052,0.586-4.681c0.087-0.261,0.185-0.511,0.282-0.771
							c0.304-0.782,0.684-1.575,1.162-2.389c0.315-0.532,0.663-1.075,1.043-1.618c0.185-0.272,0.391-0.554,0.608-0.836
							c0.63-0.836,1.336-1.683,2.15-2.552v-0.011c0.282-0.293,0.554-0.576,0.836-0.869c0,0,0,0,0.011-0.011
							c0.054-0.033,0.228-0.13,0.521-0.282c0.098-0.054,0.217-0.12,0.358-0.195c1.151-0.597,3.464-1.716,7.146-3.225
							c0.217-0.098,0.434-0.185,0.662-0.272c0.521-0.217,1.075-0.434,1.651-0.673c0,0,0,0,0.011,0
							c2.15-0.847,4.681-1.781,7.602-2.802c0.337-0.12,0.673-0.239,1.021-0.358c2.433-0.836,5.137-1.716,8.113-2.639
							c0.423-0.13,0.847-0.271,1.292-0.402c0.543-0.163,1.097-0.337,1.662-0.5c1.14-0.348,2.313-0.695,3.53-1.043
							c4.431-1.281,9.35-2.617,14.813-3.986c1.184-0.304,2.4-0.597,3.638-0.901c1.227-0.293,2.487-0.597,3.779-0.901
							c4.507-1.064,9.329-2.139,14.488-3.215c1.466-0.304,2.976-0.619,4.496-0.923c0.771-0.152,1.531-0.315,2.313-0.467
							c1.097-0.217,2.204-0.434,3.334-0.652c1.271-0.25,2.552-0.489,3.855-0.739c2.465-0.467,4.985-0.923,7.569-1.39
							c2.237-0.391,4.529-0.793,6.864-1.195c1.868-0.304,3.758-0.63,5.691-0.934c1.26-0.206,2.552-0.413,3.844-0.619
							c1.108-0.174,2.216-0.348,3.334-0.521c1.759-0.271,3.54-0.543,5.354-0.814c0.999-0.152,1.998-0.304,3.008-0.445
							c3.041-0.445,6.136-0.88,9.318-1.314c2.063-0.282,4.148-0.565,6.277-0.847c1.14-0.141,2.292-0.293,3.454-0.445
							c1.108-0.141,2.215-0.282,3.334-0.424c4.561-0.565,9.253-1.129,14.086-1.683c2.291-0.261,4.616-0.521,6.972-0.771
							c0.467-0.044,0.934-0.098,1.401-0.152c0,0,0,0,0.011,0c0.749-0.076,1.509-0.152,2.27-0.239
							c2.465-0.261,4.974-0.521,7.515-0.771c0.586-0.054,1.173-0.109,1.759-0.174c1.966-0.195,3.942-0.391,5.951-0.576
							c2.574-0.25,5.191-0.489,7.83-0.717c1.466-0.13,2.943-0.261,4.431-0.391c2.085-0.174,4.192-0.358,6.321-0.532
							c6.06-0.489,12.283-0.967,18.679-1.434c1.455-0.098,2.921-0.206,4.398-0.304c1.477-0.098,2.965-0.206,4.464-0.304
							c3.106-0.195,6.245-0.402,9.427-0.597c2.943-0.185,5.93-0.358,8.938-0.521c1.575-0.087,3.149-0.185,4.735-0.261
							c1.814-0.098,3.638-0.195,5.473-0.293c2.987-0.152,5.995-0.304,9.047-0.445c1.64-0.076,3.291-0.152,4.952-0.228H473.854z"/>
					</g>
					<g>
						<path style="fill:#92E3A9;" d="M473.854,251.632c-0.272,4.691-0.739,9.329-1.379,13.923
							c-0.847,6.071-2.009,12.066-3.475,17.952H427.97c-76.238,3.421-132.646,9.98-173.653,17.007h-0.011
							c-49.804,8.525-76.879,17.724-89.107,22.741h-0.011c-0.489-0.217-0.956-0.434-1.423-0.652
							c-0.456-0.217-0.912-0.445-1.357-0.662c-0.619-0.315-1.216-0.63-1.792-0.956c0,0,0,0-0.011,0
							c-0.576-0.326-1.129-0.652-1.662-0.977c-0.033-0.011-0.065-0.033-0.098-0.054c-0.5-0.326-0.977-0.641-1.434-0.956
							c-0.977-0.673-1.857-1.379-2.639-2.107c-0.195-0.185-0.38-0.369-0.565-0.543c-0.185-0.174-0.347-0.347-0.521-0.532
							c0,0-0.011-0.011-0.011-0.022c-0.348-0.369-0.673-0.749-0.956-1.129c-0.152-0.195-0.293-0.38-0.424-0.576
							c-0.271-0.38-0.521-0.771-0.728-1.173c-0.12-0.206-0.217-0.423-0.326-0.63c-0.022-0.054-0.054-0.119-0.087-0.185
							c-0.098-0.239-0.195-0.467-0.282-0.706c-0.087-0.25-0.174-0.51-0.25-0.771c-0.065-0.261-0.13-0.521-0.185-0.782
							c-0.054-0.315-0.109-0.63-0.141-0.956c-0.152-1.488,0.033-3.052,0.586-4.681c0.087-0.261,0.185-0.511,0.282-0.771
							c0.304-0.782,0.684-1.575,1.162-2.389c0.304-0.532,0.652-1.075,1.043-1.618c0.185-0.272,0.391-0.554,0.608-0.836
							c0.63-0.836,1.336-1.683,2.15-2.552v-0.011c0.261-0.282,0.543-0.576,0.825-0.869c0,0,0,0,0.011,0c0,0,0,0,0.011-0.011
							c0.054-0.033,0.228-0.13,0.521-0.282c0.098-0.054,0.217-0.12,0.358-0.195c1.151-0.597,3.464-1.716,7.146-3.225
							c0.217-0.098,0.434-0.185,0.662-0.272c0.521-0.217,1.075-0.434,1.651-0.673c0,0,0,0,0.011,0
							c2.15-0.847,4.681-1.781,7.602-2.802c0.337-0.12,0.673-0.239,1.021-0.358c2.433-0.836,5.137-1.716,8.113-2.639
							c0.423-0.13,0.847-0.271,1.292-0.402c0.543-0.163,1.097-0.337,1.662-0.5c1.14-0.348,2.313-0.695,3.53-1.043
							c4.431-1.281,9.35-2.617,14.813-3.986c1.184-0.304,2.4-0.597,3.638-0.901c1.227-0.293,2.487-0.597,3.779-0.901
							c4.507-1.064,9.329-2.139,14.488-3.215c1.466-0.304,2.976-0.619,4.496-0.923c0.771-0.152,1.531-0.315,2.313-0.467
							c1.097-0.217,2.204-0.434,3.334-0.652c1.271-0.25,2.552-0.489,3.855-0.739c2.465-0.467,4.985-0.923,7.569-1.39
							c2.237-0.391,4.529-0.793,6.864-1.195c1.868-0.304,3.758-0.63,5.691-0.934c1.26-0.206,2.552-0.413,3.844-0.619
							c1.108-0.174,2.216-0.348,3.334-0.521c1.759-0.271,3.54-0.543,5.354-0.814c0.999-0.152,1.998-0.304,3.008-0.445
							c3.041-0.445,6.136-0.88,9.318-1.314c2.063-0.282,4.148-0.565,6.277-0.847c1.14-0.141,2.292-0.293,3.454-0.445
							c1.108-0.141,2.215-0.282,3.334-0.424c4.561-0.565,9.253-1.129,14.086-1.683c2.291-0.25,4.616-0.51,6.972-0.771
							c0.467-0.044,0.934-0.098,1.401-0.152c0,0,0,0,0.011,0c0.749-0.076,1.509-0.152,2.27-0.239
							c2.465-0.261,4.974-0.51,7.515-0.771c0.586-0.054,1.173-0.109,1.759-0.174c1.966-0.195,3.942-0.38,5.951-0.576
							c2.574-0.239,5.18-0.478,7.83-0.717c1.466-0.13,2.943-0.261,4.431-0.391c2.085-0.174,4.192-0.358,6.321-0.532
							c6.06-0.489,12.283-0.967,18.679-1.434c1.455-0.098,2.921-0.206,4.398-0.304c1.477-0.098,2.965-0.206,4.464-0.304
							c3.106-0.195,6.245-0.402,9.427-0.597c2.943-0.185,5.93-0.358,8.938-0.521c1.575-0.087,3.149-0.185,4.735-0.261
							c1.814-0.098,3.638-0.195,5.473-0.293c2.987-0.152,5.995-0.304,9.047-0.445c1.64-0.076,3.291-0.152,4.952-0.228H473.854z"/>
						<path style="opacity:0.3;fill:#FFFFFF;" d="M473.854,251.632c-0.272,4.691-0.739,9.329-1.379,13.923
							c-0.847,6.071-2.009,12.066-3.475,17.952H427.97c-76.238,3.421-132.646,9.98-173.653,17.007h-0.011
							c-49.804,8.525-76.879,17.724-89.107,22.741h-0.011c-0.489-0.217-0.956-0.434-1.423-0.652
							c-0.456-0.217-0.912-0.445-1.357-0.662c-0.619-0.315-1.216-0.63-1.792-0.956c0,0,0,0-0.011,0
							c-0.576-0.326-1.129-0.652-1.662-0.977c-0.033-0.011-0.065-0.033-0.098-0.054c-0.5-0.326-0.977-0.641-1.434-0.956
							c-0.977-0.673-1.857-1.379-2.639-2.107c-0.195-0.185-0.38-0.369-0.565-0.543c-0.185-0.174-0.347-0.347-0.521-0.532
							c0,0-0.011-0.011-0.011-0.022c-0.348-0.369-0.673-0.749-0.956-1.129c-0.152-0.195-0.293-0.38-0.424-0.576
							c-0.271-0.38-0.521-0.771-0.728-1.173c-0.12-0.206-0.217-0.423-0.326-0.63c-0.022-0.054-0.054-0.119-0.087-0.185
							c-0.098-0.239-0.195-0.467-0.282-0.706c-0.087-0.25-0.174-0.51-0.25-0.771c-0.065-0.261-0.13-0.521-0.185-0.782
							c-0.054-0.315-0.109-0.63-0.141-0.956c-0.152-1.488,0.033-3.052,0.586-4.681c0.087-0.261,0.185-0.511,0.282-0.771
							c0.304-0.782,0.684-1.575,1.162-2.389c0.304-0.532,0.652-1.075,1.043-1.618c0.185-0.272,0.391-0.554,0.608-0.836
							c0.63-0.836,1.336-1.683,2.15-2.552v-0.011c0.261-0.282,0.543-0.576,0.825-0.869c0,0,0,0,0.011,0c0,0,0,0,0.011-0.011
							c0.054-0.033,0.228-0.13,0.521-0.282c0.098-0.054,0.217-0.12,0.358-0.195c1.151-0.597,3.464-1.716,7.146-3.225
							c0.217-0.098,0.434-0.185,0.662-0.272c0.521-0.217,1.075-0.434,1.651-0.673c0,0,0,0,0.011,0
							c2.15-0.847,4.681-1.781,7.602-2.802c0.337-0.12,0.673-0.239,1.021-0.358c2.433-0.836,5.137-1.716,8.113-2.639
							c0.423-0.13,0.847-0.271,1.292-0.402c0.543-0.163,1.097-0.337,1.662-0.5c1.14-0.348,2.313-0.695,3.53-1.043
							c4.431-1.281,9.35-2.617,14.813-3.986c1.184-0.304,2.4-0.597,3.638-0.901c1.227-0.293,2.487-0.597,3.779-0.901
							c4.507-1.064,9.329-2.139,14.488-3.215c1.466-0.304,2.976-0.619,4.496-0.923c0.771-0.152,1.531-0.315,2.313-0.467
							c1.097-0.217,2.204-0.434,3.334-0.652c1.271-0.25,2.552-0.489,3.855-0.739c2.465-0.467,4.985-0.923,7.569-1.39
							c2.237-0.391,4.529-0.793,6.864-1.195c1.868-0.304,3.758-0.63,5.691-0.934c1.26-0.206,2.552-0.413,3.844-0.619
							c1.108-0.174,2.216-0.348,3.334-0.521c1.759-0.271,3.54-0.543,5.354-0.814c0.999-0.152,1.998-0.304,3.008-0.445
							c3.041-0.445,6.136-0.88,9.318-1.314c2.063-0.282,4.148-0.565,6.277-0.847c1.14-0.141,2.292-0.293,3.454-0.445
							c1.108-0.141,2.215-0.282,3.334-0.424c4.561-0.565,9.253-1.129,14.086-1.683c2.291-0.25,4.616-0.51,6.972-0.771
							c0.467-0.044,0.934-0.098,1.401-0.152c0,0,0,0,0.011,0c0.749-0.076,1.509-0.152,2.27-0.239
							c2.465-0.261,4.974-0.51,7.515-0.771c0.586-0.054,1.173-0.109,1.759-0.174c1.966-0.195,3.942-0.38,5.951-0.576
							c2.574-0.239,5.18-0.478,7.83-0.717c1.466-0.13,2.943-0.261,4.431-0.391c2.085-0.174,4.192-0.358,6.321-0.532
							c6.06-0.489,12.283-0.967,18.679-1.434c1.455-0.098,2.921-0.206,4.398-0.304c1.477-0.098,2.965-0.206,4.464-0.304
							c3.106-0.195,6.245-0.402,9.427-0.597c2.943-0.185,5.93-0.358,8.938-0.521c1.575-0.087,3.149-0.185,4.735-0.261
							c1.814-0.098,3.638-0.195,5.473-0.293c2.987-0.152,5.995-0.304,9.047-0.445c1.64-0.076,3.291-0.152,4.952-0.228H473.854z"/>
						<path style="fill:none;stroke:#515B60;stroke-miterlimit:10;" d="M469,283.506H427.97
							c-76.238,3.421-132.646,9.98-173.653,17.007h-0.011c-49.804,8.525-76.879,17.724-89.107,22.741"/>
					</g>
					<g>
						<path style="fill:#92E3A9;" d="M443.598,340.674l-220.732,6.972l-157.798,4.941c-17.995-23.056-30.549-49.652-36.034-78.356
							c3.095,0.369,33.536,3.996,76.846,9.09c9.72,1.14,20.091,2.357,30.94,3.627c9.807,1.14,20.015,2.335,30.495,3.551
							c0,0,0,0,0.011,0c27.813,3.236,57.57,6.657,86.99,10.013c70.037,7.96,138.228,15.454,174.077,18.669
							c10.122,0.912,18.538,2.346,25.51,4.051c-3.073,5.93-6.484,11.696-10.198,17.279L443.598,340.674z"/>
						<path style="opacity:0.1;fill:#263238;" d="M443.598,340.674l-220.732,6.972l-157.798,4.941
							c-17.995-23.056-30.549-49.652-36.034-78.356c3.095,0.369,33.536,3.996,76.846,9.09c9.72,1.14,20.091,2.357,30.94,3.627
							c9.807,1.14,20.015,2.335,30.495,3.551c0,0,0,0,0.011,0c27.813,3.236,57.57,6.657,86.99,10.013
							c70.037,7.96,138.228,15.454,174.077,18.669c10.122,0.912,18.538,2.346,25.51,4.051c-3.073,5.93-6.484,11.696-10.198,17.279
							L443.598,340.674z"/>
						<path style="fill:none;stroke:#515B60;stroke-miterlimit:10;" d="M29.035,274.232c3.095,0.369,33.536,3.996,76.846,9.09
							c9.72,1.14,20.091,2.357,30.94,3.627c9.807,1.14,20.015,2.335,30.495,3.551c0,0,0,0,0.011,0
							c27.813,3.236,57.57,6.657,86.99,10.013c70.037,7.96,138.228,15.454,174.077,18.669c10.122,0.912,18.538,2.346,25.51,4.051"/>
					</g>
				</g>
			</g>
			<g>
				<polygon style="fill:#FFFFFF;" points="342.287,314.162 351.647,297.691 361.231,314.033 				"/>
				<polygon style="fill:#263238;" points="344.891,313.969 351.628,302.115 358.525,313.876 				"/>
				
					<line style="fill:none;stroke:#3C464C;stroke-linecap:round;stroke-linejoin:round;stroke-miterlimit:10;" x1="351.628" y1="302.115" x2="351.709" y2="314.098"/>
				<polygon style="fill:#263238;" points="351.647,297.691 361.231,314.033 381.078,313.898 371.494,297.556 				"/>
				<polygon style="fill:#263238;" points="360.597,301.875 364.39,308.341 372.243,308.288 368.451,301.821 				"/>
			</g>
			<g>
				<g>
					<g>
						<path style="fill:#92E3A9;" d="M474.158,241.293c0,0.956-0.011,1.922-0.033,2.878c0,0.413,0,0.825-0.022,1.238
							c-0.011,0.673-0.033,1.347-0.054,2.009c-0.011,0.402-0.022,0.814-0.054,1.216c-0.033,0.999-0.076,1.998-0.141,2.997
							c-0.065,1.053-0.13,2.107-0.217,3.149c-0.043,0.63-0.098,1.26-0.163,1.89c-0.043,0.641-0.109,1.281-0.174,1.911
							c-0.098,1.032-0.206,2.064-0.337,3.084c-0.076,0.717-0.163,1.444-0.261,2.161c-0.043,0.38-0.098,0.749-0.152,1.129
							c-0.022,0.195-0.043,0.402-0.076,0.597h-0.011c-18.223,5.789-60.665,11.208-154.8-4.746c0,0,1.466-0.413,4.105-1.39
							c0,0,0,0,0.011,0c12.695-4.681,52.378-22.231,84.112-67.908c17.767-25.576,36.077-19.027,50.608-4.637
							C467.599,206.627,474.158,225.426,474.158,241.293z"/>
					</g>
				</g>
				<g style="opacity:0.2;">
					<g>
						<path style="fill:#FFFFFF;" d="M474.158,241.293c0,0.956-0.011,1.922-0.033,2.878c0,0.413,0,0.825-0.022,1.238
							c-0.011,0.673-0.033,1.347-0.054,2.009c-0.011,0.402-0.022,0.814-0.054,1.216c-0.033,0.999-0.076,1.998-0.141,2.997
							c-0.065,1.053-0.13,2.107-0.217,3.149c-0.043,0.63-0.098,1.26-0.163,1.89c-0.043,0.641-0.109,1.281-0.174,1.911
							c-0.098,1.032-0.206,2.064-0.337,3.084c-0.076,0.717-0.163,1.444-0.261,2.161c-0.043,0.38-0.098,0.749-0.152,1.129
							c-0.022,0.195-0.043,0.402-0.076,0.597h-0.011c-18.223,5.789-60.665,11.208-154.8-4.746c0,0,1.466-0.413,4.105-1.39
							c0,0,0,0,0.011,0c12.695-4.681,52.378-22.231,84.112-67.908c17.767-25.576,36.077-19.027,50.608-4.637
							C467.599,206.627,474.158,225.426,474.158,241.293z"/>
					</g>
				</g>
			</g>
		</g>
		<path style="fill:none;stroke:#515B60;stroke-miterlimit:10;" d="M472.464,265.554c-18.223,5.789-60.665,11.208-154.8-4.746"/>
	</g>
</g>
<g id="Plants">
	<g>
		<g>
			<g>
				<polygon style="fill:#92E3A9;" points="24.755,306.357 39.733,263.93 29.008,263.93 41.859,227.525 33.261,227.525 
					54.71,166.762 76.159,227.525 67.561,227.525 80.412,263.93 69.688,263.93 84.665,306.357 				"/>
			</g>
			<g>
				<polygon style="fill:#515B60;" points="56.697,333.04 54.279,208.647 53.679,332.289 				"/>
			</g>
			<g>
				<path style="fill:#515B60;" d="M53.979,209.62c0,0-4.76,8.183-13.314,10.661c0,0,9.028-2.04,13.547-9.083L53.979,209.62z"/>
				<path style="fill:#515B60;" d="M55.336,276.486c0,0-8.494,14.344-22.697,18.485c0,0,15.136-3.936,22.64-15.633L55.336,276.486z"
					/>
				<path style="fill:#515B60;" d="M54.083,239.547c0,0-7.434,12.641-20.233,16.348c0,0,13.51-3.052,20.272-13.593L54.083,239.547z"
					/>
				<path style="fill:#515B60;" d="M54.82,248.481c0,0,6.865,12.234,19.225,15.978c0,0-13.045-3.065-19.561-13.593L54.82,248.481z"
					/>
				<path style="fill:#515B60;" d="M55.91,283.159c0,0,7.618,13.576,21.334,17.731c0,0-14.476-3.401-21.707-15.084L55.91,283.159z"
					/>
				<path style="fill:#515B60;" d="M54.679,212.947c0,0,4.588,8.175,12.847,10.677c0,0-8.717-2.048-13.072-9.083L54.679,212.947z"/>
			</g>
		</g>
		<g>
			<g>
				<polygon style="fill:#92E3A9;" points="377.698,306.317 383.172,290.811 379.252,290.811 383.949,277.505 380.806,277.505 
					388.646,255.297 396.485,277.505 393.343,277.505 398.04,290.811 394.12,290.811 399.594,306.317 				"/>
			</g>
			<g>
				<polygon style="fill:#515B60;" points="389.372,316.07 388.488,270.605 388.269,315.795 				"/>
			</g>
			<g>
				<path style="fill:#515B60;" d="M388.379,270.961c0,0-1.74,2.991-4.866,3.896c0,0,3.3-0.745,4.951-3.32L388.379,270.961z"/>
				<path style="fill:#515B60;" d="M388.875,295.4c0,0-3.104,5.243-8.296,6.756c0,0,5.532-1.438,8.275-5.714L388.875,295.4z"/>
				<path style="fill:#515B60;" d="M388.417,281.899c0,0-2.717,4.62-7.395,5.975c0,0,4.938-1.116,7.409-4.968L388.417,281.899z"/>
				<path style="fill:#515B60;" d="M388.686,285.164c0,0,2.509,4.471,7.027,5.84c0,0-4.768-1.12-7.149-4.968L388.686,285.164z"/>
				<path style="fill:#515B60;" d="M389.085,297.839c0,0,2.784,4.962,7.797,6.48c0,0-5.291-1.243-7.934-5.513L389.085,297.839z"/>
				<path style="fill:#515B60;" d="M388.635,272.177c0,0,1.677,2.988,4.695,3.902c0,0-3.186-0.749-4.777-3.32L388.635,272.177z"/>
			</g>
		</g>
		<g>
			<g>
				<polygon style="fill:#92E3A9;" points="95.518,321.469 108.904,283.549 99.319,283.549 110.804,251.011 103.12,251.011 
					122.29,196.703 141.461,251.011 133.776,251.011 145.262,283.549 135.677,283.549 149.063,321.469 				"/>
			</g>
			<g>
				<polygon style="fill:#515B60;" points="124.066,345.317 121.905,234.138 121.368,344.646 				"/>
			</g>
			<g>
				<path style="fill:#515B60;" d="M121.637,235.008c0,0-4.255,7.314-11.899,9.528c0,0,8.069-1.823,12.108-8.119L121.637,235.008z"
					/>
				<path style="fill:#515B60;" d="M122.85,294.771c0,0-7.591,12.82-20.286,16.522c0,0,13.529-3.518,20.235-13.972L122.85,294.771z"
					/>
				<path style="fill:#515B60;" d="M121.73,261.756c0,0-6.644,11.298-18.084,14.612c0,0,12.075-2.728,18.119-12.149L121.73,261.756z
					"/>
				<path style="fill:#515B60;" d="M122.388,269.741c0,0,6.136,10.934,17.183,14.28c0,0-11.659-2.739-17.483-12.149L122.388,269.741
					z"/>
				<path style="fill:#515B60;" d="M123.363,300.734c0,0,6.809,12.134,19.068,15.848c0,0-12.939-3.04-19.402-13.482L123.363,300.734
					z"/>
				<path style="fill:#515B60;" d="M122.263,237.981c0,0,4.1,7.307,11.482,9.543c0,0-7.791-1.83-11.683-8.118L122.263,237.981z"/>
			</g>
		</g>
		<g>
			<g>
				<polygon style="fill:#92E3A9;" points="398.348,300.883 409.932,268.067 401.637,268.067 411.577,239.909 404.926,239.909 
					421.517,192.91 438.107,239.909 431.457,239.909 441.397,268.067 433.102,268.067 444.686,300.883 				"/>
			</g>
			<g>
				<polygon style="fill:#515B60;" points="423.054,321.522 421.184,225.307 420.719,320.941 				"/>
			</g>
			<g>
				<path style="fill:#515B60;" d="M420.952,226.059c0,0-3.682,6.33-10.298,8.246c0,0,6.983-1.578,10.478-7.026L420.952,226.059z"/>
				<path style="fill:#515B60;" d="M422.001,277.778c0,0-6.57,11.095-17.556,14.298c0,0,11.708-3.044,17.512-12.092L422.001,277.778
					z"/>
				<path style="fill:#515B60;" d="M421.032,249.207c0,0-5.75,9.778-15.65,12.645c0,0,10.45-2.361,15.68-10.514L421.032,249.207z"/>
				<path style="fill:#515B60;" d="M421.602,256.117c0,0,5.31,9.462,14.87,12.358c0,0-10.09-2.37-15.13-10.514L421.602,256.117z"/>
				<path style="fill:#515B60;" d="M422.445,282.94c0,0,5.893,10.501,16.502,13.715c0,0-11.197-2.63-16.79-11.667L422.445,282.94z"
					/>
				<path style="fill:#515B60;" d="M421.493,228.633c0,0,3.548,6.323,9.937,8.258c0,0-6.743-1.584-10.111-7.026L421.493,228.633z"/>
			</g>
		</g>
	</g>
</g>
<g id="Floor_1_">
	<g>
		<g>
			<g>
				<path style="fill:#757575;" d="M441.228,341.201c-38.901,58.384-111.001,97.589-193.527,97.589
					c-76.803,0-144.581-33.96-184.959-85.741L441.228,341.201z"/>
				<path style="fill:#92E3A9;" d="M160.67,341.632c1.469,1.276,2.939,2.553,4.409,3.829c-0.988-3.982-1.977-7.963-2.965-11.945
					c1.852,3.801,3.703,7.601,5.555,11.402c-0.247-4.124-0.494-8.248-0.741-12.372c1.083,4.352,2.166,8.704,3.249,13.056
					c1.107-4.484,2.214-8.969,3.32-13.453c0.057,7.551,0.114,15.102,0.171,22.652c-3.388,0.119-7.766,1.513-9.582-1.716
					C162.204,349.742,163.168,345.247,160.67,341.632z"/>
				<path style="fill:#92E3A9;" d="M341.868,336.323c1.954,1.698,3.909,3.395,5.864,5.093c-1.314-5.296-2.629-10.591-3.944-15.887
					c2.463,5.055,4.926,10.11,7.389,15.165c-0.329-5.485-0.658-10.97-0.986-16.455c1.44,5.788,2.881,11.577,4.321,17.365
					c1.472-5.964,2.944-11.928,4.416-17.893c0.075,10.043,0.151,20.086,0.227,30.129c-4.507,0.158-10.329,2.013-12.744-2.282
					C343.909,347.11,345.191,341.131,341.868,336.323z"/>
				<path style="fill:#92E3A9;" d="M423.158,319.983c2.466,2.142,4.933,4.285,7.4,6.427c-1.659-6.683-3.318-13.366-4.977-20.049
					c3.108,6.379,6.216,12.759,9.324,19.138c-0.415-6.922-0.83-13.843-1.245-20.765c1.818,7.305,3.635,14.609,5.453,21.914
					c1.858-7.527,3.715-15.053,5.573-22.579c0.095,12.673,0.191,25.347,0.286,38.02c-5.687,0.2-13.034,2.54-16.082-2.88
					C425.733,333.595,427.351,326.05,423.158,319.983z"/>
			</g>
			<g>
				<path style="fill:#263238;" d="M174.413,427.467l14.35-26.099l24.844-4.253l12.549-10.125c0,0,13.999-3.908,27.924-3.171
					c13.926,0.737,21.617,3.956,21.617,3.956l5.595,5.25l13.377,2.793c0,0,12.73,11.042,14.286,10.55
					c1.556-0.491,21.142,1.367,21.142,1.367l9.06,14.597C339.158,422.332,268.478,485.221,174.413,427.467z"/>
				<path style="fill:#5C5C5C;" d="M225.589,396.945c5.265-5.052,13.938-6.108,20.26-2.465c0.225-1.522,0.45-3.045,0.675-4.567
					c2.38,0.641,4.761,1.283,7.141,1.924c0.275,1.513,0.55,3.026,0.825,4.539c7.803-0.66,15.792,1.07,22.623,4.898
					c-0.083,1.888-0.167,3.776-0.25,5.665c1.237-2.785,4.501-4.508,7.498-3.959c2.997,0.55,5.438,3.319,5.605,6.362
					c2.43-0.798,5.279-0.14,7.111,1.644c2.279-1.403,4.558-2.806,6.837-4.209c-5.017-5.72-13.175-7.133-20.294-9.817
					c-11.027-4.158-21.548-12.186-33.22-10.552c0.72,0.756,1.439,1.513,2.159,2.269c-2.172,1.772-6.028,0.467-6.678-2.26
					c-6.542,0.699-13.085,1.398-19.628,2.099c0.014,0.944,0.063,1.87-0.035,2.796c-0.428-0.294-0.972-0.63-1.353-0.932
					C224.86,391.647,226.761,395.821,225.589,396.945z"/>
				<path style="fill:#5C5C5C;" d="M207.258,417.468c-2.036-3.507-4.073-7.014-6.109-10.521c7.388-0.206,14.011,4.214,20.066,8.454
					c-2.377-4.098-4.753-8.197-7.13-12.295c-0.449-0.775-0.964-1.606-1.807-1.91c-0.634-0.228-1.335-0.11-1.998,0.012
					c-4.299,0.787-14.816,0.843-17.651,4.019c1.732,2.585,4.749,4.727,7.172,6.699C201.679,413.455,206.09,415.483,207.258,417.468z
					"/>
				<path style="fill:#5C5C5C;" d="M305.176,416.131c1.325,0.449,2.738,1.031,3.428,2.247c0.691,1.216,0.078,3.179-1.32,3.242
					c5.502-1.873,11.005-3.745,16.507-5.618c-1.441,2.854-3.886,5.188-6.805,6.494c2.25-0.9,4.5-1.801,6.75-2.701
					c0.953,1.965,1.906,3.93,2.859,5.896c-0.105-3.74,0.767-7.503,2.508-10.815c0.443,3.451,2.29,6.702,5.029,8.848
					c-0.62-2.908-1.26-5.867-2.719-8.458c-1.46-2.591-3.894-4.803-6.835-5.244c-2.643-0.396-5.263,0.655-7.91,1.03
					c-3.868,0.548-7.806-0.355-11.702-0.072c-3.179,0.231-7.227,1.66-8.388,4.859C299.313,416.246,301.95,415.037,305.176,416.131z"
					/>
			</g>
		</g>
		<g>
			<g>
				<g>
					<path style="fill:#FFFFFF;stroke:#676F74;stroke-linecap:round;stroke-linejoin:round;" d="M59.367,328.878
						c0,0-25.137,1.208-25.137,12.583c0,11.375,0,11.375,0,11.375l21.635,2.246L59.367,328.878z"/>
					<path style="fill:#FFFFFF;stroke:#676F74;stroke-linecap:round;stroke-linejoin:round;" d="M65.288,312.613
						c-2.438,3.387-3.568,7.516-4.652,11.546c-2.758,10.252-5.516,20.504-8.274,30.756c22.19,6.035,45.966,6.133,68.205,0.281
						c3.844-1.012,8.198-2.733,9.297-6.553c1.226-4.264-2.334-8.282-5.588-11.299c-4.345-4.029-8.689-8.058-13.034-12.087
						C101.829,316.528,76.883,296.501,65.288,312.613z"/>
					<path style="fill:#FFFFFF;stroke:#676F74;stroke-linecap:round;stroke-linejoin:round;" d="M126.053,330.422
						c-1.512,2.101-2.213,4.662-2.886,7.162c-1.711,6.359-3.421,12.719-5.132,19.078c13.765,3.744,28.512,3.804,42.307,0.174
						c2.385-0.627,5.086-1.695,5.767-4.065c0.761-2.645-1.448-5.137-3.466-7.009c-2.695-2.499-5.39-4.999-8.085-7.498
						C148.72,332.85,133.246,320.428,126.053,330.422z"/>
				</g>
				<g>
					<g>
						<path style="fill:#FFFFFF;stroke:#676F74;stroke-linecap:round;stroke-linejoin:round;" d="M406.149,319.754
							c-7.49,0.381-15.268,2.302-20.749,7.421c-5.481,5.119-7.852,14.05-3.829,20.38c2.31,3.635,6.322,5.923,10.484,7.031
							c4.162,1.109,8.522,1.168,12.829,1.22c7.559,0.092,15.119,0.184,22.679,0.276c3.777,0.046,7.612,0.085,11.26-0.896
							c3.648-0.981,7.151-3.132,8.906-6.477c2.994-5.704-0.501-8.483-4.23-11.809c-3.672-3.275-4.944-5.471-7.895-8.982
							C429.047,320.117,416.115,319.247,406.149,319.754z"/>
					</g>
				</g>
			</g>
			<path style="fill:#FFFFFF;stroke:#676F74;stroke-linecap:round;stroke-linejoin:round;" d="M358.418,354.715
				c2.715,4.449,8.929,4.793,14.138,4.627c9.093-0.29,18.186-0.58,27.278-0.87c3.944-0.126,8.658-0.723,10.384-4.27
				c1.933-3.972-1.421-8.492-4.969-11.124c-8.34-6.188-18.35-8.732-28.373-6.504C369.722,338.164,351.773,343.827,358.418,354.715z"
				/>
		</g>
	</g>
</g>
<g id="Character">
	<g>
		<g>
			<g>
				<polygon style="fill:#263238;" points="320.659,433.845 316.648,433.845 314.136,201.001 323.171,201.001 				"/>
				<g>
					<g>
						<g>
							<path style="fill:#FFFFFF;stroke:#263238;stroke-linecap:round;stroke-linejoin:round;" d="M327.971,199.726
								c-0.497-0.929-1.548-0.789-2.75-2.784c-1.203-1.995-3.574-1.177-4.329-1.415c-0.754-0.237-0.793-0.552-0.597-1.574
								c0.196-1.021,0.572-4.387-0.999-4.178c-1.571,0.209-2.278,3.783-2.499,4.643c-0.734,1.592-1.568,3.143-2.499,4.643
								c-0.719,0.272-1.464,0.481-2.224,0.625c-0.867,0.115-1.676,1.885-1.715,2.712c-0.037,0.525,1.066,2.068,1.901,3.144
								c0.443,0.928,0.943,1.831,1.499,2.704c0,0,1.043,1.021,3.623,0.349c2.581-0.672,7.967,1.926,8.595,1.34
								c0.627-0.586,1.748-3.712,2.191-5.424C328.602,202.933,328.533,201.271,327.971,199.726z"/>
							<path style="fill:#FFFFFF;stroke:#263238;stroke-linecap:round;stroke-linejoin:round;" d="M309.915,206.786
								c-0.012-0.896,0.235-1.778,0.714-2.555c0.706-0.764,1.644-3.255,2.511-3.728c0.866-0.473,6.642-1.816,9.898,0.566
								c3.256,2.383,2.863,5.882,3.127,7.561c0.265,1.68-3.913,7.278-4.957,7.484c-1.043,0.206,2.789-7.592-1.375-9.946
								C318.688,205.52,313.466,206.279,309.915,206.786z"/>
						</g>
						<g id="freepik--character-2--inject-2_2_">
							<path style="fill:#FFFFFF;stroke:#263238;stroke-linecap:round;stroke-linejoin:round;" d="M262.811,122.241
								c0,0,1.637-2.524,2.227,0.755c0.59,3.279-0.824,6.806-2.717,8.068c-1.893,1.262-2.717,0-2.717-1.262
								C259.604,128.54,262.811,122.241,262.811,122.241z"/>
							<path style="fill:#FFFFFF;stroke:#263238;stroke-linecap:round;stroke-linejoin:round;" d="M231.026,123.503
								c-1.151-0.403-2.436,0.137-2.87,1.206c-0.137,0.338-0.177,0.703-0.115,1.059c0,3.031,4.343,7.323,6.248,6.309
								C236.194,131.064,231.026,123.503,231.026,123.503z"/>
							<path style="fill:#263238;stroke:#263238;stroke-linecap:round;stroke-linejoin:round;" d="M246.785,93.973
								c0,0-4.243,6.558-8.687,8.326c-5.713,2.276-10.324,9.092-10.023,14.636c0.301,5.544,8.965,23.717,10.324,24.224
								c1.359,0.507,18.476-0.755,19.022-1.51c0.546-0.755,2.985-8.326,5.156-15.649c2.172-7.323,2.172-11.098,2.172-11.098
								c0.789-2.367,1.165-4.836,1.114-7.313c-0.166-2.985-5.552-7.602-5.552-7.602s-4.675-5.077-6.642-4.013
								c-1.933,1.192-3.67,2.638-5.156,4.292L246.785,93.973z"/>
							<path style="fill:#FFFFFF;stroke:#263238;stroke-linecap:round;stroke-linejoin:round;" d="M211.381,257.716
								c0,0,3.675,5.172,3.876,7.178c0.2,2.007,0.189,5.751,0.379,7.002c0.189,1.251-0.579,2.162-1.537,2.162
								c-0.64-0.056-1.214-0.39-1.548-0.9c0.112,1.029,0.305,2.049,0.579,3.051c0.379,1.262,2.506,2.338,2.317,3.589
								c-0.189,1.252-2.317,1.8-5.223,1.8c-3.59-0.022-6.804-2.069-8.119-5.172c-1.737-3.765-3.475-14.543-3.475-16.549
								C198.629,257.871,209.454,256.279,211.381,257.716z"/>
							<path style="fill:none;stroke:#515B60;stroke-linecap:round;stroke-linejoin:round;" d="M207.327,264.357
								c0,0,0.769,1.614-0.779,4.137c-1.047,1.491-1.829,3.129-2.317,4.851c0.43,1.254,1.013,2.458,1.737,3.589
								c0.78,1.438,3.341,1.262,3.486,2.524c0.138,0.677-0.001,1.378-0.39,1.965"/>
							<path style="fill:none;stroke:#515B60;stroke-linecap:round;stroke-linejoin:round;" d="M209.766,272.042
								c0.175,1.411,0.522,2.799,1.036,4.137c0.78,1.8,4.833,2.876,3.341,4.851"/>
							<path style="fill:none;stroke:#515B60;stroke-linecap:round;stroke-linejoin:round;" d="M207.327,272.797
								c0.186,1.168,0.511,2.312,0.969,3.413c0.579,1.034,4.455,2.151,3.675,5.027"/>
							<path style="fill:none;stroke:#515B60;stroke-linecap:round;stroke-linejoin:round;" d="M212.55,273.159
								c0,0-0.39-2.875-0.579-3.951c-0.139-1.029-0.206-2.066-0.2-3.103"/>
							<path style="fill:#FFFFFF;stroke:#263238;stroke-linecap:round;stroke-linejoin:round;" d="M275.975,147.52
								c-5.085-3.689-11.045-6.197-17.384-7.313c-10.87-2.017-25.27,1.262-30.972,4.789c-3.441,2.239-5.709,5.719-6.248,9.588
								L275.975,147.52z"/>
							
								<path id="XMLID_1_" style="fill:#92E3A9;stroke:#263238;stroke-linecap:round;stroke-linejoin:round;stroke-miterlimit:10;" d="
								M323.627,209.038c0.464,7.275-15.617,15.208-23.227,6.052c-5.622-6.764-14.329-35.342-14.329-35.342
								s-2.047,44.122-2.047,46.904c0,2.782-1.253,6.984-1.253,6.984s-0.436,3.083-2.335,4.337
								c-1.885,1.267-2.685,4.978-26.074,6.755c-13.952,1.136-28.016,0.026-41.574-3.279c-1.069-0.261-1.617-6.061-1.617-6.061
								l-0.816,16.902c-0.971,1.006-2.18,1.776-3.53,2.273c-2.166,0.758-8.424,0.248-9.775-0.509
								c-1.364-0.757-4.107-21.186-3.811-24.713c0.295-3.54,2.568-52.449,7.402-63.911c3.927-9.311,10.477-13.528,19.718-16.062
								c9.226-2.521,27.941-2.095,29.053-2.343c0,0,18.101,1.006,26.82-0.496c0,0,16.315-0.653,21.321,8.66
								c3.572,6.626,7.815,19.379,9.966,26.186c1.011,3.199,2.237,6.329,3.669,9.387l3.568,7.618
								C319.173,199.828,323.36,204.727,323.627,209.038z"/>
							<path style="fill:none;stroke:#515B60;stroke-linecap:round;stroke-linejoin:round;" d="M240.47,164.12
								c0,0,3.675,13.446,14.478,18.938"/>
							<path style="fill:none;stroke:#515B60;stroke-linecap:round;stroke-linejoin:round;" d="M256.374,189.017
								c0.817,0.393,1.652,0.776,2.506,1.148"/>
							<path style="fill:none;stroke:#515B60;stroke-linecap:round;stroke-linejoin:round;" d="M240.47,178.063
								c3.588,3.384,7.6,6.357,11.95,8.854"/>
							<path style="fill:#FFFFFF;stroke:#263238;stroke-linecap:round;stroke-linejoin:round;" d="M289.618,232.107
								c-41.563,17.408-78.782,3.279-78.782,3.279s0.546,5.803,1.626,6.061c13.552,3.303,27.616,4.412,41.574,3.279
								c23.387-1.769,33.143-5.048,35.037-6.309c1.893-1.262,1.637-5.047,1.637-5.047s0-0.579,0.111-1.479L289.618,232.107z"/>
							<path style="fill:#FFFFFF;stroke:#263238;stroke-linecap:round;stroke-linejoin:round;" d="M193.718,251.531
								c0,0,6.248,2.524,11.415,1.034s6.515-3.031,7.328-2.772c0.813,0.258,0.824,6.299,0,8.068
								c-0.824,1.769-2.717,3.031-8.419,3.537c-5.702,0.507-8.687-2.069-9.232-3.537
								C194.301,255.775,193.937,253.661,193.718,251.531z"/>
						</g>
						<path style="fill:none;stroke:#515B60;stroke-linecap:round;stroke-linejoin:round;" d="M210.276,173.215
							c0.073,13.115,1.475,26.224,4.183,39.097"/>
						<path style="fill:#BFBFBF;stroke:#263238;stroke-linecap:round;stroke-linejoin:round;stroke-miterlimit:10;" d="
							M227.768,107.724c-2.548,5.49-2.574,9.018-0.334,14.588c2.819,7.008,9.379,9.243,13.368,9.622
							c7.346,0.697,14.505,0.34,20.72-3.414c6.215-3.754,8.898-12.072,7.686-18.933c-1.041-5.895-4.777-13.989-10.694-16.14
							C244.836,88.474,233.384,95.62,227.768,107.724z"/>
						<path style="fill:#999999;stroke:#263238;stroke-linecap:round;stroke-linejoin:round;stroke-miterlimit:10;" d="
							M230.28,102.517c-2.798,4.927-3.276,8.284-1.965,13.919c1.81,7.783,8.061,10.401,12.012,10.83
							c7.34,0.798,14.496,0.3,20.27-4.225c5.45-4.271,6.643-12.85,4.623-19.181c-1.592-4.991-5.378-11.24-10.088-12.768
							C244.702,87.71,235.782,92.83,230.28,102.517z"/>
						
							<ellipse style="fill:#263238;stroke:#263238;stroke-linecap:round;stroke-linejoin:round;stroke-miterlimit:10;" cx="247.652" cy="101.085" rx="3.175" ry="2.793"/>
						<path style="fill:none;stroke:#263238;stroke-linecap:round;stroke-linejoin:round;stroke-miterlimit:10;" d="M239.51,105.804
							c-3.762,5.911-3.637,13.552-2.807,20.875"/>
						<path style="fill:none;stroke:#263238;stroke-linecap:round;stroke-linejoin:round;stroke-miterlimit:10;" d="M249.21,107.096
							c1.051,6.674,1.357,13.448,0.912,20.18"/>
						<path style="fill:none;stroke:#263238;stroke-linecap:round;stroke-linejoin:round;stroke-miterlimit:10;" d="M258.1,104.481
							c3.133,4.947,4.421,10.881,3.597,16.569"/>
						<path style="fill:none;stroke:#515B60;stroke-linecap:round;stroke-linejoin:round;" d="M314.744,203.582
							c0.595,2.972-0.438,6.185-2.689,8.368"/>
						<path style="fill:none;stroke:#515B60;stroke-linecap:round;stroke-linejoin:round;" d="M299.463,172.123
							c-0.114,0.728-0.252,1.452-0.414,2.172"/>
						<path style="fill:none;stroke:#515B60;stroke-linecap:round;stroke-linejoin:round;" d="M298.165,156.059
							c1.49,4.542,2.012,9.355,1.55,14.083"/>
					</g>
					<g>
						<g>
							<path style="fill:#FFFFFF;stroke:#263238;stroke-linecap:round;stroke-linejoin:round;" d="M215.335,244.594
								c0,0-4.78,19.126-3.967,27.204c0.813,8.078-0.605,32.135,2.427,50.592c4.298,26.163,3.074,51.076,3.547,63.752
								c0.163,4.372-0.237,8.772-1.633,12.951c-0.978,2.929-1.273,7.482,2.246,13.25c0.06,1.026,2.274,0.69,2.577,1.678
								c0,0,4.076,2.524,6.526,2.772c2.45,0.248-0.629,2.75,11.978-4.276c2.823-1.573,4.359-10.625,3.2-14.334
								c-1.785-5.711,1.025-14.607,0.356-42.231c-0.305-12.61-1.129-7.866,2.259-27.27c5.305-30.384,4.206-51.393,4.206-51.393
								s0.796,4.559,0.876,6.992c0.403,12.317,3.368,48.669,3.953,79.537c0.479,25.292,3.22,55.422,3.22,57.439
								c0,2.017-0.496,6.408-0.496,8.177c0,1.769-0.163,4.96,0.65,6.221c0.667,1.212,1.211,2.48,1.626,3.785
								c0,0,9.789,1.51,12.496,1.51s5.77-2.126,5.77-2.126l0.489-1.987c1.167-4.743,3.236-5.757,3.746-10.599
								c3.184-30.253,5.245-41.737,5.438-130.771c0.008-3.506-3.254-48.601-3.254-48.601l-0.546-6.061
								c0,0-28.522,3.537-42.109,1.769c-13.587-1.769-24.724-2.275-24.724-2.275L215.335,244.594z"/>
							<g>
								<path style="fill:#757575;stroke:#263238;stroke-linecap:round;stroke-linejoin:round;stroke-miterlimit:10;" d="
									M238.846,439.386c0,2.073-4.278,2.937-8.556,3.096c-2.704,0.027-5.352-0.691-7.612-2.06c0,0-3.649,0.279-4.922-1.183
									c-1.273-1.475-0.63-4.864,0.172-6.033c0.801-1.183,3.892-3.894,5.008-5.98c0.701-1.355-2.389-6.419-2.719-15.442
									c0.515-0.651,1.603-1.143,2.976-1.488l0.572,5.887c0,0,10.546-1.741,13.092,0.306c0.343,0.279,0.63,0.306,0.873,0.146
									c-0.544,2.551-0.887,5.98,0.157,9.488C240.548,435.041,238.846,438.536,238.846,439.386z"/>
								<path style="fill:#263238;" d="M237.73,416.636c-0.243,0.159-0.529,0.133-0.873-0.146
									c-2.547-2.047-13.092-0.306-13.092-0.306l-0.572-5.887c2.99-0.771,7.326-0.877,10.03-0.585
									c2.289,0.239,4.994,1.635,5.452,2.724C238.803,412.742,238.187,414.337,237.73,416.636z"/>
								<path style="fill:#BFBFBF;stroke:#263238;stroke-linecap:round;stroke-linejoin:round;stroke-miterlimit:10;" d="
									M222.7,440.377c2.259,1.373,4.908,2.09,7.607,2.059c4.281-0.154,8.563-1.03,8.563-3.089c0-0.34,0-0.909,0-1.632
									c-2.214,0.899-4.591,1.401-7.006,1.479c-5.708,0.296-8.244-1.325-9.353-1.468c-0.896-0.121-3.361,0.438-5.449-0.449
									c0.03,0.688,0.272,1.353,0.696,1.917C219.032,440.662,222.7,440.377,222.7,440.377z"/>
								
									<line style="fill:none;stroke:#515B60;stroke-linecap:round;stroke-linejoin:round;" x1="222.676" y1="433.301" x2="223.313" y2="440.377"/>
							</g>
							<g>
								<path style="fill:#757575;stroke:#263238;stroke-linecap:round;stroke-linejoin:round;stroke-miterlimit:10;" d="
									M257.018,464.608c0,2.295,4.737,3.251,9.474,3.428c2.994,0.029,5.925-0.765,8.428-2.28c0,0,4.04,0.309,5.45-1.31
									c1.41-1.633,0.697-5.385-0.19-6.68c-0.887-1.309-4.309-4.311-5.545-6.621c-0.776-1.501,2.646-7.106,3.01-17.096
									c-0.57-0.721-1.774-1.265-3.295-1.648l-0.634,6.518c0,0-11.675-1.927-14.495,0.338c-0.38,0.309-0.697,0.338-0.967,0.162
									c0.602,2.825,0.982,6.621-0.174,10.505C255.133,459.797,257.018,463.666,257.018,464.608z"/>
								<path style="fill:#263238;" d="M258.254,439.419c0.27,0.176,0.586,0.147,0.967-0.162c2.82-2.266,14.495-0.338,14.495-0.338
									l0.634-6.518c-3.311-0.853-8.111-0.971-11.105-0.647c-2.535,0.265-5.529,1.81-6.036,3.016
									C257.066,435.108,257.747,436.874,258.254,439.419z"/>
								<path style="fill:#BFBFBF;stroke:#263238;stroke-linecap:round;stroke-linejoin:round;stroke-miterlimit:10;" d="
									M280.366,464.395c0.47-0.625,0.737-1.361,0.77-2.122c-2.311,0.982-5.04,0.364-6.033,0.497
									c-1.227,0.158-4.035,1.953-10.355,1.625c-2.674-0.086-5.305-0.642-7.757-1.637c0,0.8,0,1.431,0,1.807
									c0,2.28,4.74,3.25,9.48,3.42c2.989,0.034,5.921-0.76,8.422-2.28C274.894,465.705,278.955,466.02,280.366,464.395z"/>
								
									<line style="fill:none;stroke:#515B60;stroke-linecap:round;stroke-linejoin:round;" x1="274.215" y1="465.705" x2="274.92" y2="457.871"/>
							</g>
						</g>
						<path style="fill:none;stroke:#515B60;stroke-linecap:round;stroke-linejoin:round;stroke-miterlimit:10;" d="
							M220.507,336.298c2.1,8.702,7.096,16.811,14.23,22.791"/>
						<path style="fill:none;stroke:#515B60;stroke-linecap:round;stroke-linejoin:round;stroke-miterlimit:10;" d="M219.41,328.066
							c0.044,1.703,0.201,3.401,0.468,5.084"/>
						<path style="fill:none;stroke:#515B60;stroke-linecap:round;stroke-linejoin:round;stroke-miterlimit:10;" d="
							M226.057,339.444c2.59,3.35,6.852,5.534,11.285,5.783"/>
						<path style="fill:none;stroke:#515B60;stroke-linecap:round;stroke-linejoin:round;stroke-miterlimit:10;" d="
							M259.432,375.354c7.124-1.703,13.482-6.021,17.388-11.81"/>
						<path style="fill:none;stroke:#515B60;stroke-linecap:round;stroke-linejoin:round;stroke-miterlimit:10;" d="
							M261.635,365.289c4.054-0.289,7.96-2.088,10.661-4.91"/>
					</g>
					<polygon style="fill:#263238;" points="221.327,191.04 212.772,149.693 224.653,147.317 228.455,190.089 					"/>
					<polygon style="fill:#263238;" points="276.604,189.139 285.158,147.792 273.277,145.416 269.475,188.188 					"/>
					<g>
						<g>
							<polygon style="fill:#263238;stroke:#263238;stroke-linecap:round;stroke-linejoin:round;stroke-miterlimit:10;" points="
								240.091,182.963 240.091,207.544 239.989,207.544 236.625,212.959 233.275,207.544 233.173,207.544 233.173,190.048 
								233.158,190.048 233.158,182.963 							"/>
							
								<rect x="258.146" y="144.94" style="fill:#263238;stroke:#263238;stroke-linecap:round;stroke-linejoin:round;stroke-miterlimit:10;" width="6.932" height="10.129"/>
							
								<rect x="258.146" y="160.146" style="fill:#263238;stroke:#263238;stroke-linecap:round;stroke-linejoin:round;stroke-miterlimit:10;" width="6.932" height="17.739"/>
							<path style="fill:#FFFFFF;stroke:#263238;stroke-linecap:round;stroke-linejoin:round;stroke-miterlimit:10;" d="
								M280.785,165.089l-4.09,12.028c-1.494,5.697-5.961,10.169-11.602,13.105v17.321h-0.015v-24.581h3.698v-5.078h-3.698v-17.739
								h3.698v-5.078h-3.698V144.94h-6.932v10.129h-3.698v5.078h3.698v17.739h-3.698v5.078h3.698v9.954
								c-0.377,0.094-0.754,0.189-1.131,0.283c-0.348,0.081-0.696,0.162-1.059,0.229c-0.044,0.013-0.102,0.013-0.16,0.027
								c-0.16,0.04-0.305,0.067-0.464,0.094c-0.218,0.04-0.45,0.081-0.682,0.121c-0.072,0.013-0.16,0.027-0.246,0.04
								c-0.203,0.027-0.421,0.067-0.624,0.094c-0.232,0.027-0.464,0.067-0.696,0.094c-0.029,0-0.058,0-0.087,0.013
								c-0.232,0.027-0.464,0.041-0.696,0.067c-0.044,0-0.102,0.014-0.16,0.014c-0.232,0.027-0.464,0.04-0.696,0.067h-0.073
								c-0.232,0.014-0.464,0.027-0.71,0.04c-0.232,0.013-0.464,0.027-0.711,0.027c-0.029,0-0.072,0.014-0.102,0.014h-0.725
								c-3.002,0.013-6.062-0.431-9.02-1.266v14.668h-0.015v-24.581h3.698v-5.078h-3.698v-17.739h3.698v-5.078h-3.698V144.94h-6.932
								v10.129h-3.698v5.078h3.698v17.739h-3.698v5.078h3.698v7.085c-5.569-3.057-9.963-7.664-11.486-13.348l-4.22-11.61
								l11.515-20.257h39.984L280.785,165.089z"/>
							<g>
								<g>
									<g>
										<polygon style="fill:#FFFFFF;stroke:#263238;stroke-linecap:round;stroke-linejoin:round;stroke-miterlimit:10;" points="
											271.373,212.959 271.373,213.161 227.734,213.161 249.546,224.219 271.373,213.161 271.373,239.937 226.951,239.937 
											226.951,212.959 										"/>
										<g>
											<path style="fill:#263238;" d="M296.03,268.03l-21.297-2.551c-16.143-1.934-32.376-1.926-48.518,0.024l-20.927,2.527
												l-0.579-2.996c-1.397-7.231-1.195-14.884,0.579-21.952l0,0l32.905,3.123c8.177,0.776,16.382,0.779,24.56,0.009
												l33.277-3.132l0,0c1.892,7.932,1.931,16.499,0.11,24.464L296.03,268.03z"/>
											
												<rect x="246.535" y="241.726" style="fill:#FFFFFF;stroke:#263238;stroke-linecap:round;stroke-linejoin:round;stroke-miterlimit:10;" width="8.735" height="25.77"/>
										</g>
										<path style="fill:#757575;stroke:#263238;stroke-linecap:round;stroke-linejoin:round;stroke-miterlimit:10;" d="
											M280.785,165.089v74.242c0,4.58-3.988,8.297-8.919,8.297h-45.48c-4.931,0-8.934-3.717-8.934-8.297v-74.242l4.22,11.61
											c1.523,5.684,5.917,10.29,11.486,13.348v17.496h0.102l3.365,5.415h-9.673v26.979h44.421v-26.979h-9.746l3.365-5.415h0.102
											v-17.321c5.641-2.936,10.108-7.408,11.602-13.105L280.785,165.089z"/>
										
											<rect x="233.158" y="190.048" style="fill:none;stroke:#515B60;stroke-linecap:round;stroke-linejoin:round;stroke-miterlimit:10;" width="0.015" height="17.496"/>
										<polygon style="fill:none;stroke:#515B60;stroke-linecap:round;stroke-linejoin:round;stroke-miterlimit:10;" points="
											236.625,212.959 233.26,207.544 233.275,207.544 										"/>
										<path style="fill:#757575;stroke:#263238;stroke-linecap:round;stroke-linejoin:round;stroke-miterlimit:10;" d="
											M261.613,212.959h-24.973l3.365-5.415h0.102v-14.668c2.958,0.835,6.018,1.28,9.02,1.266h0.725
											c0.029,0,0.073-0.014,0.102-0.014c0.247,0,0.479-0.014,0.711-0.027c0.246-0.013,0.479-0.027,0.71-0.04h0.073
											c0.232-0.027,0.464-0.04,0.696-0.067c0.058,0,0.116-0.014,0.16-0.014c0.232-0.027,0.464-0.04,0.696-0.067
											c0.029-0.013,0.058-0.013,0.087-0.013c0.232-0.027,0.464-0.067,0.696-0.094c0.203-0.027,0.421-0.067,0.624-0.094
											c0.087-0.014,0.174-0.027,0.246-0.04c0.232-0.04,0.464-0.081,0.682-0.121c0.16-0.027,0.305-0.054,0.464-0.094
											c0.058-0.014,0.116-0.014,0.16-0.027c0.363-0.067,0.711-0.148,1.059-0.229c0.377-0.094,0.754-0.189,1.131-0.283v14.628
											h0.102L261.613,212.959z"/>
										<polygon style="fill:none;stroke:#515B60;stroke-linecap:round;stroke-linejoin:round;stroke-miterlimit:10;" points="
											258.161,192.903 258.161,207.544 258.146,207.544 258.146,192.917 										"/>
										<polygon style="fill:none;stroke:#515B60;stroke-linecap:round;stroke-linejoin:round;stroke-miterlimit:10;" points="
											261.613,212.959 258.248,207.544 258.262,207.544 										"/>
									</g>
								</g>
								<path style="fill:#FFFFFF;stroke:#263238;stroke-linecap:round;stroke-linejoin:round;stroke-miterlimit:10;" d="
									M271.373,213.161l-12.075,8.27c-5.877,4.025-13.624,4.024-19.5-0.003l-12.063-8.267H271.373z"/>
								<path style="fill:#FFFFFF;stroke:#263238;stroke-linecap:round;stroke-linejoin:round;stroke-miterlimit:10;" d="
									M293.939,222.589v17.348h-13.154v-26.979h2.799C289.298,212.959,293.939,217.269,293.939,222.589z"/>
								<path style="fill:#FFFFFF;stroke:#263238;stroke-linecap:round;stroke-linejoin:round;stroke-miterlimit:10;" d="
									M217.452,212.959v26.979h-13.154v-17.348c0-5.32,4.641-9.63,10.355-9.63H217.452z"/>
							</g>
							<g>
								
									<rect x="233.158" y="160.146" style="fill:#263238;stroke:#263238;stroke-linecap:round;stroke-linejoin:round;stroke-miterlimit:10;" width="6.932" height="17.739"/>
								<g>
									
										<rect x="233.158" y="190.048" style="fill:none;stroke:#515B60;stroke-linecap:round;stroke-linejoin:round;stroke-miterlimit:10;" width="0.015" height="17.496"/>
									<polygon style="fill:none;stroke:#515B60;stroke-linecap:round;stroke-linejoin:round;stroke-miterlimit:10;" points="
										236.625,212.959 233.26,207.544 233.275,207.544 									"/>
								</g>
								
									<rect x="233.158" y="144.94" style="fill:#263238;stroke:#263238;stroke-linecap:round;stroke-linejoin:round;stroke-miterlimit:10;" width="6.932" height="10.129"/>
								<polygon style="fill:#263238;stroke:#263238;stroke-linecap:round;stroke-linejoin:round;stroke-miterlimit:10;" points="
									265.079,182.963 265.079,207.544 264.977,207.544 261.613,212.959 258.262,207.544 258.161,207.544 258.161,192.903 
									258.146,192.917 258.146,182.963 								"/>
								<polygon style="fill:none;stroke:#515B60;stroke-linecap:round;stroke-linejoin:round;stroke-miterlimit:10;" points="
									258.161,192.903 258.161,207.544 258.146,207.544 258.146,192.917 								"/>
								<polygon style="fill:none;stroke:#515B60;stroke-linecap:round;stroke-linejoin:round;stroke-miterlimit:10;" points="
									261.613,212.959 258.248,207.544 258.262,207.544 								"/>
								
									<rect x="229.46" y="155.068" style="fill:#92E3A9;stroke:#263238;stroke-linecap:round;stroke-linejoin:round;stroke-miterlimit:10;" width="14.329" height="5.078"/>
								
									<rect x="254.448" y="155.068" style="fill:#92E3A9;stroke:#263238;stroke-linecap:round;stroke-linejoin:round;stroke-miterlimit:10;" width="14.329" height="5.078"/>
								
									<rect x="229.46" y="177.885" style="fill:#92E3A9;stroke:#263238;stroke-linecap:round;stroke-linejoin:round;stroke-miterlimit:10;" width="14.329" height="5.078"/>
								
									<rect x="254.448" y="177.885" style="fill:#92E3A9;stroke:#263238;stroke-linecap:round;stroke-linejoin:round;stroke-miterlimit:10;" width="14.329" height="5.078"/>
							</g>
						</g>
					</g>
				</g>
			</g>
			<path style="fill:none;stroke:#515B60;stroke-linecap:round;stroke-linejoin:round;stroke-miterlimit:10;" d="M249.107,281.139
				c6.683,5.389,16.756,6.84,24.883,3.583"/>
			<path style="fill:none;stroke:#515B60;stroke-linecap:round;stroke-linejoin:round;stroke-miterlimit:10;" d="M249.83,285.795
				c-3.702,9.504-9.449,18.316-16.801,25.766"/>
		</g>
		<path style="fill:#263238;stroke:#263238;stroke-linecap:round;stroke-linejoin:round;stroke-miterlimit:10;" d="M249.178,279.139
			l-0.963,3.569c-1.375,5.095-2.389,9.083-4.68,13.837l-4.277,8.079l10.099-16.218L249.178,279.139z"/>
		<path style="fill:#263238;stroke:#263238;stroke-linecap:round;stroke-linejoin:round;stroke-miterlimit:10;" d="M249.107,281.139
			l1.972,20.395l1.051-3.825c0.701-4.729,4.009-8.441,7.682-11.502l0,0c-2.922-0.631-5.695-1.797-8.188-3.447
			C250.947,282.312,250.119,281.778,249.107,281.139z"/>
		<path style="fill:none;stroke:#515B60;stroke-linecap:round;stroke-linejoin:round;stroke-miterlimit:10;" d="M212.021,267.049
			c0.432,7.965,4.453,13.172,9.831,15.238"/>
		<path style="fill:none;stroke:#515B60;stroke-linecap:round;stroke-linejoin:round;stroke-miterlimit:10;" d="M284.584,266.811
			c-0.292,7.965-3.014,13.172-6.654,15.238"/>
		<path style="fill:none;stroke:#515B60;stroke-linecap:round;stroke-linejoin:round;" d="M206.951,204.907
			c1.456,2.856,2.627,5.858,3.487,8.946"/>
		<path style="fill:none;stroke:#515B60;stroke-linecap:round;stroke-linejoin:round;" d="M203.796,199.591
			c0.441,0.645,0.867,1.3,1.276,1.966"/>
		<path style="fill:none;stroke:#515B60;stroke-linecap:round;stroke-linejoin:round;" d="M194.314,216.704
			c-0.19,4.63,0.958,9.307,3.27,13.323"/>
		<path style="fill:none;stroke:#515B60;stroke-linecap:round;stroke-linejoin:round;" d="M283.459,170.739
			c1.269,4.277,2.539,8.553,3.808,12.83"/>
	</g>
</g>
</svg>
