<svg width="451" height="440" viewBox="0 0 451 440" fill="none" xmlns="http://www.w3.org/2000/svg">
<g clip-path="url(#clip0_863_468)">
<path d="M450.158 212.293C450.158 213.249 450.147 214.215 450.125 215.171C450.125 215.584 450.125 215.996 450.103 216.409C450.092 217.082 450.07 217.756 450.049 218.418C450.038 218.82 450.027 219.232 449.995 219.634C449.962 220.633 449.919 221.632 449.854 222.631C449.789 223.684 449.724 224.738 449.637 225.78C449.594 226.41 449.539 227.04 449.474 227.67C449.431 228.311 449.365 228.951 449.3 229.581C449.202 230.613 449.094 231.645 448.963 232.665C448.887 233.382 448.8 234.109 448.702 234.826C448.659 235.206 448.604 235.575 448.55 235.955C448.528 236.15 448.507 236.357 448.463 236.552C444.684 263.713 434.595 289.158 419.553 311.737C291.734 415.688 165.528 422.3 41.068 323.587C16.361 291.919 1.90601 253.594 1.90601 212.293C1.90601 173.761 33.487 67.245 207.684 3.75702C267.654 -18.093 387.473 77.704 432.499 157.873C443.599 177.627 450.158 196.426 450.158 212.293Z" fill="#92E3A9"/>
<g opacity="0.7">
<path d="M450.158 212.293C450.158 213.249 450.147 214.215 450.125 215.171C450.125 215.584 450.125 215.996 450.103 216.409C450.092 217.082 450.07 217.756 450.049 218.418C450.038 218.82 450.027 219.232 449.995 219.634C449.962 220.633 449.919 221.632 449.854 222.631C449.789 223.684 449.724 224.738 449.637 225.78C449.594 226.41 449.539 227.04 449.474 227.67C449.431 228.311 449.365 228.951 449.3 229.581C449.202 230.613 449.094 231.645 448.963 232.665C448.887 233.382 448.8 234.109 448.702 234.826C448.659 235.206 448.604 235.575 448.55 235.955C448.528 236.15 448.507 236.357 448.463 236.552C444.684 263.713 434.595 289.158 419.553 311.737C291.734 415.688 165.528 422.3 41.068 323.587C16.361 291.919 1.90601 253.594 1.90601 212.293C1.90601 173.761 33.487 67.245 207.684 3.75702C267.654 -18.093 387.473 77.704 432.499 157.873C443.599 177.627 450.158 196.426 450.158 212.293Z" fill="white"/>
</g>
<path d="M301.338 148.956L364.188 151.185C374.207 151.54 374.714 138.789 363.659 135.534C363.52 135.493 363.379 135.453 363.237 135.414C373.466 125.741 340.886 104.355 326.21 134.213C324.391 125.968 306.726 129.581 307.013 139.6C301.538 133.286 293.186 143.68 301.338 148.956Z" stroke="#515B60" stroke-miterlimit="10" stroke-linecap="round" stroke-linejoin="round"/>
<path d="M80.242 112.318L133.319 111.429C141.78 111.287 140.93 99.894 131.307 97.498C131.186 97.468 131.063 97.438 130.94 97.41C138.573 88.317 109.034 70.738 99.681 98.033C97.326 90.764 82.832 94.794 84.077 103.715C78.841 98.337 72.858 107.987 80.242 112.318Z" stroke="#515B60" stroke-miterlimit="10" stroke-linecap="round" stroke-linejoin="round"/>
<path d="M290.148 71.459C290.148 71.459 289.394 71.303 288.269 70.849C287.139 70.408 285.684 69.661 284.17 68.93C282.663 68.205 281.224 67.831 280.156 67.727C279.089 67.608 278.363 67.701 278.261 67.447C278.161 67.232 278.788 66.647 280.092 66.407C281.381 66.153 283.235 66.399 284.975 67.243C286.707 68.086 287.916 69.245 288.776 70.065C289.63 70.899 290.148 71.459 290.148 71.459Z" fill="#515B60"/>
<path d="M296.747 66.147C296.747 66.147 296.213 66.355 295.387 66.678C294.577 67.008 293.555 67.472 292.417 67.972C290.145 68.972 288.208 70.015 287.892 69.563C287.745 69.354 288.045 68.845 288.697 68.21C289.348 67.58 290.369 66.816 291.681 66.253C292.991 65.677 294.357 65.617 295.282 65.749C295.75 65.82 296.117 65.912 296.367 66.005C296.615 66.09 296.747 66.147 296.747 66.147Z" fill="#515B60"/>
<path d="M277.904 75.42C277.904 75.42 277.769 75.338 277.53 75.194C277.298 75.044 276.951 74.846 276.531 74.617C275.687 74.154 274.519 73.63 273.203 73.171C270.558 72.224 268.191 72.431 268.119 72.03C268.086 71.851 268.662 71.546 269.685 71.402C270.701 71.255 272.163 71.328 273.663 71.845C275.166 72.368 276.309 73.299 276.972 74.07C277.308 74.456 277.545 74.792 277.687 75.039C277.826 75.283 277.904 75.42 277.904 75.42Z" fill="#515B60"/>
<path d="M280.498 69.952C280.498 69.952 280.12 70.178 279.55 70.499C278.988 70.814 278.245 71.231 277.437 71.684C275.841 72.557 274.613 73.582 274.308 73.306C274.169 73.176 274.308 72.754 274.715 72.199C275.12 71.647 275.824 70.968 276.764 70.453C277.708 69.94 278.692 69.802 279.381 69.818C280.076 69.829 280.498 69.952 280.498 69.952Z" fill="#515B60"/>
<path d="M275.714 66.8409C275.714 66.8409 274.819 66.5259 273.447 65.9469C272.07 65.3759 270.233 64.5539 268.217 63.8879C266.205 63.2249 264.291 63.0579 262.913 63.1529C261.531 63.2319 260.651 63.4959 260.524 63.2489C260.406 63.0469 261.13 62.3129 262.677 61.8519C264.205 61.3779 266.504 61.3489 268.798 62.1099C271.087 62.8709 272.796 64.1779 273.939 65.1509C275.082 66.1399 275.714 66.8409 275.714 66.8409Z" fill="#515B60"/>
<path d="M281.788 59.122C281.788 59.122 281.605 59.174 281.279 59.267C280.954 59.348 280.491 59.489 279.94 59.664C278.831 60.012 277.396 60.571 275.873 61.266C272.799 62.64 270.822 64.682 270.392 64.354C270.198 64.204 270.454 63.455 271.236 62.482C272.009 61.513 273.354 60.368 275.093 59.567C276.84 58.769 278.614 58.623 279.839 58.735C280.455 58.788 280.944 58.881 281.277 58.976C281.604 59.069 281.788 59.122 281.788 59.122Z" fill="#515B60"/>
<path d="M7.27698 249.485L46.803 192.555L70.029 185.587L75.201 167.706C77.648 159.247 83.52 152.195 91.396 148.257L100.996 119.007L130.415 112.039L164.329 43.2441L186.78 42.4701L207.683 32.4061L226.263 24.6641L246.392 47.8901L264.972 92.0191L292.219 111.266L320.09 167.008C344.066 175.807 364.473 192.261 378.157 213.825L403.973 254.509L145.898 268.426L7.27698 249.485Z" fill="white"/>
<mask id="mask0_863_468" style="mask-type:luminance" maskUnits="userSpaceOnUse" x="7" y="24" width="397" height="245">
<path d="M7.27698 249.485L46.803 192.555L70.029 185.587L75.201 167.706C77.648 159.247 83.52 152.195 91.396 148.257L100.996 119.007L130.415 112.039L164.329 43.2441L186.78 42.4701L207.683 32.4061L226.263 24.6641L246.392 47.8901L264.972 92.0191L292.219 111.266L320.09 167.008C344.066 175.807 364.473 192.261 378.157 213.825L403.973 254.509L145.898 268.426L7.27698 249.485Z" fill="white"/>
</mask>
<g mask="url(#mask0_863_468)">
<path d="M152.881 99.564C151.785 102.745 150.635 105.984 148.558 108.631C146.318 111.486 143.041 113.507 139.485 114.228C143.853 115.914 148.644 116.492 153.288 115.894C152.259 106.412 156.343 96.528 163.764 90.537C162.69 80.708 164.725 70.561 169.507 61.907C170.754 59.651 172.215 57.394 172.471 54.829C172.619 53.348 172.203 51.11 170.934 50.139C168.147 48.007 168.85 50.107 167.578 52.109C165.06 56.074 164.48 63.097 163.119 67.667C159.932 78.369 156.518 89.005 152.881 99.564Z" fill="#92E3A9"/>
</g>
<mask id="mask1_863_468" style="mask-type:luminance" maskUnits="userSpaceOnUse" x="7" y="24" width="397" height="245">
<path d="M7.27698 249.485L46.803 192.555L70.029 185.587L75.201 167.706C77.648 159.247 83.52 152.195 91.396 148.257L100.996 119.007L130.415 112.039L164.329 43.2441L186.78 42.4701L207.683 32.4061L226.263 24.6641L246.392 47.8901L264.972 92.0191L292.219 111.266L320.09 167.008C344.066 175.807 364.473 192.261 378.157 213.825L403.973 254.509L145.898 268.426L7.27698 249.485Z" fill="white"/>
</mask>
<g mask="url(#mask1_863_468)">
<path opacity="0.8" d="M152.881 99.564C151.785 102.745 150.635 105.984 148.558 108.631C146.318 111.486 143.041 113.507 139.485 114.228C143.853 115.914 148.644 116.492 153.288 115.894C152.259 106.412 156.343 96.528 163.764 90.537C162.69 80.708 164.725 70.561 169.507 61.907C170.754 59.651 172.215 57.394 172.471 54.829C172.619 53.348 172.203 51.11 170.934 50.139C168.147 48.007 168.85 50.107 167.578 52.109C165.06 56.074 164.48 63.097 163.119 67.667C159.932 78.369 156.518 89.005 152.881 99.564Z" fill="white"/>
</g>
<mask id="mask2_863_468" style="mask-type:luminance" maskUnits="userSpaceOnUse" x="7" y="24" width="397" height="245">
<path d="M7.27698 249.485L46.803 192.555L70.029 185.587L75.201 167.706C77.648 159.247 83.52 152.195 91.396 148.257L100.996 119.007L130.415 112.039L164.329 43.2441L186.78 42.4701L207.683 32.4061L226.263 24.6641L246.392 47.8901L264.972 92.0191L292.219 111.266L320.09 167.008C344.066 175.807 364.473 192.261 378.157 213.825L403.973 254.509L145.898 268.426L7.27698 249.485Z" fill="white"/>
</mask>
<g mask="url(#mask2_863_468)">
<path d="M95.585 181.449C96.011 180.353 95.727 179.016 94.893 178.187C97.763 178.809 100.946 177.622 102.709 175.274C100.744 168.387 102.22 160.607 106.571 154.918C105.688 157.58 104.793 160.318 104.939 163.118C105.084 165.919 106.507 168.836 109.087 169.935C115.628 172.72 123.304 162.591 129.188 166.58C126.85 168.6 124.513 170.62 122.175 172.64C128.485 171.464 134.794 170.287 141.103 169.111C141.963 167.16 142.824 165.209 143.684 163.257C144.608 165.435 145.532 167.612 146.455 169.79C147.778 162.917 152.307 156.732 158.459 153.394C152.749 159.027 154.188 170.137 147.218 174.106C144.273 175.783 140.678 175.576 137.296 175.801C127.065 176.484 117.706 181.462 108.096 185.037C99.343 188.293 87.131 191.277 78.599 185.895C81.028 184.928 94.868 183.297 95.585 181.449Z" fill="#92E3A9"/>
<path opacity="0.8" d="M95.585 181.449C96.011 180.353 95.727 179.016 94.893 178.187C97.763 178.809 100.946 177.622 102.709 175.274C100.744 168.387 102.22 160.607 106.571 154.918C105.688 157.58 104.793 160.318 104.939 163.118C105.084 165.919 106.507 168.836 109.087 169.935C115.628 172.72 123.304 162.591 129.188 166.58C126.85 168.6 124.513 170.62 122.175 172.64C128.485 171.464 134.794 170.287 141.103 169.111C141.963 167.16 142.824 165.209 143.684 163.257C144.608 165.435 145.532 167.612 146.455 169.79C147.778 162.917 152.307 156.732 158.459 153.394C152.749 159.027 154.188 170.137 147.218 174.106C144.273 175.783 140.678 175.576 137.296 175.801C127.065 176.484 117.706 181.462 108.096 185.037C99.343 188.293 87.131 191.277 78.599 185.895C81.028 184.928 94.868 183.297 95.585 181.449Z" fill="white"/>
</g>
<mask id="mask3_863_468" style="mask-type:luminance" maskUnits="userSpaceOnUse" x="7" y="24" width="397" height="245">
<path d="M7.27698 249.485L46.803 192.555L70.029 185.587L75.201 167.706C77.648 159.247 83.52 152.195 91.396 148.257L100.996 119.007L130.415 112.039L164.329 43.2441L186.78 42.4701L207.683 32.4061L226.263 24.6641L246.392 47.8901L264.972 92.0191L292.219 111.266L320.09 167.008C344.066 175.807 364.473 192.261 378.157 213.825L403.973 254.509L145.898 268.426L7.27698 249.485Z" fill="white"/>
</mask>
<g mask="url(#mask3_863_468)">
<path d="M57.0979 252.529C63.9309 242.346 75.3979 233.603 77.5679 221.533C78.7089 215.187 79.8499 208.841 80.9899 202.495C80.9899 202.495 72.8619 227.624 69.0599 230.951C65.2579 234.278 53.8519 249.486 53.8519 249.486L57.0979 252.529Z" fill="#92E3A9"/>
</g>
<mask id="mask4_863_468" style="mask-type:luminance" maskUnits="userSpaceOnUse" x="7" y="24" width="397" height="245">
<path d="M7.27698 249.485L46.803 192.555L70.029 185.587L75.201 167.706C77.648 159.247 83.52 152.195 91.396 148.257L100.996 119.007L130.415 112.039L164.329 43.2441L186.78 42.4701L207.683 32.4061L226.263 24.6641L246.392 47.8901L264.972 92.0191L292.219 111.266L320.09 167.008C344.066 175.807 364.473 192.261 378.157 213.825L403.973 254.509L145.898 268.426L7.27698 249.485Z" fill="white"/>
</mask>
<g mask="url(#mask4_863_468)">
<path d="M253.933 149.348L253.806 148.46C253.651 148.162 253.496 147.865 253.341 147.567C253.538 148.161 253.736 148.755 253.933 149.348Z" fill="#E4F8E9"/>
</g>
<mask id="mask5_863_468" style="mask-type:luminance" maskUnits="userSpaceOnUse" x="7" y="24" width="397" height="245">
<path d="M7.27698 249.485L46.803 192.555L70.029 185.587L75.201 167.706C77.648 159.247 83.52 152.195 91.396 148.257L100.996 119.007L130.415 112.039L164.329 43.2441L186.78 42.4701L207.683 32.4061L226.263 24.6641L246.392 47.8901L264.972 92.0191L292.219 111.266L320.09 167.008C344.066 175.807 364.473 192.261 378.157 213.825L403.973 254.509L145.898 268.426L7.27698 249.485Z" fill="white"/>
</mask>
<g mask="url(#mask5_863_468)">
<path d="M120.379 229.891C119.929 228.163 119.479 226.435 119.03 224.707C116.926 230.155 114.822 235.604 112.719 241.052C111.526 244.142 110.316 247.318 110.302 250.63C110.288 253.942 112.699 257.454 115.634 258.989C114.891 253.427 116.141 247.887 119.062 243.095C121.982 238.303 125.641 233.969 128.264 229.008C133.917 218.317 135.804 205.431 139.976 194.138C136.295 194.244 132.013 206.899 130.326 210.233C127.01 216.787 123.694 223.339 120.379 229.891Z" fill="#92E3A9"/>
</g>
<mask id="mask6_863_468" style="mask-type:luminance" maskUnits="userSpaceOnUse" x="7" y="24" width="397" height="245">
<path d="M7.27698 249.485L46.803 192.555L70.029 185.587L75.201 167.706C77.648 159.247 83.52 152.195 91.396 148.257L100.996 119.007L130.415 112.039L164.329 43.2441L186.78 42.4701L207.683 32.4061L226.263 24.6641L246.392 47.8901L264.972 92.0191L292.219 111.266L320.09 167.008C344.066 175.807 364.473 192.261 378.157 213.825L403.973 254.509L145.898 268.426L7.27698 249.485Z" fill="white"/>
</mask>
<g mask="url(#mask6_863_468)">
<path d="M142.783 115.234C138.659 114.348 134.536 113.463 130.412 112.577L100.996 119.007L125.613 134.95L137.494 133.049L148.425 126.395L163.158 130.672L166.485 133.999L189.297 135.425L218.287 128.772L246.802 127.346L258.208 114.99L277.218 115.941L292.221 111.266L264.974 92.019L248.228 102.159C248.228 102.159 250.129 106.436 243.475 108.337C236.822 110.238 230.168 111.664 230.168 111.664H217.336L206.881 113.565L182.168 118.317C182.168 118.317 155.079 114.515 153.178 115.465C151.277 116.416 142.783 115.234 142.783 115.234Z" fill="#92E3A9"/>
<path opacity="0.8" d="M142.783 115.234C138.659 114.348 134.536 113.463 130.412 112.577L100.996 119.007L125.613 134.95L137.494 133.049L148.425 126.395L163.158 130.672L166.485 133.999L189.297 135.425L218.287 128.772L246.802 127.346L258.208 114.99L277.218 115.941L292.221 111.266L264.974 92.019L248.228 102.159C248.228 102.159 250.129 106.436 243.475 108.337C236.822 110.238 230.168 111.664 230.168 111.664H217.336L206.881 113.565L182.168 118.317C182.168 118.317 155.079 114.515 153.178 115.465C151.277 116.416 142.783 115.234 142.783 115.234Z" fill="white"/>
</g>
<mask id="mask7_863_468" style="mask-type:luminance" maskUnits="userSpaceOnUse" x="7" y="24" width="397" height="245">
<path d="M7.27698 249.485L46.803 192.555L70.029 185.587L75.201 167.706C77.648 159.247 83.52 152.195 91.396 148.257L100.996 119.007L130.415 112.039L164.329 43.2441L186.78 42.4701L207.683 32.4061L226.263 24.6641L246.392 47.8901L264.972 92.0191L292.219 111.266L320.09 167.008C344.066 175.807 364.473 192.261 378.157 213.825L403.973 254.509L145.898 268.426L7.27698 249.485Z" fill="white"/>
</mask>
<g mask="url(#mask7_863_468)">
<path d="M177.891 171.545C179.11 166.365 179.823 159.39 181.042 154.21C173.892 162.683 172.819 175.037 165.724 183.555C162.653 187.241 158.607 190.007 155.455 193.624C150.607 199.187 148.166 206.39 145.838 213.392C140.657 228.974 135.406 245.267 137.805 261.511C142.667 250.013 142.724 244.733 151.753 233.327C157.017 226.678 159.008 211.371 163.244 204.024C167.925 195.905 172.411 194.902 173.233 188.856C173.94 183.658 175.097 178.532 177.045 173.662L177.891 171.545Z" fill="#92E3A9"/>
</g>
<mask id="mask8_863_468" style="mask-type:luminance" maskUnits="userSpaceOnUse" x="7" y="24" width="397" height="245">
<path d="M7.27698 249.485L46.803 192.555L70.029 185.587L75.201 167.706C77.648 159.247 83.52 152.195 91.396 148.257L100.996 119.007L130.415 112.039L164.329 43.2441L186.78 42.4701L207.683 32.4061L226.263 24.6641L246.392 47.8901L264.972 92.0191L292.219 111.266L320.09 167.008C344.066 175.807 364.473 192.261 378.157 213.825L403.973 254.509L145.898 268.426L7.27698 249.485Z" fill="white"/>
</mask>
<g mask="url(#mask8_863_468)">
<path d="M248.927 140.329C253.248 149.977 258.684 158.238 263.911 166.792C268.615 174.489 282.216 176.843 286.632 184.708C297.653 204.336 304.446 210.938 311.186 225.332C314.523 224.638 317.86 223.945 321.198 223.251C313.911 209.056 304.757 195.82 294.046 183.993C299.619 185.429 311.016 186.078 311.142 184.966C300.834 182.236 297.216 179.53 288.149 173.921C275.286 165.963 257.79 153.777 249.235 141.299" fill="#92E3A9"/>
</g>
<mask id="mask9_863_468" style="mask-type:luminance" maskUnits="userSpaceOnUse" x="7" y="24" width="397" height="245">
<path d="M7.27698 249.485L46.803 192.555L70.029 185.587L75.201 167.706C77.648 159.247 83.52 152.195 91.396 148.257L100.996 119.007L130.415 112.039L164.329 43.2441L186.78 42.4701L207.683 32.4061L226.263 24.6641L246.392 47.8901L264.972 92.0191L292.219 111.266L320.09 167.008C344.066 175.807 364.473 192.261 378.157 213.825L403.973 254.509L145.898 268.426L7.27698 249.485Z" fill="white"/>
</mask>
<g mask="url(#mask9_863_468)">
<path d="M307.075 174.363C307.411 175.291 307.746 176.218 308.082 177.146C303.289 176.686 298.496 176.225 293.703 175.764C300.413 178.833 307.345 182.064 312.147 187.666C314.451 190.353 316.395 193.674 319.701 194.937C321.416 195.592 323.309 195.602 325.076 196.1C330.813 197.719 333.828 203.839 336.156 209.326C339.515 207.519 342.874 205.712 346.233 203.905C343.242 204.047 340.408 202.317 338.482 200.025C336.556 197.732 335.382 194.918 334.237 192.151C333.644 190.718 333.039 189.159 333.419 187.655C333.799 186.151 335.659 184.961 336.943 185.832C336.742 183.546 333.946 182.685 331.775 181.939C329.605 181.193 327.258 178.765 328.689 176.971C329.957 175.382 332.489 176.492 334.133 177.688C327.801 173.467 314.087 171.705 307.075 174.363Z" fill="#92E3A9"/>
</g>
<mask id="mask10_863_468" style="mask-type:luminance" maskUnits="userSpaceOnUse" x="7" y="24" width="397" height="245">
<path d="M7.27698 249.485L46.803 192.555L70.029 185.587L75.201 167.706C77.648 159.247 83.52 152.195 91.396 148.257L100.996 119.007L130.415 112.039L164.329 43.2441L186.78 42.4701L207.683 32.4061L226.263 24.6641L246.392 47.8901L264.972 92.0191L292.219 111.266L320.09 167.008C344.066 175.807 364.473 192.261 378.157 213.825L403.973 254.509L145.898 268.426L7.27698 249.485Z" fill="white"/>
</mask>
<g mask="url(#mask10_863_468)">
<path opacity="0.8" d="M57.0979 252.529C63.9309 242.346 75.3979 233.603 77.5679 221.533C78.7089 215.187 79.8499 208.841 80.9899 202.495C80.9899 202.495 72.8619 227.624 69.0599 230.951C65.2579 234.278 53.8519 249.486 53.8519 249.486L57.0979 252.529Z" fill="white"/>
</g>
<mask id="mask11_863_468" style="mask-type:luminance" maskUnits="userSpaceOnUse" x="7" y="24" width="397" height="245">
<path d="M7.27698 249.485L46.803 192.555L70.029 185.587L75.201 167.706C77.648 159.247 83.52 152.195 91.396 148.257L100.996 119.007L130.415 112.039L164.329 43.2441L186.78 42.4701L207.683 32.4061L226.263 24.6641L246.392 47.8901L264.972 92.0191L292.219 111.266L320.09 167.008C344.066 175.807 364.473 192.261 378.157 213.825L403.973 254.509L145.898 268.426L7.27698 249.485Z" fill="white"/>
</mask>
<g mask="url(#mask11_863_468)">
<path opacity="0.8" d="M120.379 229.891C119.929 228.163 119.479 226.435 119.03 224.707C116.926 230.155 114.822 235.604 112.719 241.052C111.526 244.142 110.316 247.318 110.302 250.63C110.288 253.942 112.699 257.454 115.634 258.989C114.891 253.427 116.141 247.887 119.062 243.095C121.982 238.303 125.641 233.969 128.264 229.008C133.917 218.317 135.804 205.431 139.976 194.138C136.295 194.244 132.013 206.899 130.326 210.233C127.01 216.787 123.694 223.339 120.379 229.891Z" fill="white"/>
</g>
<mask id="mask12_863_468" style="mask-type:luminance" maskUnits="userSpaceOnUse" x="7" y="24" width="397" height="245">
<path d="M7.27698 249.485L46.803 192.555L70.029 185.587L75.201 167.706C77.648 159.247 83.52 152.195 91.396 148.257L100.996 119.007L130.415 112.039L164.329 43.2441L186.78 42.4701L207.683 32.4061L226.263 24.6641L246.392 47.8901L264.972 92.0191L292.219 111.266L320.09 167.008C344.066 175.807 364.473 192.261 378.157 213.825L403.973 254.509L145.898 268.426L7.27698 249.485Z" fill="white"/>
</mask>
<g mask="url(#mask12_863_468)">
<g opacity="0.8">
<path d="M177.891 171.545C179.11 166.365 179.823 159.39 181.042 154.21C173.892 162.683 172.819 175.037 165.724 183.555C162.653 187.241 158.607 190.007 155.455 193.624C150.607 199.187 148.166 206.39 145.838 213.392C140.657 228.974 135.406 245.267 137.805 261.511C142.667 250.013 142.724 244.733 151.753 233.327C157.017 226.678 159.008 211.371 163.244 204.024C167.925 195.905 172.411 194.902 173.233 188.856C173.94 183.658 175.097 178.532 177.045 173.662L177.891 171.545Z" fill="white"/>
</g>
</g>
<mask id="mask13_863_468" style="mask-type:luminance" maskUnits="userSpaceOnUse" x="7" y="24" width="397" height="245">
<path d="M7.27698 249.485L46.803 192.555L70.029 185.587L75.201 167.706C77.648 159.247 83.52 152.195 91.396 148.257L100.996 119.007L130.415 112.039L164.329 43.2441L186.78 42.4701L207.683 32.4061L226.263 24.6641L246.392 47.8901L264.972 92.0191L292.219 111.266L320.09 167.008C344.066 175.807 364.473 192.261 378.157 213.825L403.973 254.509L145.898 268.426L7.27698 249.485Z" fill="white"/>
</mask>
<g mask="url(#mask13_863_468)">
<path opacity="0.8" d="M248.927 140.329C253.248 149.977 258.684 158.238 263.911 166.792C268.615 174.489 282.216 176.843 286.632 184.708C297.653 204.336 304.446 210.938 311.186 225.332C314.523 224.638 317.86 223.945 321.198 223.251C313.911 209.056 304.757 195.82 294.046 183.993C299.619 185.429 311.016 186.078 311.142 184.966C300.834 182.236 297.216 179.53 288.149 173.921C275.286 165.963 257.79 153.777 249.235 141.299" fill="white"/>
</g>
<mask id="mask14_863_468" style="mask-type:luminance" maskUnits="userSpaceOnUse" x="7" y="24" width="397" height="245">
<path d="M7.27698 249.485L46.803 192.555L70.029 185.587L75.201 167.706C77.648 159.247 83.52 152.195 91.396 148.257L100.996 119.007L130.415 112.039L164.329 43.2441L186.78 42.4701L207.683 32.4061L226.263 24.6641L246.392 47.8901L264.972 92.0191L292.219 111.266L320.09 167.008C344.066 175.807 364.473 192.261 378.157 213.825L403.973 254.509L145.898 268.426L7.27698 249.485Z" fill="white"/>
</mask>
<g mask="url(#mask14_863_468)">
<path opacity="0.8" d="M307.075 174.363C307.411 175.291 307.746 176.218 308.082 177.146C303.289 176.686 298.496 176.225 293.703 175.764C300.413 178.833 307.345 182.064 312.147 187.666C314.451 190.353 316.395 193.674 319.701 194.937C321.416 195.592 323.309 195.602 325.076 196.1C330.813 197.719 333.828 203.839 336.156 209.326C339.515 207.519 342.874 205.712 346.233 203.905C343.242 204.047 340.408 202.317 338.482 200.025C336.556 197.732 335.382 194.918 334.237 192.151C333.644 190.718 333.039 189.159 333.419 187.655C333.799 186.151 335.659 184.961 336.943 185.832C336.742 183.546 333.946 182.685 331.775 181.939C329.605 181.193 327.258 178.765 328.689 176.971C329.957 175.382 332.489 176.492 334.133 177.688C327.801 173.467 314.087 171.705 307.075 174.363Z" fill="white"/>
</g>
<mask id="mask15_863_468" style="mask-type:luminance" maskUnits="userSpaceOnUse" x="7" y="24" width="397" height="245">
<path d="M7.27698 249.485L46.803 192.555L70.029 185.587L75.201 167.706C77.648 159.247 83.52 152.195 91.396 148.257L100.996 119.007L130.415 112.039L164.329 43.2441L186.78 42.4701L207.683 32.4061L226.263 24.6641L246.392 47.8901L264.972 92.0191L292.219 111.266L320.09 167.008C344.066 175.807 364.473 192.261 378.157 213.825L403.973 254.509L145.898 268.426L7.27698 249.485Z" fill="white"/>
</mask>
<g mask="url(#mask15_863_468)">
<path d="M122.713 190.217C121.991 191.263 121.27 192.308 120.549 193.354C123.797 191.56 127.584 190.757 131.28 191.077C130.826 191.841 130.372 192.605 129.919 193.369C132.931 191.699 135.943 190.029 138.956 188.359C139.099 189.508 139.243 190.657 139.386 191.807C143.613 187.365 147.84 182.923 152.066 178.481C135.834 180.699 118.926 183.9 103.563 189.724C105.753 189.944 121.672 191.725 122.713 190.217Z" fill="#92E3A9"/>
<path opacity="0.8" d="M122.713 190.217C121.991 191.263 121.27 192.308 120.549 193.354C123.797 191.56 127.584 190.757 131.28 191.077C130.826 191.841 130.372 192.605 129.919 193.369C132.931 191.699 135.943 190.029 138.956 188.359C139.099 189.508 139.243 190.657 139.386 191.807C143.613 187.365 147.84 182.923 152.066 178.481C135.834 180.699 118.926 183.9 103.563 189.724C105.753 189.944 121.672 191.725 122.713 190.217Z" fill="white"/>
</g>
<mask id="mask16_863_468" style="mask-type:luminance" maskUnits="userSpaceOnUse" x="7" y="24" width="397" height="245">
<path d="M7.27698 249.485L46.803 192.555L70.029 185.587L75.201 167.706C77.648 159.247 83.52 152.195 91.396 148.257L100.996 119.007L130.415 112.039L164.329 43.2441L186.78 42.4701L207.683 32.4061L226.263 24.6641L246.392 47.8901L264.972 92.0191L292.219 111.266L320.09 167.008C344.066 175.807 364.473 192.261 378.157 213.825L403.973 254.509L145.898 268.426L7.27698 249.485Z" fill="white"/>
</mask>
<g mask="url(#mask16_863_468)">
<path d="M181.628 95.498C183.444 94.044 186.341 95.312 187.468 97.348C188.595 99.384 188.515 101.838 188.599 104.163C188.683 106.488 189.07 109.028 190.799 110.584C189.081 106.548 191.561 101.713 195.232 99.311C198.903 96.91 203.439 96.346 207.796 95.844C205.307 92.312 201.226 89.95 196.924 89.55C195.5 89.418 193.883 89.415 192.91 88.367C192.306 87.717 192.1 86.802 191.918 85.934C190.551 79.432 189.185 72.93 187.818 66.428C187.572 69.742 186.813 73.018 185.577 76.102C187.303 71.795 179.524 60.597 175.046 62.948C182.184 70.116 182.411 86.029 181.628 95.498Z" fill="#92E3A9"/>
<path opacity="0.8" d="M181.628 95.498C183.444 94.044 186.341 95.312 187.468 97.348C188.595 99.384 188.515 101.838 188.599 104.163C188.683 106.488 189.07 109.028 190.799 110.584C189.081 106.548 191.561 101.713 195.232 99.311C198.903 96.91 203.439 96.346 207.796 95.844C205.307 92.312 201.226 89.95 196.924 89.55C195.5 89.418 193.883 89.415 192.91 88.367C192.306 87.717 192.1 86.802 191.918 85.934C190.551 79.432 189.185 72.93 187.818 66.428C187.572 69.742 186.813 73.018 185.577 76.102C187.303 71.795 179.524 60.597 175.046 62.948C182.184 70.116 182.411 86.029 181.628 95.498Z" fill="white"/>
</g>
<mask id="mask17_863_468" style="mask-type:luminance" maskUnits="userSpaceOnUse" x="7" y="24" width="397" height="245">
<path d="M7.27698 249.485L46.803 192.555L70.029 185.587L75.201 167.706C77.648 159.247 83.52 152.195 91.396 148.257L100.996 119.007L130.415 112.039L164.329 43.2441L186.78 42.4701L207.683 32.4061L226.263 24.6641L246.392 47.8901L264.972 92.0191L292.219 111.266L320.09 167.008C344.066 175.807 364.473 192.261 378.157 213.825L403.973 254.509L145.898 268.426L7.27698 249.485Z" fill="white"/>
</mask>
<g mask="url(#mask17_863_468)">
<path d="M190.849 47.2161C197.61 53.2731 201.53 61.8001 205.267 70.0721C209.027 78.3961 212.788 86.7211 216.548 95.0451C218.96 92.2601 219.544 88.0271 217.977 84.6921C218.237 90.8841 224.447 96.1531 230.599 95.4001C230.434 90.7681 230.27 86.1361 230.105 81.5041C232.11 85.2601 234.115 89.0161 236.12 92.7721C236.188 86.7991 235.378 80.8181 233.723 75.0781C237.168 77.9351 238.263 82.6451 239.939 86.7951C241.614 90.9451 244.89 95.2761 249.363 95.1411C250.751 94.9011 251.328 97.2341 250.234 98.1211C249.14 99.0081 247.504 98.6841 246.238 98.0651C244.972 97.4461 243.775 96.5651 242.373 96.4291C238.811 96.0851 236.849 100.282 234.431 102.919C230.289 107.437 223.41 107.797 217.281 107.842C216.722 98.2381 202.791 88.4691 202.128 85.9971C196.9 66.5121 199.669 57.7431 191.213 48.8461C192 49.6651 192.787 50.4851 193.573 51.3041" fill="#92E3A9"/>
<path opacity="0.8" d="M190.849 47.2161C197.61 53.2731 201.53 61.8001 205.267 70.0721C209.027 78.3961 212.788 86.7211 216.548 95.0451C218.96 92.2601 219.544 88.0271 217.977 84.6921C218.237 90.8841 224.447 96.1531 230.599 95.4001C230.434 90.7681 230.27 86.1361 230.105 81.5041C232.11 85.2601 234.115 89.0161 236.12 92.7721C236.188 86.7991 235.378 80.8181 233.723 75.0781C237.168 77.9351 238.263 82.6451 239.939 86.7951C241.614 90.9451 244.89 95.2761 249.363 95.1411C250.751 94.9011 251.328 97.2341 250.234 98.1211C249.14 99.0081 247.504 98.6841 246.238 98.0651C244.972 97.4461 243.775 96.5651 242.373 96.4291C238.811 96.0851 236.849 100.282 234.431 102.919C230.289 107.437 223.41 107.797 217.281 107.842C216.722 98.2381 202.791 88.4691 202.128 85.9971C196.9 66.5121 199.669 57.7431 191.213 48.8461C192 49.6651 192.787 50.4851 193.573 51.3041" fill="white"/>
</g>
<mask id="mask18_863_468" style="mask-type:luminance" maskUnits="userSpaceOnUse" x="7" y="24" width="397" height="245">
<path d="M7.27698 249.485L46.803 192.555L70.029 185.587L75.201 167.706C77.648 159.247 83.52 152.195 91.396 148.257L100.996 119.007L130.415 112.039L164.329 43.2441L186.78 42.4701L207.683 32.4061L226.263 24.6641L246.392 47.8901L264.972 92.0191L292.219 111.266L320.09 167.008C344.066 175.807 364.473 192.261 378.157 213.825L403.973 254.509L145.898 268.426L7.27698 249.485Z" fill="white"/>
</mask>
<g mask="url(#mask18_863_468)">
<path d="M213.727 43.0871C216.873 44.1411 220.33 44.0051 223.453 45.1251C223.819 43.4071 223.782 41.6041 223.347 39.9021C225.351 43.0201 226.555 46.6471 226.814 50.3451C218.464 50.4391 210.113 50.5321 201.763 50.6261C201.094 49.8911 200.424 49.1551 199.755 48.4201C201.206 47.5171 202.658 46.6131 204.109 45.7091C205.589 47.4381 208.253 48.0241 210.322 47.0781C208.836 44.9241 207.2 41.8481 207.828 39.4081C210.001 39.8861 211.309 42.2771 213.727 43.0871Z" fill="#92E3A9"/>
<path opacity="0.8" d="M213.727 43.0871C216.873 44.1411 220.33 44.0051 223.453 45.1251C223.819 43.4071 223.782 41.6041 223.347 39.9021C225.351 43.0201 226.555 46.6471 226.814 50.3451C218.464 50.4391 210.113 50.5321 201.763 50.6261C201.094 49.8911 200.424 49.1551 199.755 48.4201C201.206 47.5171 202.658 46.6131 204.109 45.7091C205.589 47.4381 208.253 48.0241 210.322 47.0781C208.836 44.9241 207.2 41.8481 207.828 39.4081C210.001 39.8861 211.309 42.2771 213.727 43.0871Z" fill="white"/>
</g>
<mask id="mask19_863_468" style="mask-type:luminance" maskUnits="userSpaceOnUse" x="7" y="24" width="397" height="245">
<path d="M7.27698 249.485L46.803 192.555L70.029 185.587L75.201 167.706C77.648 159.247 83.52 152.195 91.396 148.257L100.996 119.007L130.415 112.039L164.329 43.2441L186.78 42.4701L207.683 32.4061L226.263 24.6641L246.392 47.8901L264.972 92.0191L292.219 111.266L320.09 167.008C344.066 175.807 364.473 192.261 378.157 213.825L403.973 254.509L145.898 268.426L7.27698 249.485Z" fill="white"/>
</mask>
<g mask="url(#mask19_863_468)">
<path d="M148.901 129.247C148.901 129.247 149.852 137.326 147.95 143.505C146.049 149.683 150.802 151.109 156.029 143.98C161.257 136.851 162.207 133.525 156.98 131.148C151.753 128.772 148.901 129.247 148.901 129.247Z" fill="#92E3A9"/>
<path opacity="0.8" d="M148.901 129.247C148.901 129.247 149.852 137.326 147.95 143.505C146.049 149.683 150.802 151.109 156.029 143.98C161.257 136.851 162.207 133.525 156.98 131.148C151.753 128.772 148.901 129.247 148.901 129.247Z" fill="white"/>
</g>
<mask id="mask20_863_468" style="mask-type:luminance" maskUnits="userSpaceOnUse" x="7" y="24" width="397" height="245">
<path d="M7.27698 249.485L46.803 192.555L70.029 185.587L75.201 167.706C77.648 159.247 83.52 152.195 91.396 148.257L100.996 119.007L130.415 112.039L164.329 43.2441L186.78 42.4701L207.683 32.4061L226.263 24.6641L246.392 47.8901L264.972 92.0191L292.219 111.266L320.09 167.008C344.066 175.807 364.473 192.261 378.157 213.825L403.973 254.509L145.898 268.426L7.27698 249.485Z" fill="white"/>
</mask>
<g mask="url(#mask20_863_468)">
<path d="M109.931 131.148C109.931 131.148 113.258 139.227 112.783 144.93C112.308 150.633 117.06 144.455 117.06 144.455L115.634 153.01C115.634 153.01 122.763 143.505 121.812 138.277C120.861 133.049 109.931 131.148 109.931 131.148Z" fill="#92E3A9"/>
<path opacity="0.8" d="M109.931 131.148C109.931 131.148 113.258 139.227 112.783 144.93C112.308 150.633 117.06 144.455 117.06 144.455L115.634 153.01C115.634 153.01 122.763 143.505 121.812 138.277C120.861 133.049 109.931 131.148 109.931 131.148Z" fill="white"/>
</g>
<mask id="mask21_863_468" style="mask-type:luminance" maskUnits="userSpaceOnUse" x="7" y="24" width="397" height="245">
<path d="M7.27698 249.485L46.803 192.555L70.029 185.587L75.201 167.706C77.648 159.247 83.52 152.195 91.396 148.257L100.996 119.007L130.415 112.039L164.329 43.2441L186.78 42.4701L207.683 32.4061L226.263 24.6641L246.392 47.8901L264.972 92.0191L292.219 111.266L320.09 167.008C344.066 175.807 364.473 192.261 378.157 213.825L403.973 254.509L145.898 268.426L7.27698 249.485Z" fill="white"/>
</mask>
<g mask="url(#mask21_863_468)">
<path d="M307.001 160.512C306.363 158.313 302.69 158.007 301.696 160.07C302.683 158.135 300.331 156.32 298.804 154.775C294.883 150.809 295.749 144.33 296.89 138.872C292.309 141.826 289.788 147.67 290.783 153.029C289.857 151.059 287.271 150.066 285.265 150.91C283.259 151.754 282.16 154.297 282.92 156.336C280.287 156.768 277.6 157.201 274.964 156.788C272.328 156.375 269.703 154.963 268.518 152.573C267.936 151.4 267.32 149.768 266.017 149.9C265.134 149.99 264.613 150.901 263.91 151.442C261.663 153.172 258.466 150.681 257.438 148.038C256.41 145.395 256.11 142.203 253.868 140.466C253.731 142.317 253.594 144.169 253.457 146.02L253.805 148.459C257.263 155.107 260.72 161.754 264.178 168.402C265.02 166.095 266.161 163.496 268.516 162.799C270.568 162.192 272.685 163.3 274.603 164.249C282.841 168.329 292.24 170.03 301.385 169.096C301.827 167.406 302.269 165.715 302.711 164.025C307.155 165.657 311.599 167.29 316.043 168.922C313.029 166.12 310.015 163.316 307.001 160.512Z" fill="#92E3A9"/>
</g>
<mask id="mask22_863_468" style="mask-type:luminance" maskUnits="userSpaceOnUse" x="7" y="24" width="397" height="245">
<path d="M7.27698 249.485L46.803 192.555L70.029 185.587L75.201 167.706C77.648 159.247 83.52 152.195 91.396 148.257L100.996 119.007L130.415 112.039L164.329 43.2441L186.78 42.4701L207.683 32.4061L226.263 24.6641L246.392 47.8901L264.972 92.0191L292.219 111.266L320.09 167.008C344.066 175.807 364.473 192.261 378.157 213.825L403.973 254.509L145.898 268.426L7.27698 249.485Z" fill="white"/>
</mask>
<g mask="url(#mask22_863_468)">
<path opacity="0.8" d="M307.001 160.512C306.363 158.313 302.69 158.007 301.696 160.07C302.683 158.135 300.331 156.32 298.804 154.775C294.883 150.809 295.749 144.33 296.89 138.872C292.309 141.826 289.788 147.67 290.783 153.029C289.857 151.059 287.271 150.066 285.265 150.91C283.259 151.754 282.16 154.297 282.92 156.336C280.287 156.768 277.6 157.201 274.964 156.788C272.328 156.375 269.703 154.963 268.518 152.573C267.936 151.4 267.32 149.768 266.017 149.9C265.134 149.99 264.613 150.901 263.91 151.442C261.663 153.172 258.466 150.681 257.438 148.038C256.41 145.395 256.11 142.203 253.868 140.466C253.731 142.317 253.594 144.169 253.457 146.02L253.805 148.459C257.263 155.107 260.72 161.754 264.178 168.402C265.02 166.095 266.161 163.496 268.516 162.799C270.568 162.192 272.685 163.3 274.603 164.249C282.841 168.329 292.24 170.03 301.385 169.096C301.827 167.406 302.269 165.715 302.711 164.025C307.155 165.657 311.599 167.29 316.043 168.922C313.029 166.12 310.015 163.316 307.001 160.512Z" fill="white"/>
</g>
<path d="M7.27698 249.485L46.803 192.555L70.029 185.587L75.201 167.706C77.648 159.247 83.52 152.195 91.396 148.257L100.996 119.007L130.415 112.039L164.329 43.2441L186.78 42.4701L207.683 32.4061L226.263 24.6641L246.392 47.8901L264.972 92.0191L292.219 111.266L320.09 167.008C344.066 175.807 364.473 192.261 378.157 213.825L403.973 254.509L145.898 268.426L7.27698 249.485Z" stroke="#92E3A9" stroke-miterlimit="10" stroke-linecap="round" stroke-linejoin="round"/>
<path d="M117.866 226.574C115.081 236.653 112.295 246.732 109.51 256.811" stroke="#92E3A9" stroke-miterlimit="10" stroke-linecap="round" stroke-linejoin="round"/>
<path d="M243.424 114.725C249.306 111.69 255.187 108.656 261.068 105.621" stroke="#92E3A9" stroke-miterlimit="10" stroke-linecap="round" stroke-linejoin="round"/>
<path d="M256.844 129.695C260.485 126.29 264.688 123.488 269.231 121.437C273.151 119.667 277.835 121.157 282.136 121.123" stroke="#92E3A9" stroke-miterlimit="10" stroke-linecap="round" stroke-linejoin="round"/>
<path d="M57.098 252.529C63.931 242.346 75.398 233.603 77.568 221.533C78.709 215.187 79.85 208.841 80.99 202.495" stroke="#92E3A9" stroke-miterlimit="10" stroke-linecap="round" stroke-linejoin="round"/>
<path d="M167.911 47.505L173.139 56.535C173.139 56.535 166.961 59.862 165.535 67.466C164.109 75.07 163.634 91.704 163.634 91.704C163.634 91.704 158.406 93.605 156.505 98.357C154.604 103.11 153.178 115.466 153.178 115.466L182.168 118.318L202.128 114.516" stroke="#92E3A9" stroke-miterlimit="10" stroke-linecap="round" stroke-linejoin="round"/>
<path d="M188.346 47.03L194.524 53.683L201.653 86L210.683 92.178L216.386 107.861L234.445 105.485C234.445 105.485 235.396 98.832 240.148 97.881C244.9 96.93 247.277 100.257 247.277 100.257L252.03 97.405" stroke="#92E3A9" stroke-miterlimit="10" stroke-linecap="round" stroke-linejoin="round"/>
<path d="M202.604 51.782H224.941L230.169 49.406C230.169 49.406 234.446 51.782 237.298 50.832C240.15 49.882 243.952 49.881 243.952 49.881" fill="white"/>
<path d="M202.604 51.782H224.941L230.169 49.406C230.169 49.406 234.446 51.782 237.298 50.832C240.15 49.882 243.952 49.881 243.952 49.881" stroke="#92E3A9" stroke-miterlimit="10" stroke-linecap="round" stroke-linejoin="round"/>
<path d="M288.148 113.089L277.217 115.941C277.217 115.941 262.009 114.99 258.207 114.99C254.405 114.99 246.801 127.346 246.801 127.346L218.286 128.772L189.296 135.425C189.296 135.425 167.435 135.9 164.108 132.574C160.781 129.247 148.425 126.396 148.425 126.396L137.494 133.05L125.613 134.951L108.504 125.921" stroke="#92E3A9" stroke-miterlimit="10" stroke-linecap="round" stroke-linejoin="round"/>
<path d="M74.287 186.277L99.475 188.653L118.96 180.098C118.96 180.098 129.891 176.771 147.475 175.821" stroke="#92E3A9" stroke-miterlimit="10" stroke-linecap="round" stroke-linejoin="round"/>
<path d="M275.317 164.891C275.317 164.891 293.852 169.168 301.456 168.218C301.456 168.218 300.506 163.465 304.308 163.465C308.11 163.465 311.437 168.218 311.437 168.218L317.14 167.743" stroke="#92E3A9" stroke-miterlimit="10" stroke-linecap="round" stroke-linejoin="round"/>
<path d="M248.703 140.178L263.911 166.792L286.723 183.901L305.257 215.743L310.01 224.297" stroke="#92E3A9" stroke-miterlimit="10" stroke-linecap="round" stroke-linejoin="round"/>
<path d="M336.624 208.614C336.624 208.614 333.772 203.386 330.446 198.634C327.119 193.881 319.515 195.307 319.515 195.307L311.911 185.327L287.198 173.446" stroke="#92E3A9" stroke-miterlimit="10" stroke-linecap="round" stroke-linejoin="round"/>
<path d="M145.099 185.802C145.099 185.802 137.495 199.109 134.644 210.515C131.792 221.921 128.466 230.475 128.466 230.475C128.466 230.475 122.288 236.653 119.436 241.406C116.585 246.158 115.634 257.089 115.634 257.089" stroke="#92E3A9" stroke-miterlimit="10" stroke-linecap="round" stroke-linejoin="round"/>
<path d="M139.143 261.792C140.327 251.149 144.899 240.941 151.936 232.882L160.219 206.231C162.393 199.235 166.946 196.22 173.088 192.227V189.227L178.316 169.742" stroke="#92E3A9" stroke-miterlimit="10" stroke-linecap="round" stroke-linejoin="round"/>
<path d="M449.854 222.632C449.582 227.323 449.115 231.961 448.475 236.555C447.628 242.626 446.466 248.621 445 254.507C441.568 268.343 436.464 281.646 429.904 294.233C426.831 300.163 423.42 305.929 419.706 311.512C344.608 313.793 189.797 315.617 141.198 294.255H141.187C140.698 294.038 140.231 293.821 139.764 293.603C139.308 293.386 138.852 293.158 138.407 292.941C137.788 292.626 137.191 292.311 136.615 291.985C136.615 291.985 136.615 291.985 136.604 291.985C136.028 291.659 135.475 291.333 134.942 291.008C134.909 290.997 134.877 290.975 134.844 290.954C134.344 290.628 133.867 290.313 133.41 289.998C132.444 289.314 131.553 288.608 130.771 287.891C130.576 287.706 130.391 287.522 130.206 287.348C130.021 287.174 129.859 287.001 129.685 286.816C129.685 286.816 129.674 286.805 129.674 286.794C129.326 286.425 129.001 286.045 128.718 285.665C128.566 285.47 128.425 285.285 128.294 285.089C128.023 284.698 127.784 284.307 127.566 283.916C127.446 283.71 127.349 283.493 127.24 283.286C127.218 283.232 127.186 283.167 127.153 283.101C127.055 282.862 126.958 282.634 126.871 282.395C126.784 282.145 126.697 281.885 126.621 281.624C126.556 281.363 126.491 281.103 126.436 280.842C126.382 280.527 126.327 280.212 126.295 279.886C126.143 278.398 126.328 276.834 126.881 275.205C126.968 274.944 127.066 274.694 127.163 274.434C127.467 273.652 127.847 272.859 128.325 272.045C128.64 271.513 128.988 270.97 129.368 270.427C129.553 270.155 129.759 269.873 129.976 269.591C130.606 268.755 131.312 267.908 132.126 267.039V267.028C132.408 266.735 132.68 266.452 132.962 266.159C132.962 266.159 132.962 266.159 132.973 266.148C133.027 266.115 133.201 266.018 133.494 265.866C133.592 265.812 133.711 265.746 133.852 265.671C135.003 265.074 137.316 263.955 140.998 262.446C141.215 262.348 141.432 262.261 141.66 262.174C142.181 261.957 142.735 261.74 143.311 261.501C143.311 261.501 143.311 261.501 143.322 261.501C145.472 260.654 148.003 259.72 150.924 258.699C151.261 258.579 151.597 258.46 151.945 258.341C154.378 257.505 157.082 256.625 160.058 255.702C160.481 255.572 160.905 255.431 161.35 255.3C161.893 255.137 162.447 254.963 163.012 254.8C164.152 254.452 165.325 254.105 166.542 253.757C170.973 252.476 175.892 251.14 181.355 249.771C182.539 249.467 183.755 249.174 184.993 248.87C186.22 248.577 187.48 248.273 188.772 247.969C193.279 246.905 198.101 245.83 203.26 244.754C204.726 244.45 206.236 244.135 207.756 243.831C208.527 243.679 209.287 243.516 210.069 243.364C211.166 243.147 212.273 242.93 213.403 242.712C214.674 242.462 215.955 242.223 217.258 241.973C219.723 241.506 222.243 241.05 224.827 240.583C227.064 240.192 229.356 239.79 231.691 239.388C233.559 239.084 235.449 238.758 237.382 238.454C238.642 238.248 239.934 238.041 241.226 237.835C242.334 237.661 243.442 237.487 244.56 237.314C246.319 237.043 248.1 236.771 249.914 236.5C250.913 236.348 251.912 236.196 252.922 236.055C255.963 235.61 259.058 235.175 262.24 234.741C264.303 234.459 266.388 234.176 268.517 233.894C269.657 233.753 270.809 233.601 271.971 233.449C273.079 233.308 274.186 233.167 275.305 233.025C279.866 232.46 284.558 231.896 289.391 231.342C291.682 231.081 294.007 230.821 296.363 230.571C296.83 230.527 297.297 230.473 297.764 230.419C297.764 230.419 297.764 230.419 297.775 230.419C298.524 230.343 299.284 230.267 300.045 230.18C302.51 229.919 305.019 229.659 307.56 229.409C308.146 229.355 308.733 229.3 309.319 229.235C311.285 229.04 313.261 228.844 315.27 228.659C317.844 228.409 320.461 228.17 323.1 227.942C324.566 227.812 326.043 227.681 327.531 227.551C329.616 227.377 331.723 227.193 333.852 227.019C339.912 226.53 346.135 226.052 352.531 225.585C353.986 225.487 355.452 225.379 356.929 225.281C358.406 225.183 359.894 225.075 361.393 224.977C364.499 224.782 367.638 224.575 370.82 224.38C373.763 224.195 376.75 224.022 379.758 223.859C381.333 223.772 382.907 223.674 384.493 223.598C386.307 223.5 388.131 223.403 389.966 223.305C392.953 223.153 395.961 223.001 399.013 222.86C400.653 222.784 402.304 222.708 403.965 222.632H449.854Z" fill="#92E3A9"/>
<path opacity="0.2" d="M449.854 222.632C449.582 227.323 449.115 231.961 448.475 236.555C447.628 242.626 446.466 248.621 445 254.507C441.568 268.343 436.464 281.646 429.904 294.233C426.831 300.163 423.42 305.929 419.706 311.512C344.608 313.793 189.797 315.617 141.198 294.255H141.187C140.698 294.038 140.231 293.821 139.764 293.603C139.308 293.386 138.852 293.158 138.407 292.941C137.788 292.626 137.191 292.311 136.615 291.985C136.615 291.985 136.615 291.985 136.604 291.985C136.028 291.659 135.475 291.333 134.942 291.008C134.909 290.997 134.877 290.975 134.844 290.954C134.344 290.628 133.867 290.313 133.41 289.998C132.444 289.314 131.553 288.608 130.771 287.891C130.576 287.706 130.391 287.522 130.206 287.348C130.021 287.174 129.859 287.001 129.685 286.816C129.685 286.816 129.674 286.805 129.674 286.794C129.326 286.425 129.001 286.045 128.718 285.665C128.566 285.47 128.425 285.285 128.294 285.089C128.023 284.698 127.784 284.307 127.566 283.916C127.446 283.71 127.349 283.493 127.24 283.286C127.218 283.232 127.186 283.167 127.153 283.101C127.055 282.862 126.958 282.634 126.871 282.395C126.784 282.145 126.697 281.885 126.621 281.624C126.556 281.363 126.491 281.103 126.436 280.842C126.382 280.527 126.327 280.212 126.295 279.886C126.143 278.398 126.328 276.834 126.881 275.205C126.968 274.944 127.066 274.694 127.163 274.434C127.467 273.652 127.847 272.859 128.325 272.045C128.64 271.513 128.988 270.97 129.368 270.427C129.553 270.155 129.759 269.873 129.976 269.591C130.606 268.755 131.312 267.908 132.126 267.039V267.028C132.408 266.735 132.68 266.452 132.962 266.159C132.962 266.159 132.962 266.159 132.973 266.148C133.027 266.115 133.201 266.018 133.494 265.866C133.592 265.812 133.711 265.746 133.852 265.671C135.003 265.074 137.316 263.955 140.998 262.446C141.215 262.348 141.432 262.261 141.66 262.174C142.181 261.957 142.735 261.74 143.311 261.501C143.311 261.501 143.311 261.501 143.322 261.501C145.472 260.654 148.003 259.72 150.924 258.699C151.261 258.579 151.597 258.46 151.945 258.341C154.378 257.505 157.082 256.625 160.058 255.702C160.481 255.572 160.905 255.431 161.35 255.3C161.893 255.137 162.447 254.963 163.012 254.8C164.152 254.452 165.325 254.105 166.542 253.757C170.973 252.476 175.892 251.14 181.355 249.771C182.539 249.467 183.755 249.174 184.993 248.87C186.22 248.577 187.48 248.273 188.772 247.969C193.279 246.905 198.101 245.83 203.26 244.754C204.726 244.45 206.236 244.135 207.756 243.831C208.527 243.679 209.287 243.516 210.069 243.364C211.166 243.147 212.273 242.93 213.403 242.712C214.674 242.462 215.955 242.223 217.258 241.973C219.723 241.506 222.243 241.05 224.827 240.583C227.064 240.192 229.356 239.79 231.691 239.388C233.559 239.084 235.449 238.758 237.382 238.454C238.642 238.248 239.934 238.041 241.226 237.835C242.334 237.661 243.442 237.487 244.56 237.314C246.319 237.043 248.1 236.771 249.914 236.5C250.913 236.348 251.912 236.196 252.922 236.055C255.963 235.61 259.058 235.175 262.24 234.741C264.303 234.459 266.388 234.176 268.517 233.894C269.657 233.753 270.809 233.601 271.971 233.449C273.079 233.308 274.186 233.167 275.305 233.025C279.866 232.46 284.558 231.896 289.391 231.342C291.682 231.081 294.007 230.821 296.363 230.571C296.83 230.527 297.297 230.473 297.764 230.419C297.764 230.419 297.764 230.419 297.775 230.419C298.524 230.343 299.284 230.267 300.045 230.18C302.51 229.919 305.019 229.659 307.56 229.409C308.146 229.355 308.733 229.3 309.319 229.235C311.285 229.04 313.261 228.844 315.27 228.659C317.844 228.409 320.461 228.17 323.1 227.942C324.566 227.812 326.043 227.681 327.531 227.551C329.616 227.377 331.723 227.193 333.852 227.019C339.912 226.53 346.135 226.052 352.531 225.585C353.986 225.487 355.452 225.379 356.929 225.281C358.406 225.183 359.894 225.075 361.393 224.977C364.499 224.782 367.638 224.575 370.82 224.38C373.763 224.195 376.75 224.022 379.758 223.859C381.333 223.772 382.907 223.674 384.493 223.598C386.307 223.5 388.131 223.403 389.966 223.305C392.953 223.153 395.961 223.001 399.013 222.86C400.653 222.784 402.304 222.708 403.965 222.632H449.854Z" fill="white"/>
<path d="M449.854 222.632C449.582 227.323 449.115 231.961 448.475 236.555C447.628 242.626 446.466 248.621 445 254.507H403.97C327.732 257.928 271.324 264.487 230.317 271.514H230.306C180.502 280.039 153.427 289.238 141.199 294.255H141.188C140.699 294.038 140.232 293.821 139.765 293.603C139.309 293.386 138.853 293.158 138.408 292.941C137.789 292.626 137.192 292.311 136.616 291.985C136.616 291.985 136.616 291.985 136.605 291.985C136.029 291.659 135.476 291.333 134.943 291.008C134.91 290.997 134.878 290.975 134.845 290.954C134.345 290.628 133.868 290.313 133.411 289.998C132.434 289.325 131.554 288.619 130.772 287.891C130.577 287.706 130.392 287.522 130.207 287.348C130.022 287.174 129.86 287.001 129.686 286.816C129.686 286.816 129.675 286.805 129.675 286.794C129.327 286.425 129.002 286.045 128.719 285.665C128.567 285.47 128.426 285.285 128.295 285.089C128.024 284.709 127.774 284.318 127.567 283.916C127.447 283.71 127.35 283.493 127.241 283.286C127.219 283.232 127.187 283.167 127.154 283.101C127.056 282.862 126.959 282.634 126.872 282.395C126.785 282.145 126.698 281.885 126.622 281.624C126.557 281.363 126.492 281.103 126.437 280.842C126.383 280.527 126.328 280.212 126.296 279.886C126.144 278.398 126.329 276.834 126.882 275.205C126.969 274.944 127.067 274.694 127.164 274.434C127.468 273.652 127.848 272.859 128.326 272.045C128.63 271.513 128.978 270.97 129.369 270.427C129.554 270.155 129.76 269.873 129.977 269.591C130.607 268.755 131.313 267.908 132.127 267.039V267.028C132.388 266.746 132.67 266.452 132.952 266.159C132.952 266.159 132.952 266.159 132.963 266.159C132.963 266.159 132.963 266.159 132.974 266.148C133.028 266.115 133.202 266.018 133.495 265.866C133.593 265.812 133.712 265.746 133.853 265.671C135.004 265.074 137.317 263.955 140.999 262.446C141.216 262.348 141.433 262.261 141.661 262.174C142.182 261.957 142.736 261.74 143.312 261.501C143.312 261.501 143.312 261.501 143.323 261.501C145.473 260.654 148.004 259.72 150.925 258.699C151.262 258.579 151.598 258.46 151.946 258.341C154.379 257.505 157.083 256.625 160.059 255.702C160.482 255.572 160.906 255.431 161.351 255.3C161.894 255.137 162.448 254.963 163.013 254.8C164.153 254.452 165.326 254.105 166.543 253.757C170.974 252.476 175.893 251.14 181.356 249.771C182.54 249.467 183.756 249.174 184.994 248.87C186.221 248.577 187.481 248.273 188.773 247.969C193.28 246.905 198.102 245.83 203.261 244.754C204.727 244.45 206.237 244.135 207.757 243.831C208.528 243.679 209.288 243.516 210.07 243.364C211.167 243.147 212.274 242.93 213.404 242.712C214.675 242.462 215.956 242.223 217.259 241.973C219.724 241.506 222.244 241.05 224.828 240.583C227.065 240.192 229.357 239.79 231.692 239.388C233.56 239.084 235.45 238.758 237.383 238.454C238.643 238.248 239.935 238.041 241.227 237.835C242.335 237.661 243.443 237.487 244.561 237.314C246.32 237.043 248.101 236.771 249.915 236.5C250.914 236.348 251.913 236.196 252.923 236.055C255.964 235.61 259.059 235.175 262.241 234.741C264.304 234.459 266.389 234.176 268.518 233.894C269.658 233.753 270.81 233.601 271.972 233.449C273.08 233.308 274.187 233.167 275.306 233.025C279.867 232.46 284.559 231.896 289.392 231.342C291.683 231.092 294.008 230.832 296.364 230.571C296.831 230.527 297.298 230.473 297.765 230.419C297.765 230.419 297.765 230.419 297.776 230.419C298.525 230.343 299.285 230.267 300.046 230.18C302.511 229.919 305.02 229.67 307.561 229.409C308.147 229.355 308.734 229.3 309.32 229.235C311.286 229.04 313.262 228.855 315.271 228.659C317.845 228.42 320.451 228.181 323.101 227.942C324.567 227.812 326.044 227.681 327.532 227.551C329.617 227.377 331.724 227.193 333.853 227.019C339.913 226.53 346.136 226.052 352.532 225.585C353.987 225.487 355.453 225.379 356.93 225.281C358.407 225.183 359.895 225.075 361.394 224.977C364.5 224.782 367.639 224.575 370.821 224.38C373.764 224.195 376.751 224.022 379.759 223.859C381.334 223.772 382.908 223.674 384.494 223.598C386.308 223.5 388.132 223.403 389.967 223.305C392.954 223.153 395.962 223.001 399.014 222.86C400.654 222.784 402.305 222.708 403.966 222.632H449.854Z" fill="#92E3A9"/>
<path opacity="0.3" d="M449.854 222.632C449.582 227.323 449.115 231.961 448.475 236.555C447.628 242.626 446.466 248.621 445 254.507H403.97C327.732 257.928 271.324 264.487 230.317 271.514H230.306C180.502 280.039 153.427 289.238 141.199 294.255H141.188C140.699 294.038 140.232 293.821 139.765 293.603C139.309 293.386 138.853 293.158 138.408 292.941C137.789 292.626 137.192 292.311 136.616 291.985C136.616 291.985 136.616 291.985 136.605 291.985C136.029 291.659 135.476 291.333 134.943 291.008C134.91 290.997 134.878 290.975 134.845 290.954C134.345 290.628 133.868 290.313 133.411 289.998C132.434 289.325 131.554 288.619 130.772 287.891C130.577 287.706 130.392 287.522 130.207 287.348C130.022 287.174 129.86 287.001 129.686 286.816C129.686 286.816 129.675 286.805 129.675 286.794C129.327 286.425 129.002 286.045 128.719 285.665C128.567 285.47 128.426 285.285 128.295 285.089C128.024 284.709 127.774 284.318 127.567 283.916C127.447 283.71 127.35 283.493 127.241 283.286C127.219 283.232 127.187 283.167 127.154 283.101C127.056 282.862 126.959 282.634 126.872 282.395C126.785 282.145 126.698 281.885 126.622 281.624C126.557 281.363 126.492 281.103 126.437 280.842C126.383 280.527 126.328 280.212 126.296 279.886C126.144 278.398 126.329 276.834 126.882 275.205C126.969 274.944 127.067 274.694 127.164 274.434C127.468 273.652 127.848 272.859 128.326 272.045C128.63 271.513 128.978 270.97 129.369 270.427C129.554 270.155 129.76 269.873 129.977 269.591C130.607 268.755 131.313 267.908 132.127 267.039V267.028C132.388 266.746 132.67 266.452 132.952 266.159C132.952 266.159 132.952 266.159 132.963 266.159C132.963 266.159 132.963 266.159 132.974 266.148C133.028 266.115 133.202 266.018 133.495 265.866C133.593 265.812 133.712 265.746 133.853 265.671C135.004 265.074 137.317 263.955 140.999 262.446C141.216 262.348 141.433 262.261 141.661 262.174C142.182 261.957 142.736 261.74 143.312 261.501C143.312 261.501 143.312 261.501 143.323 261.501C145.473 260.654 148.004 259.72 150.925 258.699C151.262 258.579 151.598 258.46 151.946 258.341C154.379 257.505 157.083 256.625 160.059 255.702C160.482 255.572 160.906 255.431 161.351 255.3C161.894 255.137 162.448 254.963 163.013 254.8C164.153 254.452 165.326 254.105 166.543 253.757C170.974 252.476 175.893 251.14 181.356 249.771C182.54 249.467 183.756 249.174 184.994 248.87C186.221 248.577 187.481 248.273 188.773 247.969C193.28 246.905 198.102 245.83 203.261 244.754C204.727 244.45 206.237 244.135 207.757 243.831C208.528 243.679 209.288 243.516 210.07 243.364C211.167 243.147 212.274 242.93 213.404 242.712C214.675 242.462 215.956 242.223 217.259 241.973C219.724 241.506 222.244 241.05 224.828 240.583C227.065 240.192 229.357 239.79 231.692 239.388C233.56 239.084 235.45 238.758 237.383 238.454C238.643 238.248 239.935 238.041 241.227 237.835C242.335 237.661 243.443 237.487 244.561 237.314C246.32 237.043 248.101 236.771 249.915 236.5C250.914 236.348 251.913 236.196 252.923 236.055C255.964 235.61 259.059 235.175 262.241 234.741C264.304 234.459 266.389 234.176 268.518 233.894C269.658 233.753 270.81 233.601 271.972 233.449C273.08 233.308 274.187 233.167 275.306 233.025C279.867 232.46 284.559 231.896 289.392 231.342C291.683 231.092 294.008 230.832 296.364 230.571C296.831 230.527 297.298 230.473 297.765 230.419C297.765 230.419 297.765 230.419 297.776 230.419C298.525 230.343 299.285 230.267 300.046 230.18C302.511 229.919 305.02 229.67 307.561 229.409C308.147 229.355 308.734 229.3 309.32 229.235C311.286 229.04 313.262 228.855 315.271 228.659C317.845 228.42 320.451 228.181 323.101 227.942C324.567 227.812 326.044 227.681 327.532 227.551C329.617 227.377 331.724 227.193 333.853 227.019C339.913 226.53 346.136 226.052 352.532 225.585C353.987 225.487 355.453 225.379 356.93 225.281C358.407 225.183 359.895 225.075 361.394 224.977C364.5 224.782 367.639 224.575 370.821 224.38C373.764 224.195 376.751 224.022 379.759 223.859C381.334 223.772 382.908 223.674 384.494 223.598C386.308 223.5 388.132 223.403 389.967 223.305C392.954 223.153 395.962 223.001 399.014 222.86C400.654 222.784 402.305 222.708 403.966 222.632H449.854Z" fill="white"/>
<path d="M445 254.506H403.97C327.732 257.927 271.324 264.486 230.317 271.513H230.306C180.502 280.038 153.427 289.237 141.199 294.254" stroke="#515B60" stroke-miterlimit="10"/>
<path d="M419.598 311.674L198.866 318.646L41.0681 323.587C23.0731 300.531 10.5191 273.935 5.03406 245.231C8.12906 245.6 38.57 249.227 81.8801 254.321C91.6001 255.461 101.971 256.678 112.82 257.948C122.627 259.088 132.835 260.283 143.315 261.499C143.315 261.499 143.315 261.499 143.326 261.499C171.139 264.735 200.896 268.156 230.316 271.512C300.353 279.472 368.544 286.966 404.393 290.181C414.515 291.093 422.931 292.527 429.903 294.232C426.83 300.162 423.419 305.928 419.705 311.511L419.598 311.674Z" fill="#92E3A9"/>
<path opacity="0.1" d="M419.598 311.674L198.866 318.646L41.0681 323.587C23.0731 300.531 10.5191 273.935 5.03406 245.231C8.12906 245.6 38.57 249.227 81.8801 254.321C91.6001 255.461 101.971 256.678 112.82 257.948C122.627 259.088 132.835 260.283 143.315 261.499C143.315 261.499 143.315 261.499 143.326 261.499C171.139 264.735 200.896 268.156 230.316 271.512C300.353 279.472 368.544 286.966 404.393 290.181C414.515 291.093 422.931 292.527 429.903 294.232C426.83 300.162 423.419 305.928 419.705 311.511L419.598 311.674Z" fill="#263238"/>
<path d="M5.03503 245.232C8.13003 245.601 38.571 249.228 81.881 254.322C91.601 255.462 101.972 256.679 112.821 257.949C122.628 259.089 132.836 260.284 143.316 261.5C143.316 261.5 143.316 261.5 143.327 261.5C171.14 264.736 200.897 268.157 230.317 271.513C300.354 279.473 368.545 286.967 404.394 290.182C414.516 291.094 422.932 292.528 429.904 294.233" stroke="#515B60" stroke-miterlimit="10"/>
<path d="M318.287 285.162L327.647 268.691L337.231 285.033L318.287 285.162Z" fill="white"/>
<path d="M320.891 284.969L327.628 273.115L334.525 284.876L320.891 284.969Z" fill="#263238"/>
<path d="M327.628 273.115L327.709 285.098" stroke="#3C464C" stroke-miterlimit="10" stroke-linecap="round" stroke-linejoin="round"/>
<path d="M327.647 268.691L337.231 285.033L357.078 284.898L347.494 268.556L327.647 268.691Z" fill="#263238"/>
<path d="M336.597 272.875L340.39 279.341L348.243 279.288L344.451 272.821L336.597 272.875Z" fill="#263238"/>
<path d="M450.158 212.293C450.158 213.249 450.147 214.215 450.125 215.171C450.125 215.584 450.125 215.996 450.103 216.409C450.092 217.082 450.07 217.756 450.049 218.418C450.038 218.82 450.027 219.232 449.995 219.634C449.962 220.633 449.919 221.632 449.854 222.631C449.789 223.684 449.724 224.738 449.637 225.78C449.594 226.41 449.539 227.04 449.474 227.67C449.431 228.311 449.365 228.951 449.3 229.581C449.202 230.613 449.094 231.645 448.963 232.665C448.887 233.382 448.8 234.109 448.702 234.826C448.659 235.206 448.604 235.575 448.55 235.955C448.528 236.15 448.507 236.357 448.474 236.552H448.463C430.24 242.341 387.798 247.76 293.663 231.806C293.663 231.806 295.129 231.393 297.768 230.416C297.768 230.416 297.768 230.416 297.779 230.416C310.474 225.735 350.157 208.185 381.891 162.508C399.658 136.932 417.968 143.481 432.499 157.871C443.599 177.627 450.158 196.426 450.158 212.293Z" fill="#92E3A9"/>
<g opacity="0.2">
<path d="M450.158 212.293C450.158 213.249 450.147 214.215 450.125 215.171C450.125 215.584 450.125 215.996 450.103 216.409C450.092 217.082 450.07 217.756 450.049 218.418C450.038 218.82 450.027 219.232 449.995 219.634C449.962 220.633 449.919 221.632 449.854 222.631C449.789 223.684 449.724 224.738 449.637 225.78C449.594 226.41 449.539 227.04 449.474 227.67C449.431 228.311 449.365 228.951 449.3 229.581C449.202 230.613 449.094 231.645 448.963 232.665C448.887 233.382 448.8 234.109 448.702 234.826C448.659 235.206 448.604 235.575 448.55 235.955C448.528 236.15 448.507 236.357 448.474 236.552H448.463C430.24 242.341 387.798 247.76 293.663 231.806C293.663 231.806 295.129 231.393 297.768 230.416C297.768 230.416 297.768 230.416 297.779 230.416C310.474 225.735 350.157 208.185 381.891 162.508C399.658 136.932 417.968 143.481 432.499 157.871C443.599 177.627 450.158 196.426 450.158 212.293Z" fill="white"/>
</g>
<path d="M448.464 236.554C430.241 242.343 387.799 247.762 293.664 231.808" stroke="#515B60" stroke-miterlimit="10"/>
<path d="M0.755005 277.357L15.733 234.93H5.00801L17.859 198.525H9.26101L30.71 137.762L52.159 198.525H43.561L56.412 234.93H45.688L60.665 277.357H0.755005Z" fill="#92E3A9"/>
<path d="M32.697 304.04L30.279 179.647L29.679 303.289L32.697 304.04Z" fill="#515B60"/>
<path d="M29.979 180.62C29.979 180.62 25.219 188.803 16.665 191.281C16.665 191.281 25.693 189.241 30.212 182.198L29.979 180.62Z" fill="#515B60"/>
<path d="M31.336 247.486C31.336 247.486 22.842 261.83 8.63904 265.971C8.63904 265.971 23.775 262.035 31.279 250.338L31.336 247.486Z" fill="#515B60"/>
<path d="M30.0831 210.547C30.0831 210.547 22.6491 223.188 9.8501 226.895C9.8501 226.895 23.3601 223.843 30.1221 213.302L30.0831 210.547Z" fill="#515B60"/>
<path d="M30.82 219.481C30.82 219.481 37.685 231.715 50.045 235.459C50.045 235.459 37 232.394 30.484 221.866L30.82 219.481Z" fill="#515B60"/>
<path d="M31.91 254.159C31.91 254.159 39.528 267.735 53.244 271.89C53.244 271.89 38.768 268.489 31.537 256.806L31.91 254.159Z" fill="#515B60"/>
<path d="M30.679 183.947C30.679 183.947 35.267 192.122 43.526 194.624C43.526 194.624 34.809 192.576 30.454 185.541L30.679 183.947Z" fill="#515B60"/>
<path d="M353.698 277.317L359.172 261.811H355.252L359.949 248.505H356.806L364.646 226.297L372.485 248.505H369.343L374.04 261.811H370.12L375.594 277.317H353.698Z" fill="#92E3A9"/>
<path d="M365.372 287.07L364.488 241.605L364.269 286.795L365.372 287.07Z" fill="#515B60"/>
<path d="M364.379 241.961C364.379 241.961 362.639 244.952 359.513 245.857C359.513 245.857 362.813 245.112 364.464 242.537L364.379 241.961Z" fill="#515B60"/>
<path d="M364.875 266.4C364.875 266.4 361.771 271.643 356.579 273.156C356.579 273.156 362.111 271.718 364.854 267.442L364.875 266.4Z" fill="#515B60"/>
<path d="M364.417 252.899C364.417 252.899 361.7 257.519 357.022 258.874C357.022 258.874 361.96 257.758 364.431 253.906L364.417 252.899Z" fill="#515B60"/>
<path d="M364.686 256.164C364.686 256.164 367.195 260.635 371.713 262.004C371.713 262.004 366.945 260.884 364.564 257.036L364.686 256.164Z" fill="#515B60"/>
<path d="M365.085 268.839C365.085 268.839 367.869 273.801 372.882 275.319C372.882 275.319 367.591 274.076 364.948 269.806L365.085 268.839Z" fill="#515B60"/>
<path d="M364.635 243.177C364.635 243.177 366.312 246.165 369.33 247.079C369.33 247.079 366.144 246.33 364.553 243.759L364.635 243.177Z" fill="#515B60"/>
<path d="M71.5181 292.469L84.9041 254.549H75.3191L86.8041 222.011H79.1201L98.2901 167.703L117.461 222.011H109.776L121.262 254.549H111.677L125.063 292.469H71.5181Z" fill="#92E3A9"/>
<path d="M100.066 316.317L97.905 205.138L97.368 315.646L100.066 316.317Z" fill="#515B60"/>
<path d="M97.637 206.008C97.637 206.008 93.382 213.322 85.738 215.536C85.738 215.536 93.807 213.713 97.846 207.417L97.637 206.008Z" fill="#515B60"/>
<path d="M98.8501 265.771C98.8501 265.771 91.2591 278.591 78.5641 282.293C78.5641 282.293 92.0931 278.775 98.7991 268.321L98.8501 265.771Z" fill="#515B60"/>
<path d="M97.7301 232.756C97.7301 232.756 91.0861 244.054 79.6461 247.368C79.6461 247.368 91.7211 244.64 97.7651 235.219L97.7301 232.756Z" fill="#515B60"/>
<path d="M98.3881 240.741C98.3881 240.741 104.524 251.675 115.571 255.021C115.571 255.021 103.912 252.282 98.0881 242.872L98.3881 240.741Z" fill="#515B60"/>
<path d="M99.3631 271.734C99.3631 271.734 106.172 283.868 118.431 287.582C118.431 287.582 105.492 284.542 99.0291 274.1L99.3631 271.734Z" fill="#515B60"/>
<path d="M98.2631 208.981C98.2631 208.981 102.363 216.288 109.745 218.524C109.745 218.524 101.954 216.694 98.0621 210.406L98.2631 208.981Z" fill="#515B60"/>
<path d="M374.348 271.883L385.932 239.067H377.637L387.577 210.909H380.926L397.517 163.91L414.107 210.909H407.457L417.397 239.067H409.102L420.686 271.883H374.348Z" fill="#92E3A9"/>
<path d="M399.054 292.522L397.184 196.307L396.719 291.941L399.054 292.522Z" fill="#515B60"/>
<path d="M396.952 197.059C396.952 197.059 393.27 203.389 386.654 205.305C386.654 205.305 393.637 203.727 397.132 198.279L396.952 197.059Z" fill="#515B60"/>
<path d="M398.001 248.778C398.001 248.778 391.431 259.873 380.445 263.076C380.445 263.076 392.153 260.032 397.957 250.984L398.001 248.778Z" fill="#515B60"/>
<path d="M397.032 220.207C397.032 220.207 391.282 229.985 381.382 232.852C381.382 232.852 391.832 230.491 397.062 222.338L397.032 220.207Z" fill="#515B60"/>
<path d="M397.602 227.117C397.602 227.117 402.912 236.579 412.472 239.475C412.472 239.475 402.382 237.105 397.342 228.961L397.602 227.117Z" fill="#515B60"/>
<path d="M398.445 253.94C398.445 253.94 404.338 264.441 414.947 267.655C414.947 267.655 403.75 265.025 398.157 255.988L398.445 253.94Z" fill="#515B60"/>
<path d="M397.493 199.633C397.493 199.633 401.041 205.956 407.43 207.891C407.43 207.891 400.687 206.307 397.319 200.865L397.493 199.633Z" fill="#515B60"/>
<path d="M417.228 312.201C378.327 370.585 306.227 409.79 223.701 409.79C146.898 409.79 79.1199 375.83 38.7419 324.049L417.228 312.201Z" fill="#757575"/>
<path d="M136.67 312.632C138.139 313.908 139.609 315.185 141.079 316.461C140.091 312.479 139.102 308.498 138.114 304.516C139.966 308.317 141.817 312.117 143.669 315.918C143.422 311.794 143.175 307.67 142.928 303.546C144.011 307.898 145.094 312.25 146.177 316.602C147.284 312.118 148.391 307.633 149.497 303.149C149.554 310.7 149.611 318.251 149.668 325.801C146.28 325.92 141.902 327.314 140.086 324.085C138.204 320.742 139.168 316.247 136.67 312.632Z" fill="#92E3A9"/>
<path d="M317.868 307.323C319.822 309.021 321.777 310.718 323.732 312.416C322.418 307.12 321.103 301.825 319.788 296.529C322.251 301.584 324.714 306.639 327.177 311.694C326.848 306.209 326.519 300.724 326.191 295.239C327.631 301.027 329.072 306.816 330.512 312.604C331.984 306.64 333.456 300.676 334.928 294.711C335.003 304.754 335.079 314.797 335.155 324.84C330.648 324.998 324.826 326.853 322.411 322.558C319.909 318.11 321.191 312.131 317.868 307.323Z" fill="#92E3A9"/>
<path d="M399.158 290.983C401.624 293.125 404.091 295.268 406.558 297.41C404.899 290.727 403.24 284.044 401.581 277.361C404.689 283.74 407.797 290.12 410.905 296.499C410.49 289.577 410.075 282.656 409.66 275.734C411.478 283.039 413.295 290.343 415.113 297.648C416.971 290.121 418.828 282.595 420.686 275.069C420.781 287.742 420.877 300.416 420.972 313.089C415.285 313.289 407.938 315.629 404.89 310.209C401.733 304.595 403.351 297.05 399.158 290.983Z" fill="#92E3A9"/>
<path d="M150.413 398.467L164.763 372.368L189.607 368.115L202.156 357.99C202.156 357.99 216.155 354.082 230.08 354.819C244.006 355.556 251.697 358.775 251.697 358.775L257.292 364.025L270.669 366.818C270.669 366.818 283.399 377.86 284.955 377.368C286.511 376.877 306.097 378.735 306.097 378.735L315.157 393.332C315.157 393.332 244.478 456.221 150.413 398.467Z" fill="#263238"/>
<path d="M201.589 367.945C206.854 362.893 215.527 361.837 221.849 365.48C222.074 363.958 222.299 362.435 222.524 360.913C224.904 361.554 227.285 362.196 229.665 362.837C229.94 364.35 230.215 365.863 230.49 367.376C238.293 366.716 246.282 368.446 253.113 372.274C253.03 374.162 252.946 376.05 252.863 377.939C254.1 375.154 257.364 373.431 260.361 373.98C263.358 374.53 265.799 377.299 265.966 380.342C268.396 379.544 271.245 380.202 273.077 381.986C275.356 380.583 277.635 379.18 279.914 377.777C274.897 372.057 266.739 370.644 259.62 367.96C248.593 363.802 238.072 355.774 226.4 357.408C227.12 358.164 227.839 358.921 228.559 359.677C226.387 361.449 222.531 360.144 221.881 357.417C215.339 358.116 208.796 358.815 202.253 359.516C202.267 360.46 202.316 361.386 202.218 362.312C201.79 362.018 201.246 361.682 200.865 361.38C200.86 362.647 202.761 366.821 201.589 367.945Z" fill="#5C5C5C"/>
<path d="M183.258 388.468C181.222 384.961 179.185 381.454 177.149 377.947C184.537 377.741 191.16 382.161 197.215 386.401C194.838 382.303 192.462 378.204 190.085 374.106C189.636 373.331 189.121 372.5 188.278 372.196C187.644 371.968 186.943 372.086 186.28 372.208C181.981 372.995 171.464 373.051 168.629 376.227C170.361 378.812 173.378 380.954 175.801 382.926C177.679 384.455 182.09 386.483 183.258 388.468Z" fill="#5C5C5C"/>
<path d="M281.176 387.131C282.501 387.58 283.914 388.162 284.604 389.378C285.295 390.594 284.682 392.557 283.284 392.62C288.786 390.747 294.289 388.875 299.791 387.002C298.35 389.856 295.905 392.19 292.986 393.496C295.236 392.596 297.486 391.695 299.736 390.795C300.689 392.76 301.642 394.725 302.595 396.691C302.49 392.951 303.362 389.188 305.103 385.876C305.546 389.327 307.393 392.578 310.132 394.724C309.512 391.816 308.872 388.857 307.413 386.266C305.953 383.675 303.519 381.463 300.578 381.022C297.935 380.626 295.315 381.677 292.668 382.052C288.8 382.6 284.862 381.697 280.966 381.98C277.787 382.211 273.739 383.64 272.578 386.839C275.313 387.246 277.95 386.037 281.176 387.131Z" fill="#5C5C5C"/>
<path d="M35.367 299.878C35.367 299.878 10.23 301.086 10.23 312.461C10.23 323.836 10.23 323.836 10.23 323.836L31.865 326.082L35.367 299.878Z" fill="white" stroke="#676F74" stroke-linecap="round" stroke-linejoin="round"/>
<path d="M41.2879 283.613C38.8499 287 37.7199 291.129 36.6359 295.159C33.8779 305.411 31.1199 315.663 28.3619 325.915C50.5519 331.95 74.3279 332.048 96.5669 326.196C100.411 325.184 104.765 323.463 105.864 319.643C107.09 315.379 103.53 311.361 100.276 308.344C95.9309 304.315 91.5869 300.286 87.2419 296.257C77.8289 287.528 52.8829 267.501 41.2879 283.613Z" fill="white" stroke="#676F74" stroke-linecap="round" stroke-linejoin="round"/>
<path d="M102.053 301.422C100.541 303.523 99.84 306.084 99.167 308.584C97.456 314.943 95.746 321.303 94.035 327.662C107.8 331.406 122.547 331.466 136.342 327.836C138.727 327.209 141.428 326.141 142.109 323.771C142.87 321.126 140.661 318.634 138.643 316.762C135.948 314.263 133.253 311.763 130.558 309.264C124.72 303.85 109.246 291.428 102.053 301.422Z" fill="white" stroke="#676F74" stroke-linecap="round" stroke-linejoin="round"/>
<path d="M382.149 290.754C374.659 291.135 366.881 293.056 361.4 298.175C355.919 303.294 353.548 312.225 357.571 318.555C359.881 322.19 363.893 324.478 368.055 325.586C372.217 326.695 376.577 326.754 380.884 326.806C388.443 326.898 396.003 326.99 403.563 327.082C407.34 327.128 411.175 327.167 414.823 326.186C418.471 325.205 421.974 323.054 423.729 319.709C426.723 314.005 423.228 311.226 419.499 307.9C415.827 304.625 414.555 302.429 411.604 298.918C405.047 291.117 392.115 290.247 382.149 290.754Z" fill="white" stroke="#676F74" stroke-linecap="round" stroke-linejoin="round"/>
<path d="M334.418 325.715C337.133 330.164 343.347 330.508 348.556 330.342C357.649 330.052 366.742 329.762 375.834 329.472C379.778 329.346 384.492 328.749 386.218 325.202C388.151 321.23 384.797 316.71 381.249 314.078C372.909 307.89 362.899 305.346 352.876 307.574C345.722 309.164 327.773 314.827 334.418 325.715Z" fill="white" stroke="#676F74" stroke-linecap="round" stroke-linejoin="round"/>
<path d="M296.659 404.845H292.648L290.136 172.001H299.171L296.659 404.845Z" fill="#263238"/>
<path d="M303.971 170.726C303.474 169.797 302.423 169.937 301.221 167.942C300.018 165.947 297.647 166.765 296.892 166.527C296.138 166.29 296.099 165.975 296.295 164.953C296.491 163.932 296.867 160.566 295.296 160.775C293.725 160.984 293.018 164.558 292.797 165.418C292.063 167.01 291.229 168.561 290.298 170.061C289.579 170.333 288.834 170.542 288.074 170.686C287.207 170.801 286.398 172.571 286.359 173.398C286.322 173.923 287.425 175.466 288.26 176.542C288.703 177.47 289.203 178.373 289.759 179.246C289.759 179.246 290.802 180.267 293.382 179.595C295.963 178.923 301.349 181.521 301.977 180.935C302.604 180.349 303.725 177.223 304.168 175.511C304.602 173.933 304.533 172.271 303.971 170.726Z" fill="white" stroke="#263238" stroke-linecap="round" stroke-linejoin="round"/>
<path d="M285.915 177.786C285.903 176.89 286.15 176.008 286.629 175.231C287.335 174.467 288.273 171.976 289.14 171.503C290.006 171.03 295.782 169.687 299.038 172.069C302.294 174.452 301.901 177.951 302.165 179.63C302.43 181.31 298.252 186.908 297.208 187.114C296.165 187.32 299.997 179.522 295.833 177.168C294.688 176.52 289.466 177.279 285.915 177.786Z" fill="white" stroke="#263238" stroke-linecap="round" stroke-linejoin="round"/>
<path d="M238.811 93.2409C238.811 93.2409 240.448 90.7169 241.038 93.9959C241.628 97.2749 240.214 100.802 238.321 102.064C236.428 103.326 235.604 102.064 235.604 100.802C235.604 99.5399 238.811 93.2409 238.811 93.2409Z" fill="white" stroke="#263238" stroke-linecap="round" stroke-linejoin="round"/>
<path d="M207.026 94.503C205.875 94.1 204.59 94.64 204.156 95.709C204.019 96.047 203.979 96.412 204.041 96.768C204.041 99.799 208.384 104.091 210.289 103.077C212.194 102.064 207.026 94.503 207.026 94.503Z" fill="white" stroke="#263238" stroke-linecap="round" stroke-linejoin="round"/>
<path d="M222.785 64.973C222.785 64.973 218.542 71.531 214.098 73.299C208.385 75.575 203.774 82.391 204.075 87.935C204.376 93.479 213.04 111.652 214.399 112.159C215.758 112.666 232.875 111.404 233.421 110.649C233.967 109.894 236.406 102.323 238.577 95C240.749 87.677 240.749 83.902 240.749 83.902C241.538 81.535 241.914 79.066 241.863 76.589C241.697 73.604 236.311 68.987 236.311 68.987C236.311 68.987 231.636 63.91 229.669 64.974C227.736 66.166 225.999 67.612 224.513 69.266L222.785 64.973Z" fill="#263238" stroke="#263238" stroke-linecap="round" stroke-linejoin="round"/>
<path d="M187.381 228.716C187.381 228.716 191.056 233.888 191.257 235.894C191.457 237.901 191.446 241.645 191.636 242.896C191.825 244.147 191.057 245.058 190.099 245.058C189.459 245.002 188.885 244.668 188.551 244.158C188.663 245.187 188.856 246.207 189.13 247.209C189.509 248.471 191.636 249.547 191.447 250.798C191.258 252.05 189.13 252.598 186.224 252.598C182.634 252.576 179.42 250.529 178.105 247.426C176.368 243.661 174.63 232.883 174.63 230.877C174.629 228.871 185.454 227.279 187.381 228.716Z" fill="white" stroke="#263238" stroke-linecap="round" stroke-linejoin="round"/>
<path d="M183.327 235.357C183.327 235.357 184.096 236.971 182.548 239.494C181.501 240.985 180.719 242.623 180.231 244.345C180.661 245.599 181.244 246.803 181.968 247.934C182.748 249.372 185.309 249.196 185.454 250.458C185.592 251.135 185.453 251.836 185.064 252.423" stroke="#515B60" stroke-linecap="round" stroke-linejoin="round"/>
<path d="M185.766 243.042C185.941 244.453 186.288 245.841 186.802 247.179C187.582 248.979 191.635 250.055 190.143 252.03" stroke="#515B60" stroke-linecap="round" stroke-linejoin="round"/>
<path d="M183.327 243.797C183.513 244.965 183.838 246.109 184.296 247.21C184.875 248.244 188.751 249.361 187.971 252.237" stroke="#515B60" stroke-linecap="round" stroke-linejoin="round"/>
<path d="M188.55 244.159C188.55 244.159 188.16 241.284 187.971 240.208C187.832 239.179 187.765 238.142 187.771 237.105" stroke="#515B60" stroke-linecap="round" stroke-linejoin="round"/>
<path d="M251.975 118.52C246.89 114.831 240.93 112.323 234.591 111.207C223.721 109.19 209.321 112.469 203.619 115.996C200.178 118.235 197.91 121.715 197.371 125.584L251.975 118.52Z" fill="white" stroke="#263238" stroke-linecap="round" stroke-linejoin="round"/>
<path d="M299.627 180.038C300.091 187.313 284.01 195.246 276.4 186.09C270.778 179.326 262.071 150.748 262.071 150.748C262.071 150.748 260.024 194.87 260.024 197.652C260.024 200.434 258.771 204.636 258.771 204.636C258.771 204.636 258.335 207.719 256.436 208.973C254.551 210.24 253.751 213.951 230.362 215.728C216.41 216.864 202.346 215.754 188.788 212.449C187.719 212.188 187.171 206.388 187.171 206.388L186.355 223.29C185.384 224.296 184.175 225.066 182.825 225.563C180.659 226.321 174.401 225.811 173.05 225.054C171.686 224.297 168.943 203.868 169.239 200.341C169.534 196.801 171.807 147.892 176.641 136.43C180.568 127.119 187.118 122.902 196.359 120.368C205.585 117.847 224.3 118.273 225.412 118.025C225.412 118.025 243.513 119.031 252.232 117.529C252.232 117.529 268.547 116.876 273.553 126.189C277.125 132.815 281.368 145.568 283.519 152.375C284.53 155.574 285.756 158.704 287.188 161.762L290.756 169.38C295.173 170.828 299.36 175.727 299.627 180.038Z" fill="#92E3A9" stroke="#263238" stroke-miterlimit="10" stroke-linecap="round" stroke-linejoin="round"/>
<path d="M216.47 135.12C216.47 135.12 220.145 148.566 230.948 154.058" stroke="#515B60" stroke-linecap="round" stroke-linejoin="round"/>
<path d="M232.374 160.017C233.191 160.41 234.026 160.793 234.88 161.165" stroke="#515B60" stroke-linecap="round" stroke-linejoin="round"/>
<path d="M216.47 149.063C220.058 152.447 224.07 155.42 228.42 157.917" stroke="#515B60" stroke-linecap="round" stroke-linejoin="round"/>
<path d="M265.618 203.107C224.055 220.515 186.836 206.386 186.836 206.386C186.836 206.386 187.382 212.189 188.462 212.447C202.014 215.75 216.078 216.859 230.036 215.726C253.423 213.957 263.179 210.678 265.073 209.417C266.966 208.155 266.71 204.37 266.71 204.37C266.71 204.37 266.71 203.791 266.821 202.891L265.618 203.107Z" fill="white" stroke="#263238" stroke-linecap="round" stroke-linejoin="round"/>
<path d="M169.718 222.531C169.718 222.531 175.966 225.055 181.133 223.565C186.3 222.075 187.648 220.534 188.461 220.793C189.274 221.051 189.285 227.092 188.461 228.861C187.637 230.63 185.744 231.892 180.042 232.398C174.34 232.905 171.355 230.329 170.81 228.861C170.301 226.775 169.937 224.661 169.718 222.531Z" fill="white" stroke="#263238" stroke-linecap="round" stroke-linejoin="round"/>
<path d="M186.276 144.215C186.349 157.33 187.751 170.439 190.459 183.312" stroke="#515B60" stroke-linecap="round" stroke-linejoin="round"/>
<path d="M203.768 78.724C201.22 84.214 201.194 87.742 203.434 93.312C206.253 100.32 212.813 102.555 216.802 102.934C224.148 103.631 231.307 103.274 237.522 99.52C243.737 95.766 246.42 87.448 245.208 80.587C244.167 74.692 240.431 66.598 234.514 64.447C220.836 59.474 209.384 66.62 203.768 78.724Z" fill="#BFBFBF" stroke="#263238" stroke-miterlimit="10" stroke-linecap="round" stroke-linejoin="round"/>
<path d="M206.28 73.517C203.482 78.444 203.004 81.801 204.315 87.436C206.125 95.219 212.376 97.837 216.327 98.266C223.667 99.064 230.823 98.566 236.597 94.041C242.047 89.77 243.24 81.191 241.22 74.86C239.628 69.869 235.842 63.62 231.132 62.092C220.702 58.71 211.782 63.83 206.28 73.517Z" fill="#999999" stroke="#263238" stroke-miterlimit="10" stroke-linecap="round" stroke-linejoin="round"/>
<path d="M223.652 74.878C225.405 74.878 226.827 73.6275 226.827 72.085C226.827 70.5425 225.405 69.292 223.652 69.292C221.898 69.292 220.477 70.5425 220.477 72.085C220.477 73.6275 221.898 74.878 223.652 74.878Z" fill="#263238" stroke="#263238" stroke-miterlimit="10" stroke-linecap="round" stroke-linejoin="round"/>
<path d="M215.51 76.804C211.748 82.715 211.873 90.356 212.703 97.679" stroke="#263238" stroke-miterlimit="10" stroke-linecap="round" stroke-linejoin="round"/>
<path d="M225.21 78.0959C226.261 84.7699 226.567 91.5439 226.122 98.2759" stroke="#263238" stroke-miterlimit="10" stroke-linecap="round" stroke-linejoin="round"/>
<path d="M234.1 75.481C237.233 80.428 238.521 86.362 237.697 92.05" stroke="#263238" stroke-miterlimit="10" stroke-linecap="round" stroke-linejoin="round"/>
<path d="M290.744 174.582C291.339 177.554 290.306 180.767 288.055 182.95" stroke="#515B60" stroke-linecap="round" stroke-linejoin="round"/>
<path d="M275.463 143.123C275.349 143.851 275.211 144.575 275.049 145.295" stroke="#515B60" stroke-linecap="round" stroke-linejoin="round"/>
<path d="M274.165 127.059C275.655 131.601 276.177 136.414 275.715 141.142" stroke="#515B60" stroke-linecap="round" stroke-linejoin="round"/>
<path d="M191.335 215.594C191.335 215.594 186.555 234.72 187.368 242.798C188.181 250.876 186.763 274.933 189.795 293.39C194.093 319.553 192.869 344.466 193.342 357.142C193.505 361.514 193.105 365.914 191.709 370.093C190.731 373.022 190.436 377.575 193.955 383.343C194.015 384.369 196.229 384.033 196.532 385.021C196.532 385.021 200.608 387.545 203.058 387.793C205.508 388.041 202.429 390.543 215.036 383.517C217.859 381.944 219.395 372.892 218.236 369.183C216.451 363.472 219.261 354.576 218.592 326.952C218.287 314.342 217.463 319.086 220.851 299.682C226.156 269.298 225.057 248.289 225.057 248.289C225.057 248.289 225.853 252.848 225.933 255.281C226.336 267.598 229.301 303.95 229.886 334.818C230.365 360.11 233.106 390.24 233.106 392.257C233.106 394.274 232.61 398.665 232.61 400.434C232.61 402.203 232.447 405.394 233.26 406.655C233.927 407.867 234.471 409.135 234.886 410.44C234.886 410.44 244.675 411.95 247.382 411.95C250.089 411.95 253.152 409.824 253.152 409.824L253.641 407.837C254.808 403.094 256.877 402.08 257.387 397.238C260.571 366.985 262.632 355.501 262.825 266.467C262.833 262.961 259.571 217.866 259.571 217.866L259.025 211.805C259.025 211.805 230.503 215.342 216.916 213.574C203.329 211.805 192.192 211.299 192.192 211.299L191.335 215.594Z" fill="white" stroke="#263238" stroke-linecap="round" stroke-linejoin="round"/>
<path d="M214.846 410.386C214.846 412.459 210.568 413.323 206.29 413.482C203.586 413.509 200.938 412.791 198.678 411.422C198.678 411.422 195.029 411.701 193.756 410.239C192.483 408.764 193.126 405.375 193.928 404.206C194.729 403.023 197.82 400.312 198.936 398.226C199.637 396.871 196.547 391.807 196.217 382.784C196.732 382.133 197.82 381.641 199.193 381.296L199.765 387.183C199.765 387.183 210.311 385.442 212.857 387.489C213.2 387.768 213.487 387.795 213.73 387.635C213.186 390.186 212.843 393.615 213.887 397.123C216.548 406.041 214.846 409.536 214.846 410.386Z" fill="#757575" stroke="#263238" stroke-miterlimit="10" stroke-linecap="round" stroke-linejoin="round"/>
<path d="M213.73 387.636C213.487 387.795 213.201 387.769 212.857 387.49C210.31 385.443 199.765 387.184 199.765 387.184L199.193 381.297C202.183 380.526 206.519 380.42 209.223 380.712C211.512 380.951 214.217 382.347 214.675 383.436C214.803 383.742 214.187 385.337 213.73 387.636Z" fill="#263238"/>
<path d="M198.7 411.377C200.959 412.75 203.608 413.467 206.307 413.436C210.588 413.282 214.87 412.406 214.87 410.347C214.87 410.007 214.87 409.438 214.87 408.715C212.656 409.614 210.279 410.116 207.864 410.194C202.156 410.49 199.62 408.869 198.511 408.726C197.615 408.605 195.15 409.164 193.062 408.277C193.092 408.965 193.334 409.63 193.758 410.194C195.032 411.662 198.7 411.377 198.7 411.377Z" fill="#BFBFBF" stroke="#263238" stroke-miterlimit="10" stroke-linecap="round" stroke-linejoin="round"/>
<path d="M198.676 404.301L199.313 411.377" stroke="#515B60" stroke-linecap="round" stroke-linejoin="round"/>
<path d="M233.018 435.608C233.018 437.903 237.755 438.859 242.492 439.036C245.486 439.065 248.417 438.271 250.92 436.756C250.92 436.756 254.96 437.065 256.37 435.446C257.78 433.813 257.067 430.061 256.18 428.766C255.293 427.457 251.871 424.455 250.635 422.145C249.859 420.644 253.281 415.039 253.645 405.049C253.075 404.328 251.871 403.784 250.35 403.401L249.716 409.919C249.716 409.919 238.041 407.992 235.221 410.257C234.841 410.566 234.524 410.595 234.254 410.419C234.856 413.244 235.236 417.04 234.08 420.924C231.133 430.797 233.018 434.666 233.018 435.608Z" fill="#757575" stroke="#263238" stroke-miterlimit="10" stroke-linecap="round" stroke-linejoin="round"/>
<path d="M234.254 410.419C234.524 410.595 234.84 410.566 235.221 410.257C238.041 407.991 249.716 409.919 249.716 409.919L250.35 403.401C247.039 402.548 242.239 402.43 239.245 402.754C236.71 403.019 233.716 404.564 233.209 405.77C233.066 406.108 233.747 407.874 234.254 410.419Z" fill="#263238"/>
<path d="M256.366 435.395C256.836 434.77 257.103 434.034 257.136 433.273C254.825 434.255 252.096 433.637 251.103 433.77C249.876 433.928 247.068 435.723 240.748 435.395C238.074 435.309 235.443 434.753 232.991 433.758C232.991 434.558 232.991 435.189 232.991 435.565C232.991 437.845 237.731 438.815 242.471 438.985C245.46 439.019 248.392 438.225 250.893 436.705C250.893 436.705 254.955 437.02 256.366 435.395Z" fill="#BFBFBF" stroke="#263238" stroke-miterlimit="10" stroke-linecap="round" stroke-linejoin="round"/>
<path d="M250.215 436.705L250.92 428.871" stroke="#515B60" stroke-linecap="round" stroke-linejoin="round"/>
<path d="M196.507 307.298C198.607 316 203.603 324.109 210.737 330.089" stroke="#515B60" stroke-miterlimit="10" stroke-linecap="round" stroke-linejoin="round"/>
<path d="M195.41 299.066C195.454 300.769 195.611 302.467 195.878 304.15" stroke="#515B60" stroke-miterlimit="10" stroke-linecap="round" stroke-linejoin="round"/>
<path d="M202.057 310.444C204.647 313.794 208.909 315.978 213.342 316.227" stroke="#515B60" stroke-miterlimit="10" stroke-linecap="round" stroke-linejoin="round"/>
<path d="M235.432 346.354C242.556 344.651 248.914 340.333 252.82 334.544" stroke="#515B60" stroke-miterlimit="10" stroke-linecap="round" stroke-linejoin="round"/>
<path d="M237.635 336.289C241.689 336 245.595 334.201 248.296 331.379" stroke="#515B60" stroke-miterlimit="10" stroke-linecap="round" stroke-linejoin="round"/>
<path d="M197.327 162.04L188.772 120.693L200.653 118.317L204.455 161.089L197.327 162.04Z" fill="#263238"/>
<path d="M252.604 160.139L261.158 118.792L249.277 116.416L245.475 159.188L252.604 160.139Z" fill="#263238"/>
<path d="M216.091 153.963V178.544H215.989L212.625 183.959L209.275 178.544H209.173V161.048H209.158V153.963H216.091Z" fill="#263238" stroke="#263238" stroke-miterlimit="10" stroke-linecap="round" stroke-linejoin="round"/>
<path d="M241.078 115.94H234.146V126.069H241.078V115.94Z" fill="#263238" stroke="#263238" stroke-miterlimit="10" stroke-linecap="round" stroke-linejoin="round"/>
<path d="M241.078 131.146H234.146V148.885H241.078V131.146Z" fill="#263238" stroke="#263238" stroke-miterlimit="10" stroke-linecap="round" stroke-linejoin="round"/>
<path d="M256.785 136.089L252.695 148.117C251.201 153.814 246.734 158.286 241.093 161.222V178.543H241.078V153.962H244.776V148.884H241.078V131.145H244.776V126.067H241.078V115.94H234.146V126.069H230.448V131.147H234.146V148.886H230.448V153.964H234.146V163.918C233.769 164.012 233.392 164.107 233.015 164.201C232.667 164.282 232.319 164.363 231.956 164.43C231.912 164.443 231.854 164.443 231.796 164.457C231.636 164.497 231.491 164.524 231.332 164.551C231.114 164.591 230.882 164.632 230.65 164.672C230.578 164.685 230.49 164.699 230.404 164.712C230.201 164.739 229.983 164.779 229.78 164.806C229.548 164.833 229.316 164.873 229.084 164.9C229.055 164.9 229.026 164.9 228.997 164.913C228.765 164.94 228.533 164.954 228.301 164.98C228.257 164.98 228.199 164.994 228.141 164.994C227.909 165.021 227.677 165.034 227.445 165.061H227.372C227.14 165.075 226.908 165.088 226.662 165.101C226.43 165.114 226.198 165.128 225.951 165.128C225.922 165.128 225.879 165.142 225.849 165.142H225.124C222.122 165.155 219.062 164.711 216.104 163.876V178.544H216.089V153.963H219.787V148.885H216.089V131.146H219.787V126.068H216.089V115.94H209.157V126.069H205.459V131.147H209.157V148.886H205.459V153.964H209.157V161.049C203.588 157.992 199.194 153.385 197.671 147.701L193.451 136.091L204.966 115.834H244.95L256.785 136.089Z" fill="white" stroke="#263238" stroke-miterlimit="10" stroke-linecap="round" stroke-linejoin="round"/>
<path d="M247.373 183.959V184.161H203.734L225.546 195.219L247.373 184.161V210.937H202.951V183.959H247.373Z" fill="white" stroke="#263238" stroke-miterlimit="10" stroke-linecap="round" stroke-linejoin="round"/>
<path d="M272.03 239.03L250.733 236.479C234.59 234.545 218.357 234.553 202.215 236.503L181.288 239.03L180.709 236.034C179.312 228.803 179.514 221.15 181.288 214.082L214.193 217.205C222.37 217.981 230.575 217.984 238.753 217.214L272.03 214.082C273.922 222.014 273.961 230.581 272.14 238.546L272.03 239.03Z" fill="#263238"/>
<path d="M231.27 212.726H222.535V238.496H231.27V212.726Z" fill="white" stroke="#263238" stroke-miterlimit="10" stroke-linecap="round" stroke-linejoin="round"/>
<path d="M256.785 136.089V210.331C256.785 214.911 252.797 218.628 247.866 218.628H202.386C197.455 218.628 193.452 214.911 193.452 210.331V136.089L197.672 147.699C199.195 153.383 203.589 157.989 209.158 161.047V178.543H209.26L212.625 183.958H202.952V210.937H247.373V183.958H237.627L240.992 178.543H241.094V161.222C246.735 158.286 251.202 153.814 252.696 148.117L256.785 136.089Z" fill="#757575" stroke="#263238" stroke-miterlimit="10" stroke-linecap="round" stroke-linejoin="round"/>
<path d="M209.173 161.048H209.158V178.544H209.173V161.048Z" stroke="#515B60" stroke-miterlimit="10" stroke-linecap="round" stroke-linejoin="round"/>
<path d="M212.625 183.959L209.26 178.544H209.275L212.625 183.959Z" stroke="#515B60" stroke-miterlimit="10" stroke-linecap="round" stroke-linejoin="round"/>
<path d="M237.613 183.959H212.64L216.005 178.544H216.107V163.876C219.065 164.711 222.125 165.156 225.127 165.142H225.852C225.881 165.142 225.925 165.128 225.954 165.128C226.201 165.128 226.433 165.114 226.665 165.101C226.911 165.088 227.144 165.074 227.375 165.061H227.448C227.68 165.034 227.912 165.021 228.144 164.994C228.202 164.994 228.26 164.98 228.304 164.98C228.536 164.953 228.768 164.94 229 164.913C229.029 164.9 229.058 164.9 229.087 164.9C229.319 164.873 229.551 164.833 229.783 164.806C229.986 164.779 230.204 164.739 230.407 164.712C230.494 164.698 230.581 164.685 230.653 164.672C230.885 164.632 231.117 164.591 231.335 164.551C231.495 164.524 231.64 164.497 231.799 164.457C231.857 164.443 231.915 164.443 231.959 164.43C232.322 164.363 232.67 164.282 233.018 164.201C233.395 164.107 233.772 164.012 234.149 163.918V178.546H234.251L237.613 183.959Z" fill="#757575" stroke="#263238" stroke-miterlimit="10" stroke-linecap="round" stroke-linejoin="round"/>
<path d="M234.161 163.903V178.544H234.146V163.917L234.161 163.903Z" stroke="#515B60" stroke-miterlimit="10" stroke-linecap="round" stroke-linejoin="round"/>
<path d="M237.613 183.959L234.248 178.544H234.262L237.613 183.959Z" stroke="#515B60" stroke-miterlimit="10" stroke-linecap="round" stroke-linejoin="round"/>
<path d="M247.373 184.161L235.298 192.431C229.421 196.456 221.674 196.455 215.798 192.428L203.735 184.161H247.373Z" fill="white" stroke="#263238" stroke-miterlimit="10" stroke-linecap="round" stroke-linejoin="round"/>
<path d="M269.939 193.589V210.937H256.785V183.958H259.584C265.298 183.959 269.939 188.269 269.939 193.589Z" fill="white" stroke="#263238" stroke-miterlimit="10" stroke-linecap="round" stroke-linejoin="round"/>
<path d="M193.452 183.959V210.938H180.298V193.59C180.298 188.27 184.939 183.96 190.653 183.96H193.452V183.959Z" fill="white" stroke="#263238" stroke-miterlimit="10" stroke-linecap="round" stroke-linejoin="round"/>
<path d="M216.09 131.146H209.158V148.885H216.09V131.146Z" fill="#263238" stroke="#263238" stroke-miterlimit="10" stroke-linecap="round" stroke-linejoin="round"/>
<path d="M209.173 161.048H209.158V178.544H209.173V161.048Z" stroke="#515B60" stroke-miterlimit="10" stroke-linecap="round" stroke-linejoin="round"/>
<path d="M212.625 183.959L209.26 178.544H209.275L212.625 183.959Z" stroke="#515B60" stroke-miterlimit="10" stroke-linecap="round" stroke-linejoin="round"/>
<path d="M216.09 115.94H209.158V126.069H216.09V115.94Z" fill="#263238" stroke="#263238" stroke-miterlimit="10" stroke-linecap="round" stroke-linejoin="round"/>
<path d="M241.079 153.963V178.544H240.977L237.613 183.959L234.262 178.544H234.161V163.903L234.146 163.917V153.963H241.079Z" fill="#263238" stroke="#263238" stroke-miterlimit="10" stroke-linecap="round" stroke-linejoin="round"/>
<path d="M234.161 163.903V178.544H234.146V163.917L234.161 163.903Z" stroke="#515B60" stroke-miterlimit="10" stroke-linecap="round" stroke-linejoin="round"/>
<path d="M237.613 183.959L234.248 178.544H234.262L237.613 183.959Z" stroke="#515B60" stroke-miterlimit="10" stroke-linecap="round" stroke-linejoin="round"/>
<path d="M219.789 126.068H205.46V131.146H219.789V126.068Z" fill="#92E3A9" stroke="#263238" stroke-miterlimit="10" stroke-linecap="round" stroke-linejoin="round"/>
<path d="M244.777 126.068H230.448V131.146H244.777V126.068Z" fill="#92E3A9" stroke="#263238" stroke-miterlimit="10" stroke-linecap="round" stroke-linejoin="round"/>
<path d="M219.789 148.885H205.46V153.963H219.789V148.885Z" fill="#92E3A9" stroke="#263238" stroke-miterlimit="10" stroke-linecap="round" stroke-linejoin="round"/>
<path d="M244.777 148.885H230.448V153.963H244.777V148.885Z" fill="#92E3A9" stroke="#263238" stroke-miterlimit="10" stroke-linecap="round" stroke-linejoin="round"/>
<path d="M225.107 252.139C231.79 257.528 241.863 258.979 249.99 255.722" stroke="#515B60" stroke-miterlimit="10" stroke-linecap="round" stroke-linejoin="round"/>
<path d="M225.83 256.795C222.128 266.299 216.381 275.111 209.029 282.561" stroke="#515B60" stroke-miterlimit="10" stroke-linecap="round" stroke-linejoin="round"/>
<path d="M225.178 250.139L224.215 253.708C222.84 258.803 221.826 262.791 219.535 267.545L215.258 275.624L225.357 259.406L225.178 250.139Z" fill="#263238" stroke="#263238" stroke-miterlimit="10" stroke-linecap="round" stroke-linejoin="round"/>
<path d="M225.107 252.139L227.079 272.534L228.13 268.709C228.831 263.98 232.139 260.268 235.812 257.207C232.89 256.576 230.117 255.41 227.624 253.76C226.947 253.312 226.119 252.778 225.107 252.139Z" fill="#263238" stroke="#263238" stroke-miterlimit="10" stroke-linecap="round" stroke-linejoin="round"/>
<path d="M188.021 238.049C188.453 246.014 192.474 251.221 197.852 253.287" stroke="#515B60" stroke-miterlimit="10" stroke-linecap="round" stroke-linejoin="round"/>
<path d="M260.584 237.811C260.292 245.776 257.57 250.983 253.93 253.049" stroke="#515B60" stroke-miterlimit="10" stroke-linecap="round" stroke-linejoin="round"/>
<path d="M182.951 175.907C184.407 178.763 185.578 181.765 186.438 184.853" stroke="#515B60" stroke-linecap="round" stroke-linejoin="round"/>
<path d="M179.796 170.591C180.237 171.236 180.663 171.891 181.072 172.557" stroke="#515B60" stroke-linecap="round" stroke-linejoin="round"/>
<path d="M170.314 187.704C170.124 192.334 171.272 197.011 173.584 201.027" stroke="#515B60" stroke-linecap="round" stroke-linejoin="round"/>
<path d="M259.459 141.739C260.728 146.016 261.998 150.292 263.267 154.569" stroke="#515B60" stroke-linecap="round" stroke-linejoin="round"/>
</g>
<defs>
<clipPath id="clip0_863_468">
<rect width="451" height="440" fill="white"/>
</clipPath>
</defs>
</svg>
