<svg width="40" height="40" viewBox="0 0 40 40" fill="none" xmlns="http://www.w3.org/2000/svg">
<path fill-rule="evenodd" clip-rule="evenodd" d="M0 2.51572C0 1.12633 1.16283 0 2.59742 0H7.12229C8.14327 0 9.13278 0.342699 9.92223 0.969761L11.2987 2.06304L11.3331 2.09345C11.3649 2.08307 11.3967 2.07293 11.4285 2.06304C13.9119 1.29265 16.9248 1.14614 20 1.14614C23.0752 1.14614 26.0881 1.29265 28.5715 2.06304C28.6034 2.07293 28.6351 2.08307 28.6669 2.09345L28.7013 2.06304L30.0778 0.969761C30.8672 0.342699 31.8567 0 32.8777 0H37.4026C38.8372 0 40 1.12633 40 2.51572V4.0709C40 5.27415 39.4767 6.42174 38.5584 7.23214L37.4479 8.21213C36.9058 8.69055 36.2552 9.03873 35.5485 9.22855L35.2858 9.29911C36.3147 11.677 36.8832 14.2188 36.8832 16.275C36.8832 24.5464 31.5992 28.1187 26.9434 31.2663C23.2769 33.7451 20 35.9604 20 40C20 35.9604 16.7231 33.7451 13.0566 31.2663C8.40083 28.1187 3.11684 24.5464 3.11684 16.275C3.11684 14.2188 3.68528 11.677 4.71422 9.29911L4.45155 9.22855C3.74482 9.03873 3.09416 8.69055 2.55207 8.21213L1.44163 7.23214C0.523301 6.42174 0 5.27415 0 4.0709V2.51572ZM23.3767 23.0372C23.3767 23.4324 23.1987 23.8113 22.8821 24.0908C22.5656 24.3702 22.1361 24.5272 21.6883 24.5272C21.3017 24.5272 20.9288 24.4101 20.6303 24.1983C21.1383 25.5153 22.4383 26.7632 24.4156 24.7564C26.1612 22.8917 24.338 18.9588 22.5618 16.625C21.9697 15.8471 20.9978 15.4727 20 15.4727C19.0022 15.4727 18.0303 15.8471 17.4382 16.625C15.662 18.9588 13.8388 22.8917 15.5844 24.7564C17.5617 26.7632 18.8617 25.5153 19.3697 24.1983C19.0713 24.4101 18.6983 24.5272 18.3117 24.5272C17.8639 24.5272 17.4344 24.3702 17.1179 24.0908C16.8013 23.8113 16.6234 23.4324 16.6234 23.0372H23.3767ZM13.5346 11.3951H8.8312L12.5379 14.2698C13.3536 14.9023 14.5459 14.7001 15.0506 13.8436C15.6879 12.7622 14.8414 11.3951 13.5346 11.3951ZM26.4654 11.3951H31.1688L27.4621 14.2698C26.6464 14.9023 25.4541 14.7001 24.9494 13.8436C24.3121 12.7622 25.1586 11.3951 26.4654 11.3951Z" fill="#4BCA6F"/>
</svg>
