<svg width="155" height="40" viewBox="0 0 155 40" fill="none" xmlns="http://www.w3.org/2000/svg">
<g clip-path="url(#clip0_909_396)">
<path fill-rule="evenodd" clip-rule="evenodd" d="M56 2.51572C56 1.12633 57.1628 0 58.5974 0H63.1223C64.1433 0 65.1328 0.342699 65.9222 0.969761L67.2987 2.06304L67.3331 2.09345C67.3649 2.08307 67.3967 2.07293 67.4285 2.06304C69.9119 1.29265 72.9248 1.14614 76 1.14614C79.0752 1.14614 82.0881 1.29265 84.5715 2.06304C84.6034 2.07293 84.6351 2.08307 84.6669 2.09345L84.7013 2.06304L86.0778 0.969761C86.8672 0.342699 87.8567 0 88.8777 0H93.4026C94.8372 0 96 1.12633 96 2.51572V4.0709C96 5.27415 95.4767 6.42174 94.5584 7.23214L93.4479 8.21213C92.9058 8.69055 92.2552 9.03873 91.5485 9.22855L91.2858 9.29911C92.3147 11.677 92.8832 14.2188 92.8832 16.275C92.8832 24.5464 87.5992 28.1187 82.9434 31.2663C79.2769 33.7451 76 35.9604 76 40C76 35.9604 72.7231 33.7451 69.0566 31.2663C64.4008 28.1187 59.1168 24.5464 59.1168 16.275C59.1168 14.2188 59.6853 11.677 60.7142 9.29911L60.4515 9.22855C59.7448 9.03873 59.0942 8.69055 58.5521 8.21213L57.4416 7.23214C56.5233 6.42174 56 5.27415 56 4.0709V2.51572ZM79.3767 23.0372C79.3767 23.4324 79.1987 23.8113 78.8821 24.0908C78.5656 24.3702 78.1361 24.5272 77.6883 24.5272C77.3017 24.5272 76.9288 24.4101 76.6303 24.1983C77.1383 25.5153 78.4383 26.7632 80.4156 24.7564C82.1612 22.8917 80.338 18.9588 78.5618 16.625C77.9697 15.8471 76.9978 15.4727 76 15.4727C75.0022 15.4727 74.0303 15.8471 73.4382 16.625C71.662 18.9588 69.8388 22.8917 71.5844 24.7564C73.5617 26.7632 74.8617 25.5153 75.3697 24.1983C75.0713 24.4101 74.6983 24.5272 74.3117 24.5272C73.8639 24.5272 73.4344 24.3702 73.1179 24.0908C72.8013 23.8113 72.6234 23.4324 72.6234 23.0372H79.3767ZM69.5346 11.3951H64.8312L68.5379 14.2698C69.3536 14.9023 70.5459 14.7001 71.0506 13.8436C71.6879 12.7622 70.8414 11.3951 69.5346 11.3951ZM82.4654 11.3951H87.1688L83.4621 14.2698C82.6464 14.9023 81.4541 14.7001 80.9494 13.8436C80.3121 12.7622 81.1586 11.3951 82.4654 11.3951Z" fill="#389753"/>
<path d="M16.08 12.152V29H11.976V22.064H5.592V29H1.488V12.152H5.592V18.752H11.976V12.152H16.08ZM21.1067 14.216C20.3867 14.216 19.7947 14.008 19.3307 13.592C18.8827 13.16 18.6587 12.632 18.6587 12.008C18.6587 11.368 18.8827 10.84 19.3307 10.424C19.7947 9.992 20.3867 9.776 21.1067 9.776C21.8107 9.776 22.3867 9.992 22.8347 10.424C23.2987 10.84 23.5307 11.368 23.5307 12.008C23.5307 12.632 23.2987 13.16 22.8347 13.592C22.3867 14.008 21.8107 14.216 21.1067 14.216ZM23.1467 15.608V29H19.0427V15.608H23.1467ZM34.3048 29L30.2248 23.384V29H26.1208V11.24H30.2248V21.056L34.2808 15.608H39.3448L33.7768 22.328L39.3928 29H34.3048ZM53.5807 22.088C53.5807 22.472 53.5568 22.872 53.5088 23.288H44.2208C44.2848 24.12 44.5488 24.76 45.0128 25.208C45.4928 25.64 46.0768 25.856 46.7648 25.856C47.7888 25.856 48.5008 25.424 48.9008 24.56H53.2688C53.0448 25.44 52.6368 26.232 52.0448 26.936C51.4688 27.64 50.7408 28.192 49.8608 28.592C48.9808 28.992 47.9968 29.192 46.9088 29.192C45.5968 29.192 44.4288 28.912 43.4048 28.352C42.3808 27.792 41.5808 26.992 41.0048 25.952C40.4288 24.912 40.1408 23.696 40.1408 22.304C40.1408 20.912 40.4208 19.696 40.9808 18.656C41.5568 17.616 42.3568 16.816 43.3808 16.256C44.4048 15.696 45.5808 15.416 46.9088 15.416C48.2048 15.416 49.3568 15.688 50.3648 16.232C51.3728 16.776 52.1568 17.552 52.7168 18.56C53.2928 19.568 53.5807 20.744 53.5807 22.088ZM49.3808 21.008C49.3808 20.304 49.1408 19.744 48.6608 19.328C48.1808 18.912 47.5808 18.704 46.8608 18.704C46.1728 18.704 45.5888 18.904 45.1088 19.304C44.6448 19.704 44.3568 20.272 44.2448 21.008H49.3808Z" fill="#0B0808"/>
<path d="M108.688 20.36C109.664 20.568 110.448 21.056 111.04 21.824C111.632 22.576 111.928 23.44 111.928 24.416C111.928 25.824 111.432 26.944 110.44 27.776C109.464 28.592 108.096 29 106.336 29H98.488V12.152H106.072C107.784 12.152 109.12 12.544 110.08 13.328C111.056 14.112 111.544 15.176 111.544 16.52C111.544 17.512 111.28 18.336 110.752 18.992C110.24 19.648 109.552 20.104 108.688 20.36ZM102.592 18.968H105.28C105.952 18.968 106.464 18.824 106.816 18.536C107.184 18.232 107.368 17.792 107.368 17.216C107.368 16.64 107.184 16.2 106.816 15.896C106.464 15.592 105.952 15.44 105.28 15.44H102.592V18.968ZM105.616 25.688C106.304 25.688 106.832 25.536 107.2 25.232C107.584 24.912 107.776 24.456 107.776 23.864C107.776 23.272 107.576 22.808 107.176 22.472C106.792 22.136 106.256 21.968 105.568 21.968H102.592V25.688H105.616ZM126.932 22.088C126.932 22.472 126.908 22.872 126.86 23.288H117.572C117.636 24.12 117.9 24.76 118.364 25.208C118.844 25.64 119.428 25.856 120.116 25.856C121.14 25.856 121.852 25.424 122.252 24.56H126.62C126.396 25.44 125.988 26.232 125.396 26.936C124.82 27.64 124.092 28.192 123.212 28.592C122.332 28.992 121.348 29.192 120.26 29.192C118.948 29.192 117.78 28.912 116.756 28.352C115.732 27.792 114.932 26.992 114.356 25.952C113.78 24.912 113.492 23.696 113.492 22.304C113.492 20.912 113.772 19.696 114.332 18.656C114.908 17.616 115.708 16.816 116.732 16.256C117.756 15.696 118.932 15.416 120.26 15.416C121.556 15.416 122.708 15.688 123.716 16.232C124.724 16.776 125.508 17.552 126.068 18.56C126.644 19.568 126.932 20.744 126.932 22.088ZM122.732 21.008C122.732 20.304 122.492 19.744 122.012 19.328C121.532 18.912 120.932 18.704 120.212 18.704C119.524 18.704 118.94 18.904 118.46 19.304C117.996 19.704 117.708 20.272 117.596 21.008H122.732ZM128.281 22.28C128.281 20.904 128.537 19.696 129.049 18.656C129.577 17.616 130.289 16.816 131.185 16.256C132.081 15.696 133.081 15.416 134.185 15.416C135.129 15.416 135.953 15.608 136.657 15.992C137.377 16.376 137.929 16.88 138.313 17.504V15.608H142.417V29H138.313V27.104C137.913 27.728 137.353 28.232 136.633 28.616C135.929 29 135.105 29.192 134.161 29.192C133.073 29.192 132.081 28.912 131.185 28.352C130.289 27.776 129.577 26.968 129.049 25.928C128.537 24.872 128.281 23.656 128.281 22.28ZM138.313 22.304C138.313 21.28 138.025 20.472 137.449 19.88C136.889 19.288 136.201 18.992 135.385 18.992C134.569 18.992 133.873 19.288 133.297 19.88C132.737 20.456 132.457 21.256 132.457 22.28C132.457 23.304 132.737 24.12 133.297 24.728C133.873 25.32 134.569 25.616 135.385 25.616C136.201 25.616 136.889 25.32 137.449 24.728C138.025 24.136 138.313 23.328 138.313 22.304ZM149.49 17.84C149.97 17.104 150.57 16.528 151.29 16.112C152.01 15.68 152.81 15.464 153.69 15.464V19.808H152.562C151.538 19.808 150.77 20.032 150.258 20.48C149.746 20.912 149.49 21.68 149.49 22.784V29H145.386V15.608H149.49V17.84Z" fill="#0B0808"/>
</g>
<defs>
<clipPath id="clip0_909_396">
<rect width="155" height="40" fill="white"/>
</clipPath>
</defs>
</svg>
